<?xml version="1.0" encoding="UTF-8" standalone="no"?>
<!DOCTYPE svg  PUBLIC '-//W3C//DTD SVG 1.1//EN'  'http://www.w3.org/Graphics/SVG/1.1/DTD/svg11.dtd'>
<svg xmlns="http://www.w3.org/2000/svg">
<defs>
<font id="DroidSerif-Bold" horiz-adv-x="1145">
<font-face underline-position="-103" font-weight="700" descent="-410" panose-1="2 2 8 0 6 5 0 2 2 0" units-per-em="2048" unicode-range="U+0020-25CA" bbox="-1106 -512 2675 2167" x-height="1098" underline-thickness="102" font-family="DroidSerif" ascent="1638" cap-height="1462"/>
<missing-glyph horiz-adv-x="2048"/>
<glyph glyph-name=".notdef" horiz-adv-x="2048"/>
<glyph glyph-name=".null" horiz-adv-x="0"/>
<glyph glyph-name="nonmarkingreturn" horiz-adv-x="2048"/>
<glyph glyph-name="space" horiz-adv-x="532" unicode=" "/>
<glyph glyph-name="exclam" horiz-adv-x="782" unicode="!" d="M225 147q0 47 13 78.5t35.5 50.5t53.5 27t66 8q34 0 64.5 -8t53.5 -27t36.5 -50.5t13.5 -78.5q0 -46 -13.5 -77t-36.5 -50t-53.5 -27.5t-64.5 -8.5q-35 0 -66 8.5t-53.5 27.5t-35.5 50t-13 77zM213 1462h356l-120 -995h-115z"/>
<glyph glyph-name="quotedbl" horiz-adv-x="1040" unicode='&quot;' d="M137 1462h320l-92 -563h-136zM584 1462h319l-72 -563h-135z"/>
<glyph glyph-name="numbersign" d="M434 551h215l72 371h-215zM1022 551v-141h-256l-76 -410h-145l76 410h-213l-78 -410h-146l78 410h-205v141h232l71 371h-237v143h264l72 397h147l-74 -397h213l76 397h146l-76 -397h196v-143h-223l-69 -371h227z" unicode="#"/>
<glyph glyph-name="dollar" d="M385 1128q0 -27 6 -52t22 -48.5t43 -46t68 -45.5v354q-60 -11 -99.5 -51.5t-39.5 -110.5zM799 389q0 65 -40 111t-120 88v-387q77 17 118.5 68t41.5 120zM639 1556v-155q91 -3 157 -20t109 -44.5t63.5 -63.5t20.5 -77q0 -65 -56 -107t-169 -42q0 30 -7 65t-22 67.5 t-38.5 59t-57.5 41.5v-399q6 -3 23 -9.5t28 -11.5q94 -37 161 -76t109.5 -85t62 -99.5t19.5 -118.5q0 -78 -27.5 -144.5t-79 -117.5t-126.5 -83.5t-170 -43.5v-254h-115v250q-117 3 -198 30t-131.5 68t-72.5 91t-22 98q0 45 16.5 76t43.5 50.5t61.5 28.5t71.5 9 q0 -77 16.5 -137t47 -102.5t73 -68.5t94.5 -34v442l-35 14q-98 40 -163.5 81t-106 87.5t-57.5 100.5t-17 120q0 74 28 135.5t78 107.5t119.5 75.5t153.5 38.5v157h115z" unicode="$"/>
<glyph glyph-name="percent" horiz-adv-x="1855" unicode="%" d="M1280 436q0 -84 7.5 -149.5t23.5 -111t42.5 -69.5t63.5 -24q39 0 64.5 24t41.5 69.5t22.5 111t6.5 149.5q0 82 -6.5 146.5t-22 109.5t-41 68.5t-63.5 23.5t-64.5 -23.5t-43 -68.5t-24 -109.5t-7.5 -146.5zM1786 436q0 -103 -23 -187t-68.5 -144t-115 -92.5t-162.5 -32.5 q-97 0 -167 32.5t-114.5 92.5t-65.5 144t-21 187t21 186.5t66 143t115 91.5t168 32q92 0 161 -32t115 -91.5t68.5 -143t22.5 -186.5zM651 0h-159l706 1462h158zM301 1030q0 -84 7.5 -149.5t23.5 -111t42.5 -69.5t63.5 -24q39 0 64.5 24t41.5 69.5t22.5 111t6.5 149.5 q0 82 -6.5 146.5t-22 109.5t-41 68.5t-63.5 23.5t-64.5 -23.5t-43 -68.5t-24 -109.5t-7.5 -146.5zM807 1030q0 -103 -23 -187t-68.5 -144t-115 -93t-162.5 -33q-97 0 -167 33t-114.5 93t-65.5 144t-21 187t21 186.5t66 143t115 91.5t168 32q92 0 161 -32t115 -91.5 t68.5 -143t22.5 -186.5z"/>
<glyph glyph-name="ampersand" horiz-adv-x="1640" unicode="&amp;" d="M846 1190q0 36 -6.5 67t-22.5 54t-44 36t-71 13q-34 0 -59.5 -13t-41.5 -36t-24 -54.5t-8 -68.5q0 -35 8 -67t23.5 -63.5t39.5 -63.5t56 -68q43 24 72 51t46 58.5t24.5 69.5t7.5 85zM397 406q0 -61 19.5 -113.5t54.5 -91.5t85.5 -61.5t111.5 -22.5q109 0 184 35.5 t125 95.5l-438 467q-43 -31 -70.5 -65.5t-43.5 -73t-22 -81t-6 -89.5zM1208 0l-141 150q-38 -38 -84.5 -69t-102.5 -53.5t-121.5 -35t-142.5 -12.5q-126 0 -223 29.5t-163 85.5t-100 137t-34 184q0 90 28.5 153.5t76.5 110t111.5 79t133.5 60.5q-40 48 -69.5 91.5 t-48.5 86.5t-28 88t-9 97q0 68 26 123t77.5 95t128.5 61.5t179 21.5q99 0 172.5 -23t122 -63t73 -93t24.5 -112q0 -62 -19 -112t-57.5 -92.5t-97 -79.5t-138.5 -74q5 -8 15 -15l290 -305q13 71 17 140.5t4 127.5v90h448v-108h-32q-34 0 -66.5 -4t-60.5 -18.5t-49.5 -42 t-34.5 -74.5q-16 -57 -37.5 -121.5t-52.5 -130.5l204 -213q29 -31 71 -41t97 -10h19v-109h-406z"/>
<glyph glyph-name="quotesingle" horiz-adv-x="594" unicode="&apos;" d="M137 1462h320l-92 -563h-136z"/>
<glyph glyph-name="parenleft" horiz-adv-x="819" unicode="(" d="M446 651q0 -122 12.5 -239.5t46.5 -222t94 -192.5t155 -151v-131q-171 69 -292 161.5t-197.5 209.5t-112 258t-35.5 307q0 165 35.5 305.5t112 256.5t197.5 208t292 160v-129q-95 -63 -155 -150.5t-94 -191.5t-46.5 -220.5t-12.5 -238.5z"/>
<glyph glyph-name="parenright" horiz-adv-x="819" unicode=")" d="M373 651q0 122 -12.5 238.5t-46 220.5t-93.5 191.5t-155 150.5v129q171 -68 292 -160t197.5 -208t111.5 -256.5t35 -305.5q0 -166 -35 -307t-111.5 -258t-197.5 -209.5t-292 -161.5v131q95 63 155 151t93.5 192.5t46 222t12.5 239.5z"/>
<glyph glyph-name="asterisk" horiz-adv-x="1028" unicode="*" d="M72 1237l92 207l305 -221l-68 333h230l-74 -329l307 213l92 -205l-319 -80l319 -82l-92 -203l-307 213l72 -331h-228l66 333l-303 -217l-92 203l319 84z"/>
<glyph glyph-name="plus" d="M645 659v-366h-147v366h-365v146h365v366h147v-366h367v-146h-367z" unicode="+"/>
<glyph glyph-name="comma" horiz-adv-x="602" unicode="," d="M459 86q0 -65 -20 -126t-64 -113t-113.5 -93.5t-169.5 -68.5v106q45 16 78.5 32t56 34.5t34 41t11.5 52.5q0 19 -11 31.5t-27.5 23.5t-36 22.5t-36 29.5t-27.5 44.5t-11 67.5q0 69 42 105t105 36q87 0 138 -60t51 -165z"/>
<glyph glyph-name="hyphen" horiz-adv-x="635" unicode="-" d="M51 451v215h533v-215h-533z"/>
<glyph glyph-name="period" horiz-adv-x="623" unicode="." d="M143 147q0 47 13 78.5t35.5 50.5t53.5 27t66 8q34 0 64.5 -8t53.5 -27t36.5 -50.5t13.5 -78.5q0 -46 -13.5 -77t-36.5 -50t-53.5 -27.5t-64.5 -8.5q-35 0 -66 8.5t-53.5 27.5t-35.5 50t-13 77z"/>
<glyph glyph-name="slash" horiz-adv-x="590" unicode="/" d="M147 -250l-147 2l446 1804h144z"/>
<glyph glyph-name="zero" d="M387 733q0 -147 8 -262t28.5 -194.5t56.5 -121.5t93 -42t93 42t56.5 121.5t28 194.5t7.5 262t-7.5 261.5t-27.5 193.5t-56 120.5t-92 41.5q-57 0 -93.5 -41.5t-57.5 -120.5t-29 -193.5t-8 -261.5zM1075 733q0 -169 -28 -308t-89 -238t-156 -153t-229 -54q-140 0 -236 54 t-155.5 153t-85.5 238.5t-26 309.5t26 308t85.5 236t156 151t237.5 53q133 0 228 -53t155.5 -151t88.5 -236.5t28 -309.5z" unicode="0"/>
<glyph glyph-name="one" d="M199 0v109h168q26 0 45 6.5t32 21.5t19 40.5t6 64.5v1026q-39 -48 -73.5 -87t-66.5 -67t-62.5 -43.5t-61.5 -15.5q-25 0 -46.5 10.5t-37.5 30.5t-25.5 48t-9.5 62q31 8 65 19.5t72.5 30t82.5 45t95 63.5l144 106h229v-1228q0 -32 4.5 -57t16 -42t32 -25.5t52.5 -8.5h165 v-109h-845z" unicode="1"/>
<glyph glyph-name="two" d="M999 1143q0 -48 -10.5 -93t-35 -93t-64.5 -101.5t-99 -118t-137.5 -142.5t-181.5 -175l-205 -195h477q63 0 107.5 36.5t62.5 105.5l17 63h121l-11 -430h-968v211l303 309q95 97 156 175t96 149t49 140.5t14 148.5q0 117 -42.5 171t-117.5 54q-104 0 -146 -89.5 t-42 -264.5q-58 0 -106.5 11t-83 35t-53.5 62.5t-19 93.5q0 56 28.5 106t84.5 88t140.5 60.5t196.5 22.5q115 0 202.5 -23.5t147 -67.5t89.5 -107t30 -142z" unicode="2"/>
<glyph glyph-name="three" d="M498 -20q-116 0 -199.5 20t-137 54t-79 78.5t-25.5 92.5q0 39 14 69t38 50.5t55.5 30.5t66.5 10q0 -65 18.5 -114t51.5 -82t79.5 -49.5t102.5 -16.5q50 0 95.5 14t80.5 48t55.5 92.5t20.5 146.5q0 59 -20.5 108t-61 84.5t-99.5 55.5t-136 20h-127v127h135q66 0 115 21.5 t81 61.5t48 95.5t16 122.5q0 112 -43 175t-127 63q-55 0 -89.5 -27t-53.5 -72t-26 -102t-7 -117q-128 0 -197 44.5t-69 138.5q0 54 28.5 101.5t85.5 83t141.5 55.5t196.5 20q109 0 196.5 -22t149 -65t94.5 -105t33 -142q0 -69 -24 -127t-66 -104t-99 -80.5t-124 -57.5 q62 -11 126.5 -35.5t117.5 -66.5t87 -105t34 -151q0 -125 -46.5 -210t-124 -136.5t-177 -73.5t-205.5 -22z" unicode="3"/>
<glyph glyph-name="four" d="M594 874q0 90 3 194t11 200q-10 -24 -32 -66t-47 -86.5t-48 -84t-35 -58.5l-276 -457h424v358zM893 381v-125q0 -48 13.5 -77t36 -44.5t53.5 -20.5t65 -5h26v-109h-718v109h57q35 0 65.5 5t53 20.5t36 44.5t13.5 77v125h-567v125l581 956h285v-946h213v-135h-213z" unicode="4"/>
<glyph glyph-name="five" d="M471 123q51 0 96.5 16t80 53.5t55 101t20.5 157.5q0 153 -73 228t-206 75q-39 0 -70.5 -3t-58.5 -8.5t-51 -12t-47 -13.5l-94 37l65 708h775l10 -372h-117l-16 69q-5 18 -11 32.5t-16.5 24.5t-26.5 15.5t-41 5.5h-426q0 -1 -1.5 -17.5t-3.5 -43.5t-5 -61t-6 -69l-16 -188 q16 6 41.5 11.5t55.5 10t63.5 7t64.5 2.5q119 0 215.5 -27.5t165 -82t106 -136.5t37.5 -192q0 -133 -48.5 -223.5t-125.5 -145.5t-172 -78.5t-188 -23.5q-115 0 -195 20.5t-130 55t-72.5 79t-22.5 92.5q0 72 44.5 107t119.5 35q0 -44 11.5 -88t38 -79t69.5 -57t106 -22z" unicode="5"/>
<glyph glyph-name="six" d="M588 772q-28 0 -59 -8.5t-59.5 -22.5t-52 -31.5t-36.5 -35.5q1 -147 18.5 -253t48 -174t71 -100t87.5 -32q79 0 124.5 80.5t45.5 257.5q0 166 -50 242.5t-138 76.5zM657 1362q-60 0 -108.5 -36t-84 -105t-56.5 -169.5t-27 -230.5q21 14 48 27.5t61.5 24.5t78 17.5 t95.5 6.5q93 0 168.5 -29t129 -83.5t82.5 -133t29 -178.5q0 -110 -30 -200.5t-89.5 -155.5t-148 -101t-205.5 -36q-114 0 -207.5 41.5t-160 127.5t-103.5 217t-37 310q0 169 35.5 316t108 256t182.5 172t258 63q99 0 168 -19t112 -50.5t62.5 -72t19.5 -84.5q0 -31 -13 -60 t-42 -51t-75.5 -35t-114.5 -13q0 46 -6 93t-21 85t-41.5 62t-67.5 24z" unicode="6"/>
<glyph glyph-name="seven" d="M338 0l545 1239h-539q-56 0 -84.5 -26.5t-34.5 -77.5l-12 -103h-123l10 430h977v-100l-565 -1362h-174z" unicode="7"/>
<glyph glyph-name="eight" d="M762 1128q0 44 -12.5 86.5t-36.5 75.5t-59.5 53.5t-82.5 20.5q-42 0 -74.5 -17.5t-54.5 -48t-33.5 -72.5t-11.5 -91q0 -53 14.5 -93t42.5 -72t69 -57.5t95 -50.5q38 22 65 47t44.5 57t26 71.5t8.5 90.5zM569 96q53 0 95.5 19t72.5 53t46 81t16 103q0 50 -17 90.5 t-53.5 76t-93 69t-135.5 69.5q-34 -22 -64 -50.5t-51.5 -64t-34 -79.5t-12.5 -98q0 -60 16.5 -109.5t47 -85t73 -55t94.5 -19.5zM61 373q0 66 21.5 119t61.5 96.5t95.5 80t122.5 70.5q-122 71 -187.5 161t-65.5 210q0 71 24.5 138.5t80.5 119.5t147 83.5t223 31.5 q108 0 189.5 -27t136.5 -75t82.5 -113.5t27.5 -143.5q0 -61 -19.5 -108t-55.5 -85.5t-87 -71.5t-115 -66q92 -45 157 -90.5t105.5 -95t59 -104t18.5 -116.5q0 -97 -35.5 -172.5t-103 -127.5t-164.5 -79.5t-221 -27.5q-128 0 -222 31t-155.5 84t-91 125t-29.5 153z" unicode="8"/>
<glyph glyph-name="nine" d="M561 711q74 0 127 37.5t84 99.5q-1 131 -17.5 225t-45 154.5t-68.5 89.5t-88 29q-88 0 -136 -86.5t-48 -260.5q0 -142 48 -215t144 -73zM465 -20q-93 0 -157 19.5t-104 52t-57.5 74t-17.5 85.5q0 45 24 75.5t76 41.5q15 -46 36 -86t50.5 -69.5t69 -46.5t90.5 -17 q138 0 212.5 149t84.5 444q-24 -30 -53.5 -55t-66.5 -44t-81.5 -29.5t-97.5 -10.5q-88 0 -161.5 27.5t-127 81t-83 133t-29.5 182.5q0 111 32 202t92.5 156.5t147.5 101.5t197 36q111 0 205 -40t162.5 -124t106.5 -214t38 -310q0 -169 -33 -317.5t-103.5 -259t-182 -174.5 t-269.5 -64z" unicode="9"/>
<glyph glyph-name="colon" horiz-adv-x="623" unicode=":" d="M143 952q0 47 13 78.5t35.5 50.5t53.5 27t66 8q34 0 64.5 -8t53.5 -27t36.5 -50.5t13.5 -78.5q0 -46 -13.5 -77.5t-36.5 -50.5t-53.5 -27.5t-64.5 -8.5q-35 0 -66 8.5t-53.5 27.5t-35.5 50.5t-13 77.5zM143 147q0 47 13 78.5t35.5 50.5t53.5 27t66 8q34 0 64.5 -8 t53.5 -27t36.5 -50.5t13.5 -78.5q0 -46 -13.5 -77t-36.5 -50t-53.5 -27.5t-64.5 -8.5q-35 0 -66 8.5t-53.5 27.5t-35.5 50t-13 77z"/>
<glyph glyph-name="semicolon" horiz-adv-x="602" unicode=";" d="M143 952q0 47 13 78.5t35.5 50.5t53.5 27t66 8q34 0 64.5 -8t53.5 -27t36.5 -50.5t13.5 -78.5q0 -46 -13.5 -77.5t-36.5 -50.5t-53.5 -27.5t-64.5 -8.5q-35 0 -66 8.5t-53.5 27.5t-35.5 50.5t-13 77.5zM459 86q0 -65 -20 -126t-64 -113t-113.5 -93.5t-169.5 -68.5v106 q45 16 78.5 32t56 34.5t34 41t11.5 52.5q0 19 -11 31.5t-27.5 23.5t-36 22.5t-36 29.5t-27.5 44.5t-11 67.5q0 69 42 105t105 36q87 0 138 -60t51 -165z"/>
<glyph glyph-name="less" d="M133 690v84l879 479v-161l-660 -361l660 -356v-162z" unicode="&lt;"/>
<glyph glyph-name="equal" d="M1016 1001v-143h-887v143h887zM1016 604v-143h-887v143h887z" unicode="="/>
<glyph glyph-name="greater" d="M133 213v162l660 356l-660 361v161l879 -479v-84z" unicode="&gt;"/>
<glyph glyph-name="question" horiz-adv-x="1126" unicode="?" d="M332 147q0 47 13 78.5t35.5 50.5t53.5 27t66 8q34 0 64.5 -8t53.5 -27t36.5 -50.5t13.5 -78.5q0 -46 -13.5 -77t-36.5 -50t-53.5 -27.5t-64.5 -8.5q-35 0 -66 8.5t-53.5 27.5t-35.5 50t-13 77zM1014 1106q0 -82 -25.5 -147t-76.5 -119t-127.5 -99.5t-178.5 -87.5 l-41 -186h-125l-41 252q88 35 144 82.5t88.5 102t44.5 114.5t12 121q0 49 -9 89.5t-28.5 70t-50 45.5t-72.5 16q-46 0 -77 -21t-50 -56t-27.5 -82t-8.5 -99q-63 0 -116 9t-91.5 26.5t-60 44.5t-21.5 63q0 50 26 93.5t79.5 75.5t135.5 50.5t195 18.5q108 0 200 -25.5t159 -74 t105 -118.5t38 -159z"/>
<glyph glyph-name="at" horiz-adv-x="1886" unicode="@" d="M768 487q0 -102 36 -156.5t95 -54.5q44 0 75.5 21t53 55.5t35.5 77.5t22 88l82 418q-6 14 -17.5 24.5t-26.5 18t-31.5 11t-32.5 3.5q-52 0 -93.5 -26t-74 -68.5t-55.5 -97t-38.5 -110.5t-22.5 -109.5t-7 -94.5zM1806 803q0 -153 -37 -273t-97 -202.5t-135.5 -126 t-152.5 -43.5q-91 0 -154 44.5t-97 147.5h-13q-21 -40 -48 -75t-61 -61t-76.5 -41t-96.5 -15q-64 0 -122.5 21t-103 64t-70.5 109t-26 156q0 55 13 119t41.5 127.5t72 123t105 105t141 73t178.5 27.5q71 0 122 -18t83 -43l86 43h49l-86 -512q-2 -12 -4.5 -31t-4.5 -39 t-3.5 -38.5t-1.5 -30.5q0 -42 9 -69t23 -42.5t31.5 -21t34.5 -5.5q41 0 82.5 34t75.5 99.5t55.5 162.5t21.5 223q0 140 -42.5 245.5t-118 176t-180 106t-228.5 35.5q-97 0 -191.5 -27t-180 -79t-157.5 -127.5t-125 -172t-82.5 -213.5t-29.5 -252q0 -181 54 -309t146.5 -209 t216 -118t261.5 -37q83 0 162 15t150 39t132 55t109 63l49 -78q-54 -41 -122.5 -77t-149 -63t-171 -43t-188.5 -16q-117 0 -225 21.5t-202.5 65.5t-172.5 109.5t-133.5 153.5t-86 198t-30.5 243q0 137 33.5 262t95 231.5t149.5 193t197 148t236.5 94.5t269.5 33 q178 0 313 -51t225.5 -139.5t136.5 -209t46 -259.5z"/>
<glyph glyph-name="A" horiz-adv-x="1542" unicode="A" d="M795 942q-11 35 -22.5 73.5t-23 78.5t-22 79.5t-18.5 75.5q-9 -31 -21 -68t-25.5 -76l-27 -78t-25.5 -75l-121 -346h414zM446 481l-59 -176q-8 -25 -16.5 -58.5t-8.5 -58.5q0 -20 8 -35t21 -24.5t29.5 -14.5t34.5 -5h86v-109h-533v109h25q27 0 49.5 6t42 22.5t37 45.5 t35.5 75l444 1204h281l428 -1206q15 -43 31.5 -71.5t36 -45t41.5 -23.5t46 -7h37v-109h-676v109h80q15 0 31 4.5t28.5 14t20.5 24.5t8 36q0 25 -6 48t-12 40l-72 205h-498z"/>
<glyph glyph-name="B" horiz-adv-x="1376" unicode="B" d="M571 827h78q72 0 119.5 15t76 46.5t40.5 81.5t12 120t-13.5 117t-43.5 76t-78 41.5t-117 12.5h-74v-510zM571 125h136q68 0 116 15t78 48.5t43.5 87.5t13.5 132q0 75 -12 130.5t-41 91.5t-76 54t-118 18h-140v-577zM1241 1090q0 -68 -18.5 -118.5t-52.5 -87t-81.5 -62.5 t-105.5 -44v-10q71 -18 129.5 -49.5t101 -77t66 -105.5t23.5 -135q0 -202 -147 -301.5t-439 -99.5h-660v109h84q23 0 42.5 4.5t33.5 18.5t22.5 40t8.5 70v981q0 41 -8.5 66.5t-23 39.5t-34 19.5t-41.5 5.5h-84v108h598q292 0 439 -90t147 -282z"/>
<glyph glyph-name="C" horiz-adv-x="1368" unicode="C" d="M870 143q75 0 133.5 17.5t104.5 45.5t80.5 63t60.5 69q16 -12 25.5 -37t9.5 -51q0 -43 -23 -90.5t-77 -87.5t-143 -66t-220 -26q-178 0 -311 54t-221 153t-132 238t-44 308q0 166 45 304t133.5 237t221 154t306.5 55q118 0 205.5 -18.5t145.5 -50.5t87 -75.5t29 -93.5 q0 -38 -16.5 -70.5t-49 -56.5t-80.5 -37.5t-110 -13.5q0 51 -11 101.5t-37.5 91.5t-69.5 66.5t-107 25.5q-97 0 -164 -41t-107.5 -120t-58.5 -194.5t-18 -263.5t22 -259t71 -184.5t127.5 -110t192.5 -36.5z"/>
<glyph glyph-name="D" horiz-adv-x="1571" unicode="D" d="M1112 758q0 293 -107.5 436t-316.5 143h-117v-1210h115q105 0 185 43.5t133.5 125.5t80.5 198.5t27 263.5zM1458 758q0 -168 -46 -307.5t-137.5 -239.5t-227 -155.5t-314.5 -55.5h-676v109h86q23 0 42 4.5t33 18.5t22 40t8 70v987q0 41 -8 65.5t-22.5 37.5t-33.5 17.5 t-41 4.5h-86v108h676q170 0 304.5 -44.5t228 -133t143 -220.5t49.5 -306z"/>
<glyph glyph-name="E" horiz-adv-x="1337" unicode="E" d="M573 125h410q31 0 53 11.5t38 32.5t25.5 49.5t14.5 62.5l16 96h142l-15 -377h-1200v109h86q22 0 41 4t33.5 16.5t22.5 37t8 64.5v990q0 44 -8 70t-22 40t-33 18.5t-42 4.5h-86v108h1137l8 -377h-143l-10 97q-8 75 -38 115t-93 40h-345v-512h486v-123h-486v-577z"/>
<glyph glyph-name="F" horiz-adv-x="1272" unicode="F" d="M1059 1085l-10 99q-10 81 -49.5 117t-102.5 36h-326v-559h486v-121h-486v-415q0 -44 8.5 -70t22.5 -40t34 -18.5t42 -4.5h127v-109h-748v109h86q22 0 41 4t33.5 16.5t22.5 37t8 64.5v998q0 41 -8 65.5t-22.5 37.5t-33.5 17.5t-41 4.5h-86v108h1135l10 -377h-143z"/>
<glyph glyph-name="G" horiz-adv-x="1575" unicode="G" d="M866 -20q-190 0 -331.5 54t-235.5 153t-140 238t-46 308q0 166 49 304t145 237t239 154t331 55q128 0 223.5 -18.5t160 -50.5t96.5 -75.5t32 -93.5q0 -36 -17 -67.5t-51 -55.5t-83 -37.5t-114 -13.5q0 62 -15 114t-46.5 89t-79.5 57.5t-113 20.5q-112 0 -190.5 -41 t-128 -120t-72 -194.5t-22.5 -263.5t23.5 -262.5t76 -192.5t136 -118.5t204.5 -40.5q38 0 76 3t74 11v301q0 82 -37 114t-109 32h-27v108h644v-108h-27q-31 0 -54 -7.5t-38 -25.5t-22 -47.5t-7 -73.5v-336q-120 -55 -242 -82.5t-262 -27.5z"/>
<glyph glyph-name="H" horiz-adv-x="1677" unicode="H" d="M913 0v109h88q22 0 41 4.5t33.5 18.5t22.5 40t8 70v458h-535v-458q0 -44 8.5 -70t22.5 -40t33 -18.5t41 -4.5h88v-109h-707v109h86q22 0 41 4.5t33.5 18.5t22.5 40t8 70v986q0 41 -8.5 65.5t-23 37.5t-33.5 17.5t-40 4.5h-86v109h707v-109h-88q-22 0 -41 -4.5t-33 -18.5 t-22.5 -40t-8.5 -70v-395h535v395q0 44 -8 70t-22.5 40t-33.5 18.5t-41 4.5h-88v109h707v-109h-86q-21 0 -40 -4.5t-33.5 -18.5t-22.5 -40t-8 -70v-989q0 -40 8.5 -64.5t23 -37t33 -16.5t39.5 -4h86v-109h-707z"/>
<glyph glyph-name="I" horiz-adv-x="821" unicode="I" d="M57 0v109h86q23 0 42 4.5t33 18.5t22 40t8 70v978q0 44 -8 70t-22 40t-33 18.5t-42 4.5h-86v109h707v-109h-86q-22 0 -41.5 -4.5t-33.5 -18.5t-22 -40t-8 -70v-978q0 -44 8 -70t22 -40t33.5 -18.5t41.5 -4.5h86v-109h-707z"/>
<glyph glyph-name="J" horiz-adv-x="754" unicode="J" d="M731 1354h-86q-22 0 -41.5 -4.5t-33.5 -18.5t-22.5 -40t-8.5 -70v-1225q0 -93 -21 -165t-58 -126.5t-88.5 -92t-112 -60.5t-128 -33.5t-137.5 -10.5h-74v119h37q49 0 95.5 18.5t82.5 61.5t58 113.5t22 173.5v1235q0 41 -8 65.5t-22.5 37.5t-33.5 17.5t-40 4.5h-86v108 h706v-108z"/>
<glyph glyph-name="K" horiz-adv-x="1503" unicode="K" d="M889 1090q33 35 55.5 63.5t36 53t19.5 46.5t6 43q0 34 -26 47t-89 13v106h555v-106q-42 0 -79.5 -13t-73.5 -37t-71 -57t-71 -73l-270 -297l381 -605q30 -48 57.5 -79.5t55.5 -50.5t57 -27t63 -8h8v-109h-110q-78 0 -137 5t-103.5 15t-76.5 25.5t-56 36.5t-43.5 47.5 t-38.5 58.5l-276 471l-91 -71v-346q0 -44 8.5 -70t22.5 -40t34 -18.5t42 -4.5h86v-109h-707v109h86q22 0 41 4t33.5 16.5t22.5 37t8 64.5v998q0 41 -8 65.5t-22.5 37.5t-33.5 17.5t-41 4.5h-86v108h707v-108h-86q-22 0 -42 -4.5t-34 -18.5t-22.5 -40t-8.5 -70v-478z"/>
<glyph glyph-name="L" horiz-adv-x="1339" unicode="L" d="M57 0v109h86q23 0 42 4.5t33 18.5t22 40t8 70v979q0 44 -8 70t-22 40t-33 18.5t-42 4.5h-86v108h707v-108h-86q-21 0 -40.5 -4.5t-33.5 -17.5t-22.5 -37.5t-8.5 -65.5v-1104h381q72 0 112 45.5t58 132.5l33 154h115l-15 -457h-1200z"/>
<glyph glyph-name="M" horiz-adv-x="1950" unicode="M" d="M1237 0v109h20q32 0 56.5 4t40.5 16t24 34.5t8 59.5v1037l-413 -1260h-139l-433 1260v-1018q0 -44 10.5 -70t30 -40t47.5 -18.5t64 -4.5h12v-109h-508v109h86q22 0 41 4t33.5 16.5t22.5 37t8 64.5v998q0 41 -8 65.5t-22.5 37.5t-33.5 17.5t-41 4.5h-86v108h590l340 -989 l326 989h579v-108h-86q-22 0 -41 -4.5t-33 -18.5t-22 -40t-8 -70v-979q0 -44 8 -70t22 -40t33 -18.5t41 -4.5h86v-109h-655z"/>
<glyph glyph-name="N" horiz-adv-x="1614" unicode="N" d="M1200 0l-799 1128v-886q0 -44 8.5 -70t22.5 -40t33.5 -18.5t40.5 -4.5h86v-109h-535v109h86q22 0 41 4.5t33.5 18.5t22.5 40t8 70v987q0 41 -8.5 65.5t-23 37.5t-33.5 17.5t-40 4.5h-86v108h455l723 -1022v789q0 41 -8.5 65.5t-23 37.5t-33.5 17.5t-40 4.5h-86v108h535 v-108h-86q-21 0 -40 -4.5t-33.5 -18.5t-22.5 -40t-8 -70v-1221h-189z"/>
<glyph glyph-name="O" horiz-adv-x="1612" unicode="O" d="M457 733q0 -147 19 -262t61 -194.5t108.5 -121.5t161.5 -42q96 0 162.5 42t107.5 121.5t59.5 194.5t18.5 262t-18.5 262t-59.5 194.5t-107 121t-161 41.5q-96 0 -163 -41.5t-109 -121t-61 -194.5t-19 -262zM1499 733q0 -169 -45.5 -308t-134 -238t-217 -153t-295.5 -54 q-175 0 -305.5 54t-216.5 153t-129 238.5t-43 309.5t43 308.5t129.5 236.5t217 151.5t306.5 53.5q166 0 294.5 -53.5t216.5 -152t133.5 -237t45.5 -309.5z"/>
<glyph glyph-name="P" horiz-adv-x="1307" unicode="P" d="M571 678h50q76 0 129 19t86.5 60t49 106t15.5 157q0 82 -13.5 142.5t-43 100t-77 59t-116.5 19.5h-80v-663zM1245 1028q0 -92 -32 -177t-104 -150t-187 -103.5t-281 -38.5h-70v-328q0 -40 9 -64.5t24 -37t35 -16.5t41 -4h125v-109h-748v109h86q23 0 42 4.5t33 18.5t22 40 t8 70v987q0 41 -8 65.5t-22.5 37.5t-33.5 17.5t-41 4.5h-86v108h629q142 0 247 -30t174.5 -86.5t103.5 -136.5t34 -181z"/>
<glyph glyph-name="Q" horiz-adv-x="1612" unicode="Q" d="M457 733q0 -147 19 -262t61 -194.5t108.5 -121.5t161.5 -42q96 0 162.5 42t107.5 121.5t59.5 194.5t18.5 262t-18.5 262t-59.5 194.5t-107 121t-161 41.5q-96 0 -163 -41.5t-109 -121t-61 -194.5t-19 -262zM1499 733q0 -144 -32.5 -265.5t-95.5 -215.5t-156 -158.5 t-214 -93.5q9 -113 37 -185.5t68.5 -114t89.5 -57.5t100 -16h33v-119h-147q-92 0 -181.5 27t-162 85.5t-121 150t-58.5 221.5q-138 21 -240.5 83.5t-170.5 158.5t-101.5 223t-33.5 278q0 170 43 308.5t129.5 236.5t217 151.5t306.5 53.5q166 0 294.5 -53.5t216.5 -152 t133.5 -237t45.5 -309.5z"/>
<glyph glyph-name="R" horiz-adv-x="1448" unicode="R" d="M571 754h115q71 0 118.5 19t76 56.5t41 94t12.5 131.5q0 78 -14 132t-44 88.5t-78 50t-116 15.5h-111v-587zM57 109h86q21 0 40 4t33.5 16.5t23 37t8.5 64.5v998q0 41 -8.5 65.5t-23 37.5t-33.5 17.5t-40 4.5h-86v108h660q290 0 425.5 -97t135.5 -282q0 -81 -24 -144 t-63.5 -110t-89.5 -79.5t-102 -53.5l244 -420q26 -44 50.5 -75.5t49 -52t50.5 -30t55 -9.5h8v-109h-67q-92 0 -160.5 7t-120 27.5t-89 56.5t-69.5 93l-243 451h-136v-404q0 -40 8.5 -64.5t23 -37t33.5 -16.5t40 -4h88v-109h-707v109z"/>
<glyph glyph-name="S" horiz-adv-x="1200" unicode="S" d="M541 -20q-138 0 -230 26t-147.5 67t-79 92t-23.5 101q0 53 19.5 89t52 59t74 33t86.5 10q0 -88 21 -154.5t58 -111t88.5 -67t112.5 -22.5q60 0 107 17t80 47t50 70.5t17 87.5q0 52 -21 92.5t-63.5 75t-107 66t-150.5 67.5q-107 44 -180.5 90.5t-118.5 100.5t-64.5 117 t-19.5 138q0 94 38 170t105 130t159 83t200 29q113 0 195 -18.5t135.5 -50.5t79.5 -75.5t26 -93.5q0 -36 -15.5 -67t-47 -54t-79 -36t-110.5 -13q0 43 -11.5 92.5t-37.5 92t-67.5 70.5t-100.5 28q-41 0 -78 -12t-64.5 -36t-43.5 -59.5t-16 -81.5q0 -43 14 -81t51.5 -74.5 t103 -73t169.5 -78.5q105 -43 179 -88t121.5 -96.5t69 -113t21.5 -136.5q0 -99 -39 -181.5t-112 -141.5t-175.5 -92t-230.5 -33z"/>
<glyph glyph-name="T" horiz-adv-x="1337" unicode="T" d="M831 242q0 -44 8 -70t22.5 -40t33.5 -18.5t41 -4.5h86v-109h-707v109h86q23 0 42 4.5t33 18.5t22 40t8 70v1095h-164q-46 0 -77 -10t-50.5 -28.5t-29 -45.5t-13.5 -61l-14 -127h-138l11 397h1276l10 -397h-137l-15 127q-4 34 -13.5 61t-29 45.5t-50.5 28.5t-77 10h-164 v-1095z"/>
<glyph glyph-name="U" horiz-adv-x="1530" unicode="U" d="M1497 1354h-88q-21 0 -40 -4.5t-33.5 -18.5t-22.5 -40t-8 -70v-799q0 -103 -29.5 -185t-92 -139t-159.5 -87.5t-231 -30.5t-239.5 25.5t-178.5 81.5t-111.5 144.5t-38.5 214.5v783q0 41 -8.5 65.5t-23 37.5t-33 17.5t-39.5 4.5h-88v108h706v-108h-86q-21 0 -40 -4.5 t-33.5 -18.5t-22.5 -40t-8 -70v-791q0 -86 21.5 -144.5t61.5 -94t96 -51t126 -15.5q68 0 123 17.5t93.5 54.5t59.5 94t21 135v803q0 41 -8 65.5t-22.5 37.5t-33.5 17.5t-40 4.5h-86v108h536v-108z"/>
<glyph glyph-name="V" horiz-adv-x="1430" unicode="V" d="M1430 1354h-99q-14 0 -25 -6t-22 -22.5t-23 -45.5t-28 -76l-418 -1204h-205l-436 1255q-10 29 -25.5 48.5t-33 30.5t-35.5 15.5t-33 4.5h-47v108h676v-108h-94q-15 0 -29 -3.5t-25.5 -11.5t-18.5 -21t-7 -32q0 -20 6 -45.5t12 -42.5l209 -631q8 -23 16.5 -54t16.5 -65 t14.5 -67.5t9.5 -61.5q3 17 10.5 46.5t17.5 64t20.5 69t19.5 62.5l211 623q4 11 8.5 24.5t8 27.5t6 27t2.5 21q0 34 -22.5 52t-59.5 18h-107v108h529v-108z"/>
<glyph glyph-name="W" horiz-adv-x="2185" unicode="W" d="M1237 1448l283 -782q18 -48 33.5 -97.5t28.5 -94.5t23 -83t15 -65q8 37 17 82t19.5 94.5t22 101.5t23.5 101l108 442q3 12 6.5 28t6.5 31.5t4.5 29t1.5 21.5q0 53 -31.5 75t-99.5 22h-47v108h534v-108h-39q-30 0 -53 -6t-41 -23.5t-32.5 -48.5t-28.5 -82l-318 -1194h-233 l-344 961l-295 -961h-254l-375 1245q-9 32 -22 53t-30.5 33.5t-40 17.5t-52.5 5h-27v108h684v-108h-47q-62 0 -92.5 -24t-30.5 -75q0 -17 6.5 -49.5t14.5 -60.5l137 -473q11 -39 23.5 -84.5t23.5 -92t20 -89.5t13 -76q14 66 30.5 123.5t34.5 117.5l270 877h150z"/>
<glyph glyph-name="X" horiz-adv-x="1499" unicode="X" d="M1071 1294q0 18 -9 30t-24.5 18.5t-36.5 9t-45 2.5h-6v108h480v-108h-19q-30 0 -54 -7.5t-47.5 -25t-47.5 -45.5t-54 -70l-297 -405l377 -584q40 -63 83 -85.5t81 -22.5h27v-109h-676v109h10q123 0 123 67q0 12 -2 23t-9.5 26t-20.5 37t-36 55l-188 285l-221 -299 q-19 -26 -36 -59.5t-17 -65.5q0 -34 28 -51.5t96 -17.5h7v-109h-517v109h13q37 0 65 10t52.5 28.5t47.5 45t48 59.5l358 467l-338 526q-17 27 -33.5 47.5t-37 34t-45.5 20.5t-60 7h-27v108h678v-108h-6q-35 0 -58.5 -4.5t-37.5 -13t-19.5 -19.5t-5.5 -23q0 -21 15.5 -53 t38.5 -67l170 -254l178 249q18 28 36.5 62.5t18.5 62.5z"/>
<glyph glyph-name="Y" horiz-adv-x="1419" unicode="Y" d="M336 0v109h96q25 0 46.5 3t37.5 15.5t25.5 37.5t9.5 68v285l-379 727q-15 30 -28.5 51t-29.5 33.5t-36.5 18.5t-50.5 6h-27v108h686v-108h-35q-62 0 -92.5 -25t-30.5 -67q0 -26 9.5 -56.5t21.5 -56.5l152 -301q32 -65 52.5 -115t37.5 -98q21 54 48.5 117.5t61.5 132.5 l119 245q22 45 28.5 75.5t6.5 47.5q0 53 -33.5 77t-101.5 24h-47v108h536v-108h-39q-26 0 -44.5 -7t-35 -25t-34 -49t-41.5 -79l-348 -678v-280q0 -45 9 -70t24.5 -38t36 -16t44.5 -3h101v-109h-756z"/>
<glyph glyph-name="Z" horiz-adv-x="1364" unicode="Z" d="M1229 1358l-770 -1233h442q63 0 103 17.5t63.5 46.5t34 65.5t14.5 75.5l10 92h148l-10 -422h-1178v102l768 1235h-403q-48 0 -79 -13t-49.5 -37.5t-27 -59t-12.5 -76.5l-11 -111h-147l10 422h1094v-104z"/>
<glyph glyph-name="bracketleft" horiz-adv-x="848" unicode="[" d="M205 -262v1818h567v-108h-88q-34 0 -65 -5t-53.5 -20.5t-36 -44.5t-13.5 -78v-1306q0 -48 13.5 -77.5t36 -45t53.5 -20.5t65 -5h88v-108h-567z"/>
<glyph glyph-name="backslash" horiz-adv-x="590" unicode="\" d="M0 1556h145l445 -1804h-148z"/>
<glyph glyph-name="bracketright" horiz-adv-x="848" unicode="]" d="M643 1556v-1818h-567v108h88q35 0 65.5 5t53 20.5t36 45t13.5 77.5v1306q0 49 -13.5 78t-36 44.5t-53 20.5t-65.5 5h-88v108h567z"/>
<glyph glyph-name="asciicircum" d="M526 1462h88l435 -925h-160l-320 702l-315 -702h-160z" unicode="^"/>
<glyph glyph-name="underscore" horiz-adv-x="940" unicode="_" d="M950 -291h-960v121h960v-121z"/>
<glyph glyph-name="grave" horiz-adv-x="1182" unicode="`" d="M713 1241q-48 28 -106.5 69.5t-113 85.5t-98.5 84.5t-63 67.5v21h321q16 -34 41 -74.5t52.5 -81t55.5 -78.5t50 -67v-27h-139z"/>
<glyph glyph-name="a" horiz-adv-x="1227" unicode="a" d="M592 999q-39 0 -65.5 -16.5t-42.5 -46t-22.5 -70t-6.5 -88.5q-138 0 -207.5 31t-69.5 106q0 56 33.5 96t91 65t134 36.5t163.5 11.5q108 0 188.5 -18.5t134 -59.5t80.5 -107.5t27 -162.5v-522q0 -42 6.5 -70t20.5 -44.5t38 -23.5t58 -7h8v-109h-381l-43 141h-18 q-34 -41 -64 -71.5t-64 -50.5t-76.5 -29.5t-100.5 -9.5q-68 0 -126.5 20t-102 61.5t-68.5 104t-25 147.5q0 167 114.5 247t344.5 87l168 6v113q0 51 -4 94t-17 74t-38.5 48t-67.5 17zM410 305q0 -88 28 -132t88 -44q44 0 79.5 18.5t61 52.5t39 82.5t13.5 108.5v154l-92 -6 q-61 -3 -103 -19.5t-67 -45.5t-36 -71t-11 -98z"/>
<glyph glyph-name="b" horiz-adv-x="1329" unicode="b" d="M725 971q-61 0 -101 -25.5t-64 -77.5t-34 -130.5t-10 -184.5q0 -101 10 -179.5t34 -132t65 -81t102 -27.5q101 0 146 109t45 313q0 209 -45 312.5t-148 103.5zM1233 553q0 -149 -27.5 -257t-80.5 -178.5t-131.5 -104t-180.5 -33.5q-59 0 -107 13t-86.5 37t-68 57 t-51.5 73h-19l-57 -160h-389v109h14q29 0 57 5t50 20t35.5 43t13.5 75v1059q0 44 -13 70.5t-35 41.5t-51.5 20t-62.5 5h-8v108h481v-350q0 -32 -2.5 -75t-5.5 -81q-4 -45 -8 -92h14q44 76 117.5 120t189.5 44q100 0 176.5 -33.5t129 -103t79.5 -177t27 -255.5z"/>
<glyph glyph-name="c" horiz-adv-x="1079" unicode="c" d="M604 -20q-113 0 -206.5 29t-160.5 96t-104 175t-37 265q0 166 38.5 277t106 178t159.5 95.5t198 28.5q99 0 175 -16.5t127 -45.5t77.5 -68.5t26.5 -84.5q0 -33 -11.5 -64.5t-41 -55.5t-81 -39t-131.5 -15q0 53 -6.5 101t-21.5 84t-40.5 57.5t-64.5 21.5 q-45 0 -80.5 -21.5t-61 -73.5t-39 -139t-13.5 -218q0 -208 57 -311t186 -103q53 0 99.5 12.5t84.5 35t66.5 53t46.5 65.5q25 -15 37 -40.5t12 -53.5q0 -39 -23 -79t-71.5 -72.5t-123.5 -53t-179 -20.5z"/>
<glyph glyph-name="d" horiz-adv-x="1329" unicode="d" d="M600 133q61 0 101.5 25.5t65 77.5t34.5 130.5t10 184.5q0 101 -10 179.5t-34.5 132t-65 81t-101.5 27.5q-51 0 -87.5 -27.5t-59 -81.5t-33 -132.5t-10.5 -180.5q0 -209 43.5 -312.5t146.5 -103.5zM1122 252q0 -47 14 -75t37.5 -43t54 -20t64.5 -5h8v-109h-397l-57 160 h-19q-23 -42 -52.5 -75t-68 -56.5t-86.5 -36t-108 -12.5q-100 0 -178 33.5t-131.5 103t-81 176.5t-27.5 254q0 148 27.5 256.5t80.5 179t130 105t176 34.5q58 0 104.5 -12.5t84 -34t66.5 -51.5t50 -66h14q-4 57 -8 107q-1 21 -2.5 43t-3 41.5t-2 34.5t-0.5 24v113 q0 42 -13.5 67.5t-36 38.5t-52.5 17t-64 4h-16v108h493v-1304z"/>
<glyph glyph-name="e" horiz-adv-x="1169" unicode="e" d="M627 -20q-130 0 -229.5 38t-166.5 110t-101 176.5t-34 238.5q0 144 34 253t99 182t159.5 109.5t215.5 36.5q111 0 200 -31.5t151 -93.5t95 -154t33 -214v-105h-671q3 -103 22.5 -177t54 -122t84 -71t113.5 -23q53 0 98 12.5t81.5 35t64 53t45.5 65.5q55 -30 55 -100 q0 -44 -24 -83.5t-74 -69.5t-125.5 -48t-179.5 -18zM608 991q-86 0 -136.5 -85t-55.5 -249h354q0 78 -9 140t-28.5 105t-50 66t-74.5 23z"/>
<glyph glyph-name="f" horiz-adv-x="834" unicode="f" d="M39 0v109h45q22 0 47.5 4.5t47 18.5t36 40t14.5 70v716h-182v140h182v76q0 95 24.5 169.5t76 126t130.5 78.5t187 27q99 0 165 -11.5t105 -32t55.5 -47.5t16.5 -59q0 -69 -62.5 -101t-189.5 -32q0 25 -5 54t-17 54t-31.5 41.5t-48.5 16.5q-25 0 -43 -13.5t-29.5 -43 t-16.5 -76.5t-5 -115v-112h282v-140h-282v-716q0 -44 14.5 -70t36 -40t47 -18.5t47.5 -4.5h96v-109h-743z"/>
<glyph glyph-name="g" horiz-adv-x="1147" unicode="g" d="M383 745q0 -54 7.5 -97.5t24.5 -74.5t44 -48t67 -17q41 0 68 16.5t43 48t22.5 76t6.5 99.5q0 57 -7 103.5t-23.5 79.5t-43.5 51.5t-68 18.5q-40 0 -67 -19t-43.5 -53t-23.5 -81t-7 -103zM246 -203q0 -85 61.5 -125.5t179.5 -40.5q180 0 262 52t82 153q0 65 -41 91 t-124 26h-238q-31 0 -63 -5.5t-58.5 -22.5t-43.5 -47.5t-17 -80.5zM1137 1059q0 -23 -7 -44.5t-23.5 -37.5t-45 -25.5t-70.5 -9.5q0 21 -6.5 37t-17.5 27t-25 16.5t-29 5.5q-17 0 -36.5 -7t-30.5 -15q21 -23 39 -52.5t31.5 -63.5t21.5 -70.5t8 -74.5q0 -77 -24.5 -142.5 t-75.5 -113.5t-129 -75t-185 -27q-11 0 -28 0.5l-34 1t-32.5 2t-23.5 2.5q-13 -7 -26.5 -17.5t-24 -23.5t-17 -29t-6.5 -34q0 -34 26.5 -50t69.5 -16h248q102 0 176 -21.5t122.5 -61.5t71.5 -98.5t23 -131.5q0 -95 -36 -169.5t-109.5 -126t-185 -79t-263.5 -27.5 q-242 0 -360.5 72.5t-118.5 212.5q0 110 71 168.5t206 69.5q-28 11 -55 27t-48 38.5t-34 51.5t-13 65q0 34 13.5 63t37.5 55.5t57.5 50t73.5 46.5q-45 16 -83.5 44.5t-66 68.5t-43.5 91t-16 113q0 180 104.5 279.5t323.5 99.5q73 0 135.5 -18.5t108.5 -44.5q17 18 37.5 38.5 t46.5 37.5t58 28t71 11q37 0 64.5 -9.5t46 -25.5t28 -37t9.5 -45z"/>
<glyph glyph-name="h" horiz-adv-x="1366" unicode="h" d="M858 0v674q0 66 -8.5 117.5t-28 86.5t-51 53.5t-76.5 18.5q-51 0 -85 -26t-54.5 -69.5t-29.5 -101t-9 -120.5v-391q0 -43 10.5 -69t29.5 -40.5t46.5 -19t61.5 -4.5h6v-109h-629v109h4q35 0 64 4.5t50.5 19.5t33.5 43t12 74v1073q0 41 -14.5 65.5t-36.5 38t-47.5 17.5 t-47.5 4h-24v108h481v-337q0 -40 -2.5 -86t-5.5 -85q-4 -46 -8 -90h18q31 58 65.5 91t73.5 49.5t82.5 21t91.5 4.5q79 0 142 -23t106.5 -71t66.5 -122.5t23 -178.5v-475q0 -48 8.5 -76.5t25.5 -43.5t43 -20t61 -5h6v-109h-455z"/>
<glyph glyph-name="i" horiz-adv-x="721" unicode="i" d="M59 109q23 0 48.5 4.5t47 18.5t36 40t14.5 70v622q0 41 -14.5 65.5t-36.5 38t-47.5 17.5t-47.5 4h-24v109h481v-856q0 -44 14.5 -70t36 -40t47.5 -18.5t48 -4.5h24v-109h-651v109h24zM176 1430q0 39 13.5 67t37 45.5t55 26t68.5 8.5q35 0 67 -8.5t56 -26t38.5 -45.5 t14.5 -67q0 -38 -14.5 -66t-38.5 -46t-56 -27t-67 -9q-37 0 -68.5 9t-55 27t-37 46t-13.5 66z"/>
<glyph glyph-name="j" horiz-adv-x="707" unicode="j" d="M178 1430q0 39 13.5 67t37 45.5t55 26t68.5 8.5q35 0 67 -8.5t56 -26t38.5 -45.5t14.5 -67q0 -38 -14.5 -66t-38.5 -46t-56 -27t-67 -9q-37 0 -68.5 9t-55 27t-37 46t-13.5 66zM516 1098v-1114q0 -138 -38.5 -229.5t-107 -146t-163 -77.5t-207.5 -23h-41v127h14 q56 0 99.5 18t73 60t44.5 112t15 175v854q0 44 -13 70.5t-35.5 41t-52.5 19t-63 4.5h-6v109h481z"/>
<glyph glyph-name="k" horiz-adv-x="1303" unicode="k" d="M1303 0h-29q-112 0 -188 5t-131 23t-95 54.5t-80 99.5l-182 287l-82 -61v-166q0 -44 14.5 -70t36 -40t47.5 -18.5t48 -4.5h24v-109h-651v109h24q23 0 48.5 4.5t47 18.5t36 40t14.5 70v1081q0 41 -14.5 65.5t-36.5 38t-47.5 17.5t-47.5 4h-24v108h481v-790 q0 -28 -1.5 -64.5t-3.5 -69.5q-3 -39 -5 -79l258 289q34 38 44.5 60.5t10.5 37.5q0 26 -27.5 40.5t-78.5 14.5v103h516v-103q-71 0 -139.5 -41.5t-149.5 -132.5l-129 -147l272 -406q54 -81 109 -120t104 -39h7v-109z"/>
<glyph glyph-name="l" horiz-adv-x="721" unicode="l" d="M59 109q23 0 48.5 4.5t47 18.5t36 40t14.5 70v1081q0 41 -14.5 65.5t-36.5 38t-47.5 17.5t-47.5 4h-24v108h481v-1314q0 -44 14.5 -70t36 -40t47.5 -18.5t48 -4.5h24v-109h-651v109h24z"/>
<glyph glyph-name="m" horiz-adv-x="2019" unicode="m" d="M858 0v674q0 66 -8.5 117.5t-28 86.5t-51 53.5t-76.5 18.5q-51 0 -85 -26t-54.5 -69.5t-29.5 -101t-9 -120.5v-391q0 -43 10.5 -69t29.5 -40.5t46.5 -19t61.5 -4.5h6v-109h-629v109h4q35 0 64 4.5t50.5 19.5t33.5 43t12 74v612q0 43 -10.5 69t-30 40.5t-46.5 19t-61 4.5 h-6v103h430l27 -146h10q31 58 65.5 92t73.5 52t82.5 23t91.5 5q113 0 193 -40.5t117 -131.5h18q31 58 67.5 92t78 52t87 23t93.5 5q79 0 142 -23t106.5 -71t66.5 -122.5t23 -178.5v-475q0 -48 8.5 -76.5t25.5 -43.5t43 -20t60 -5h6v-109h-455v674q0 132 -36.5 204t-126.5 72 q-48 0 -82 -23.5t-55.5 -63.5t-31.5 -93.5t-10 -112.5v-403q0 -48 8.5 -76.5t25.5 -43.5t43 -20t61 -5h6v-109h-455z"/>
<glyph glyph-name="n" horiz-adv-x="1366" unicode="n" d="M858 0v674q0 66 -8.5 117.5t-28 86.5t-51 53.5t-76.5 18.5q-51 0 -85 -26t-54.5 -69.5t-29.5 -101t-9 -120.5v-391q0 -43 10.5 -69t29.5 -40.5t46.5 -19t61.5 -4.5h6v-109h-629v109h4q35 0 64 4.5t50.5 19.5t33.5 43t12 74v606q0 43 -10.5 69t-30 40.5t-46.5 19t-61 4.5 h-6v109h430l27 -146h10q31 58 65.5 92t73.5 52t82.5 23t91.5 5q79 0 142 -23t106.5 -71t66.5 -122.5t23 -178.5v-475q0 -48 8.5 -76.5t25.5 -43.5t43 -20t61 -5h6v-109h-455z"/>
<glyph glyph-name="o" horiz-adv-x="1255" unicode="o" d="M414 553q0 -109 11.5 -192t37 -139t66.5 -84.5t100 -28.5t99.5 28.5t66 84.5t36.5 139t11 192q0 110 -11.5 192.5t-37 137.5t-66.5 82.5t-100 27.5t-100 -27.5t-66 -82.5t-36 -137.5t-11 -192.5zM1159 553q0 -289 -135.5 -431t-398.5 -142q-123 0 -221 35.5t-166.5 106.5 t-105 179t-36.5 252q0 289 135.5 430t399.5 141q123 0 220.5 -35t166 -106t105 -178.5t36.5 -251.5z"/>
<glyph glyph-name="p" horiz-adv-x="1321" unicode="p" d="M717 127q103 0 147.5 103.5t44.5 312.5q0 204 -44.5 313t-145.5 109q-61 0 -102 -27.5t-65 -81t-34 -132t-10 -179.5q0 -106 10 -184.5t34 -130.5t64 -77.5t101 -25.5zM51 -383q23 0 48.5 4.5t47 18.5t36 40t14.5 70v1096q0 47 -10.5 75t-29 43t-44 20t-54.5 5h-14v109 h401l37 -160h9q22 40 51.5 73t68 57t86.5 37t107 13q102 0 180.5 -33.5t131.5 -104t80.5 -178.5t27.5 -257q0 -148 -27 -255.5t-79.5 -177.5t-129 -103.5t-176.5 -33.5q-117 0 -190 44.5t-117 119.5h-14q4 -47 8 -92q3 -38 5.5 -81t2.5 -75v-141q0 -44 14.5 -70t36 -40 t47 -18.5t47.5 -4.5h45v-109h-671v109h24z"/>
<glyph glyph-name="q" horiz-adv-x="1327" unicode="q" d="M600 965q-103 0 -146.5 -103.5t-43.5 -312.5q0 -205 43.5 -311.5t146.5 -106.5q61 0 101.5 27t65 79.5t34.5 130t10 179.5q0 106 -10 184.5t-34.5 130.5t-65 77.5t-101.5 25.5zM608 -492v109h37q34 0 64 4t52.5 17t36 38.5t13.5 67.5v150q0 9 0.5 24t2 34.5t3 41 t2.5 42.5q4 49 8 107h-14q-21 -35 -50 -65t-66.5 -51.5t-84 -34t-104.5 -12.5q-99 0 -176 33.5t-130 103.5t-80.5 178t-27.5 256q0 147 27.5 254t81 176.5t131.5 103t178 33.5q60 0 108 -12.5t86.5 -36t68 -56.5t52.5 -75h19l41 160h413v-109h-8q-34 0 -64.5 -5t-54 -20 t-37.5 -43t-14 -75v-1102q0 -42 13.5 -67.5t36 -38.5t52.5 -17t64 -4h37v-109h-717z"/>
<glyph glyph-name="r" horiz-adv-x="1071" unicode="r" d="M725 0h-684v109h6q35 0 64 5t50 20.5t32.5 44.5t11.5 77v594q0 45 -10.5 72.5t-30 42.5t-46.5 19.5t-61 4.5h-6v109h414l41 -160h10q20 46 44 80.5t57.5 57.5t79 34.5t108.5 11.5q121 0 178 -42.5t57 -123.5q0 -94 -68 -146t-192 -52q0 42 -4.5 74t-16 53t-31 32 t-48.5 11q-36 0 -62 -18t-44 -46.5t-29.5 -64.5t-18 -72.5t-8.5 -69.5t-2 -57v-354q0 -45 11 -72.5t30 -41.5t45.5 -18.5t56.5 -4.5h66v-109z"/>
<glyph glyph-name="s" horiz-adv-x="999" unicode="s" d="M473 -20q-111 0 -189.5 18t-128 50t-72 76t-22.5 95q0 50 19.5 80.5t49 47.5t62.5 22.5t60 5.5q0 -64 16 -115t45 -86.5t69.5 -54.5t90.5 -19q53 0 91.5 11t63 30.5t36.5 45t12 53.5q0 34 -12.5 60.5t-41.5 50t-77.5 46t-120.5 47.5q-83 29 -146.5 61.5t-107 74t-66 95 t-22.5 122.5q0 82 31.5 143t89.5 101.5t139 60.5t180 20q97 0 165 -16.5t111 -43.5t63 -61t20 -69q0 -69 -48.5 -105t-160.5 -36q0 102 -45.5 158.5t-134.5 56.5q-33 0 -63.5 -8t-53 -24t-36 -39.5t-13.5 -55.5q0 -33 12.5 -59t44 -49.5t85.5 -47.5t138 -53 q68 -24 125.5 -54.5t99 -70t64.5 -90t23 -115.5q0 -85 -29.5 -152t-86.5 -113t-140 -70.5t-189 -24.5z"/>
<glyph glyph-name="t" horiz-adv-x="829" unicode="t" d="M643 145q40 0 76.5 5.5t68.5 13.5v-133q-16 -8 -43.5 -17t-64 -16.5t-82.5 -12.5t-100 -5q-69 0 -125 16.5t-95 55t-60 100t-21 151.5v655h-154v105q66 0 118 26t83 60q63 66 94 203h170v-254h262v-140h-262v-634q0 -93 31.5 -136t103.5 -43z"/>
<glyph glyph-name="u" horiz-adv-x="1366" unicode="u" d="M907 0l-45 145h-10q-31 -53 -67 -85.5t-77 -50t-86.5 -23.5t-93.5 -6q-160 0 -245.5 99t-85.5 306v459q0 45 -8 73t-25 44t-43.5 22t-63.5 6h-4v109h455v-656q0 -66 7.5 -119t25.5 -90.5t48 -58t75 -20.5q49 0 84.5 21.5t58 62t33 98t10.5 129.5v393q0 45 -12 71 t-32 39.5t-47 17t-57 3.5h-6v109h465v-860q0 -45 10.5 -70.5t28.5 -38.5t43 -16.5t55 -3.5h17v-109h-408z"/>
<glyph glyph-name="v" horiz-adv-x="1241" unicode="v" d="M1241 989h-41q-21 0 -37.5 -5t-32 -20.5t-30.5 -45t-33 -78.5l-297 -840h-270l-336 891q-11 29 -25.5 48t-34 30t-45 15.5t-59.5 4.5v109h635v-109h-86q-31 0 -49.5 -16.5t-18.5 -48.5q0 -25 6.5 -49t12.5 -41l137 -388q25 -65 43.5 -131t28.5 -118q5 24 14 56t18 62.5 t16.5 55.5l10.5 35l139 411q10 28 16.5 56.5t6.5 56.5q0 34 -22.5 46.5t-57.5 12.5h-59v109h450v-109z"/>
<glyph glyph-name="w" horiz-adv-x="1753" unicode="w" d="M1012 1087l200 -604q25 -74 36 -125.5t18 -89.5h6q5 26 9.5 49t11 48t14.5 54.5t20 67.5l90 299q8 26 13.5 56t5.5 47q0 52 -33.5 76t-102.5 24h-14v109h469v-109h-26q-30 0 -52 -6t-39 -23.5t-32 -49t-31 -81.5l-264 -829h-221l-224 680l-235 -680h-223l-263 881 q-11 32 -24 53t-30 33t-39 17t-52 5h-6v109h600v-109h-27q-62 0 -92.5 -17.5t-30.5 -68.5q0 -17 5.5 -41t11.5 -47l76 -266q10 -37 19 -76t17 -76t14.5 -70t10.5 -59h6q9 51 24.5 105.5t41.5 130.5l209 583h133z"/>
<glyph glyph-name="x" horiz-adv-x="1323" unicode="x" d="M891 928q0 37 -28.5 49t-76.5 12h-6v109h473v-109h-18q-30 0 -53.5 -5.5t-47 -20t-48.5 -40t-58 -65.5l-211 -258l301 -383q47 -59 86.5 -83.5t77.5 -24.5h27v-109h-652v109h11q123 0 123 67q0 12 -3 24t-11 28t-23.5 37.5t-40.5 51.5l-117 142l-143 -178 q-19 -25 -31 -51t-12 -52q0 -34 29 -51.5t98 -17.5h6v-109h-520v109h18q37 0 65 6.5t52.5 21.5t49.5 40t56 63l258 311l-258 330q-43 54 -86 81t-90 27h-27v109h644v-109h-7q-35 0 -57.5 -4.5t-35.5 -12.5t-18 -19t-5 -23q0 -22 11 -42.5t36 -51.5l114 -140l97 117 q24 31 37.5 59t13.5 56z"/>
<glyph glyph-name="y" horiz-adv-x="1186" unicode="y" d="M1186 1098v-109q-31 0 -54.5 -7t-42.5 -24.5t-35 -46t-32 -71.5q-36 -102 -75 -208t-78.5 -212.5t-79 -212t-76.5 -207.5q-36 -99 -68 -174t-67.5 -130t-78.5 -91t-100 -57.5t-132.5 -30.5t-176.5 -9h-35v119q107 0 182 26t127 74t85.5 115t58.5 148l-369 901 q-12 29 -27 46t-32 26t-37 11.5t-43 2.5v121h584v-109q-60 0 -94.5 -15.5t-34.5 -60.5q0 -17 7 -40.5t13 -38.5q18 -43 37.5 -93.5t38 -101t35.5 -97.5t30 -83q15 -39 25 -70.5t16.5 -57t10.5 -47t6 -42.5q2 21 8 46.5t13 49t14 42t10 26.5l135 401q4 10 7.5 23.5t6.5 27.5 t4.5 27t1.5 22q0 47 -39 64.5t-110 17.5v109h461z"/>
<glyph glyph-name="z" horiz-adv-x="1083" unicode="z" d="M754 139q31 0 52.5 9t37 29t26 51.5t19.5 76.5l12 66h121l-10 -371h-975v84l604 874h-299q-23 0 -40 -6.5t-30.5 -23t-24.5 -44t-22 -69.5l-12 -49h-123l25 332h884v-88l-606 -871h361z"/>
<glyph glyph-name="braceleft" horiz-adv-x="905" unicode="{" d="M649 -256q-86 0 -151.5 21t-109.5 60.5t-66.5 95.5t-22.5 126v350q0 59 -18.5 95.5t-50.5 57.5t-75.5 29.5t-93.5 10.5v125q50 2 93.5 10t75.5 29t50.5 57.5t18.5 93.5v352q0 144 88.5 221.5t261.5 77.5h195v-108h-80q-44 0 -72 -13t-44.5 -38t-23 -62.5t-6.5 -85.5v-348 q0 -93 -53 -152.5t-172 -86.5v-17q118 -29 171.5 -89t53.5 -153v-350q0 -48 6.5 -85.5t23 -63t44.5 -38.5t72 -13h80v-109h-195z"/>
<glyph glyph-name="bar" d="M645 -492h-147v2048h147v-2048z" unicode="|"/>
<glyph glyph-name="braceright" horiz-adv-x="905" unicode="}" d="M61 -256v109h80q44 0 72 13t44.5 38.5t23 63t6.5 85.5v350q0 93 53.5 153t171.5 89v17q-119 27 -172 86.5t-53 152.5v348q0 48 -6.5 85.5t-23 62.5t-44.5 38t-72 13h-80v108h195q173 0 261.5 -77.5t88.5 -221.5v-352q0 -57 18.5 -93.5t50.5 -57.5t75.5 -29t93.5 -10v-125 q-50 -2 -93.5 -10.5t-75.5 -29.5t-50.5 -57.5t-18.5 -95.5v-350q0 -70 -22.5 -126t-66.5 -95.5t-109.5 -60.5t-151.5 -21h-195z"/>
<glyph glyph-name="asciitilde" horiz-adv-x="1149" unicode="~" d="M541 664q-37 16 -65 26.5t-50.5 17t-43 9t-42.5 2.5q-28 0 -58 -9.5t-59.5 -25.5t-57.5 -38t-52 -48v158q99 108 247 108q29 0 54 -2.5t52.5 -9t61 -19t80.5 -32.5q37 -16 65 -27t51 -17.5t43.5 -9t41.5 -2.5q29 0 58.5 9.5t59 26t57.5 38.5t52 47v-157 q-98 -109 -248 -109q-29 0 -53.5 2.5t-52 9.5t-61 19.5t-80.5 32.5z"/>
<glyph glyph-name="nonbreakingspace" horiz-adv-x="532" unicode=" "/>
<glyph glyph-name="exclamdown" horiz-adv-x="782" unicode="¡" d="M557 946q0 -47 -13 -78.5t-35.5 -50.5t-53.5 -27t-66 -8q-34 0 -64.5 8t-53.5 27t-36.5 50.5t-13.5 78.5q0 46 13.5 77.5t36.5 50.5t53.5 27.5t64.5 8.5q35 0 66 -8.5t53.5 -27.5t35.5 -50.5t13 -77.5zM569 -369h-356l121 996h115z"/>
<glyph glyph-name="cent" d="M430 735q0 -158 33.5 -255t107.5 -134v828q-33 -15 -59 -46.5t-44.5 -84t-28 -128.5t-9.5 -180zM571 170q-103 7 -186.5 41.5t-143 101.5t-92 170.5t-32.5 249.5q0 153 34 259.5t94.5 174.5t144 102t181.5 42v151h127v-151q88 -5 156 -23.5t114 -47t69.5 -65t23.5 -77.5 q0 -33 -11.5 -64.5t-41 -55.5t-80.5 -39t-131 -15q0 43 -5 84t-16.5 75t-30.5 58.5t-47 36.5v-856q52 1 97.5 14.5t83 35t66 51t46.5 64.5q26 -15 38.5 -40.5t12.5 -53.5q0 -35 -20.5 -72t-62.5 -68.5t-107 -54t-154 -28.5v-170h-127v170z" unicode="¢"/>
<glyph glyph-name="sterling" d="M553 711q7 -23 12.5 -42.5t9.5 -39t6.5 -40t2.5 -46.5q0 -161 -185 -281l7 -10q6 2 18.5 5t29 6t35.5 5t37 2q21 0 40 -2.5t39.5 -8t45 -13t56.5 -17.5q45 -14 81.5 -22t81.5 -8q70 0 122.5 41.5t92.5 109.5v-229q-40 -71 -98 -106t-139 -35q-31 0 -64.5 4t-65.5 10 t-61.5 14t-52.5 17q-50 17 -105.5 31t-97.5 14q-35 0 -65.5 -4.5t-58.5 -12.5t-54.5 -19.5t-54.5 -25.5l-90 -47v184l65 41q32 20 65 48t60 66.5t44.5 88t17.5 111.5q0 59 -12.5 107.5t-32.5 101.5h-236v125h191q-11 25 -22.5 57t-21.5 68t-16 75t-6 78q0 180 117 275.5 t338 95.5q110 0 187 -18.5t125.5 -50.5t70.5 -75.5t22 -93.5q0 -72 -65 -119t-191 -47q0 47 -7 96.5t-25 90t-50 66.5t-82 26q-77 0 -122.5 -58.5t-45.5 -179.5q0 -42 6.5 -82.5t16 -77.5t21.5 -69t24 -57h363v-125z" unicode="£"/>
<glyph glyph-name="currency" d="M334 729q0 -49 18.5 -92t50 -75.5t74.5 -51t92 -18.5q51 0 94.5 18.5t75 51t49 75.5t17.5 92q0 51 -17.5 94.5t-49 76t-75 51t-94.5 18.5q-49 0 -92 -18.5t-74.5 -51t-50 -76t-18.5 -94.5zM195 729q0 59 16.5 113.5t48.5 99.5l-123 123l103 102l122 -123q45 29 97 45.5 t110 16.5q57 0 109.5 -16.5t97.5 -47.5l127 127l103 -104l-125 -127q31 -45 48 -97.5t17 -111.5t-16 -110.5t-45 -96.5l121 -121l-103 -102l-121 121q-46 -31 -100 -48.5t-113 -17.5q-58 0 -112 16.5t-99 47.5l-118 -119l-105 104l119 119q-59 91 -59 207z" unicode="¤"/>
<glyph glyph-name="yen" horiz-adv-x="1104" unicode="¥" d="M195 0v109h47q34 0 64 1t52.5 11.5t36.5 34.5t15 69v113h-287v121h287v119h-287v120h252l-242 547q-14 31 -26.5 52t-27.5 33.5t-34 18t-45 5.5h-6v108h586v-108h-15q-62 0 -89 -19t-27 -61q0 -25 8.5 -54.5t23.5 -66.5l78 -195q26 -65 45 -125t27 -102q6 28 21 67t32 83 l86 225q13 35 21 60t12.5 44.5t6 34t1.5 27.5q0 42 -28.5 62t-96.5 20h-6v108h426v-108h-6q-26 0 -46 -7t-37.5 -25t-34.5 -49t-38 -79l-211 -496h268v-120h-286v-119h286v-121h-286v-102q0 -49 13.5 -75t36 -37.5t53.5 -13t65 -1.5h47v-109h-735z"/>
<glyph glyph-name="brokenbar" d="M645 -492h-147v820h147v-820zM645 737h-147v819h147v-819z" unicode="¦"/>
<glyph glyph-name="section" horiz-adv-x="1114" unicode="§" d="M836 526q0 35 -11 66t-39 62.5t-76.5 64t-123.5 69.5q-68 32 -128 62.5t-110 64.5q-15 -17 -24 -40.5t-9 -49.5q0 -42 14.5 -75t48 -63.5t89 -62t137.5 -71.5q66 -34 115.5 -60.5t89.5 -54.5q11 16 19 38t8 50zM565 -231q-115 0 -191.5 23.5t-122 61t-64.5 84t-19 93.5 q0 40 13.5 70t37.5 50.5t57.5 31t73.5 10.5q0 -68 15.5 -125.5t45.5 -99.5t75.5 -65.5t105.5 -23.5q99 0 154 54t55 145q0 42 -12.5 74.5t-50 66t-106.5 73t-183 95.5q-85 42 -145.5 85t-98 89.5t-55 98t-17.5 112.5q0 69 37 124.5t96 86.5q-35 37 -61.5 98.5t-26.5 145.5 q0 78 30 139.5t84 103.5t128 64t162 22q90 0 158.5 -17.5t114.5 -48.5t69.5 -73.5t23.5 -93.5q0 -63 -50 -105t-144 -42q0 45 -8 92.5t-28.5 86.5t-55.5 64t-89 25q-86 0 -138 -50t-52 -143q0 -49 16.5 -82.5t48 -59.5t76.5 -49t103 -50q108 -52 185.5 -98t127 -94t73 -101 t23.5 -119q0 -37 -10.5 -73t-28 -68t-41.5 -58t-51 -43q34 -43 53 -101t19 -118q0 -81 -26 -149t-77.5 -116.5t-129 -75.5t-179.5 -27z"/>
<glyph glyph-name="dieresis" horiz-adv-x="1182" unicode="¨" d="M678 1409q0 35 10 59.5t27 39.5t39 21.5t47 6.5q23 0 44.5 -6.5t38.5 -21.5t27.5 -39.5t10.5 -59.5q0 -34 -10.5 -58.5t-27.5 -39.5t-38.5 -22t-44.5 -7q-25 0 -47 7t-39 22t-27 39.5t-10 58.5zM258 1409q0 35 10 59.5t26.5 39.5t38.5 21.5t46 6.5t46 -6.5t39 -21.5 t27.5 -39.5t10.5 -59.5q0 -34 -10.5 -58.5t-27.5 -39.5t-39 -22t-46 -7t-46 7t-38.5 22t-26.5 39.5t-10 58.5z"/>
<glyph glyph-name="copyright" horiz-adv-x="1731" unicode="©" d="M901 365q47 0 87 12t72 32t55.5 45t37.5 50q12 -9 20.5 -25.5t8.5 -38.5q0 -28 -19.5 -57t-58 -53t-96 -39t-134.5 -15q-102 0 -178.5 33t-128 93t-77 144t-25.5 187q0 100 28 183t83.5 143t137 93.5t189.5 33.5q71 0 123.5 -11.5t87.5 -31t52.5 -46t17.5 -57.5 q0 -22 -11 -40t-30 -30.5t-44.5 -19t-54.5 -6.5q0 29 -7.5 56.5t-24.5 50t-44.5 36t-68.5 13.5q-72 0 -122.5 -24t-82.5 -71t-46.5 -115t-14.5 -157q0 -177 69 -272.5t199 -95.5zM225 731q0 -88 23 -169.5t64.5 -152.5t100 -129.5t129.5 -100t152.5 -64.5t169.5 -23 q89 0 171 23t153 64.5t129.5 100t100 129.5t64.5 152.5t23 169.5t-23 170t-64.5 153.5t-100 130t-129.5 100t-153 64.5t-171 23q-88 0 -169.5 -23t-152.5 -64.5t-129.5 -100t-100 -130t-64.5 -153t-23 -170.5zM113 731q0 104 27 200.5t75.5 180t117 152.5t152 118t179.5 76 t200 27t200.5 -27t180 -76t152.5 -118t118 -152.5t76 -180t27 -200.5t-27 -200t-76 -179.5t-118 -152t-152.5 -117.5t-180 -75.5t-200.5 -26.5t-200 26.5t-179.5 75.5t-152 117.5t-117 152t-75.5 179.5t-27 200z"/>
<glyph glyph-name="ordfeminine" horiz-adv-x="860" unicode="ª" d="M416 1384q-25 0 -40 -9.5t-23.5 -27t-11.5 -40.5t-3 -50q-106 0 -164.5 20.5t-58.5 68.5q0 35 24 59t65.5 39t97 22t118.5 7q155 0 232 -48.5t77 -164.5v-302q0 -45 19.5 -61t68.5 -16v-90h-239l-50 100h-14q-18 -22 -41 -42.5t-51.5 -36.5t-63 -25t-75.5 -9 q-104 0 -164 53t-60 156q0 102 86 150.5t261 56.5l92 4v55q0 29 -3 53.5t-11.5 41.5t-24.5 26.5t-43 9.5zM295 991q0 -54 23 -76t55 -22q63 0 94 39.5t31 101.5v84l-47 -2q-85 -3 -120.5 -34.5t-35.5 -90.5z"/>
<glyph glyph-name="guillemotleft" horiz-adv-x="1135" unicode="«" d="M545 606l313 357h143l-206 -410l206 -410h-143l-313 357v106zM133 606l313 357h144l-207 -410l207 -410h-144l-313 357v106z"/>
<glyph glyph-name="logicalnot" d="M1012 805v-512h-148v366h-731v146h879z" unicode="¬"/>
<glyph glyph-name="uni00AD" horiz-adv-x="635" unicode="­" d="M51 451v215h533v-215h-533z"/>
<glyph glyph-name="registered" horiz-adv-x="1731" unicode="®" d="M225 731q0 -88 23 -169.5t64.5 -152.5t100 -129.5t129.5 -100t152.5 -64.5t169.5 -23q89 0 171 23t153 64.5t129.5 100t100 129.5t64.5 152.5t23 169.5t-23 170t-64.5 153.5t-100 130t-129.5 100t-153 64.5t-171 23q-88 0 -169.5 -23t-152.5 -64.5t-129.5 -100t-100 -130 t-64.5 -153t-23 -170.5zM113 731q0 104 27 200.5t75.5 180t117 152.5t152 118t179.5 76t200 27t200.5 -27t180 -76t152.5 -118t118 -152.5t76 -180t27 -200.5t-27 -200t-76 -179.5t-118 -152t-152.5 -117.5t-180 -75.5t-200.5 -26.5t-200 26.5t-179.5 75.5t-152 117.5 t-117 152t-75.5 179.5t-27 200zM758 748h86q55 0 92 11t59 33t31.5 56t9.5 80q0 45 -11 77t-34.5 51.5t-61 28.5t-91.5 9h-80v-346zM477 358h27q20 0 38 2.5t32 10t22 21.5t8 38v600q0 24 -8 38.5t-22 22t-32 9.5t-38 2h-27v72h369q352 0 352 -244q0 -49 -16 -86t-42 -64 t-59.5 -45.5t-68.5 -29.5l182 -293q10 -17 19.5 -27.5t22.5 -16.5t30.5 -8t42.5 -2v-69h-217l-226 381h-108v-240q2 -24 10 -38t21.5 -21.5t31 -10t37.5 -2.5h29v-69h-410v69z"/>
<glyph glyph-name="overscore" horiz-adv-x="940" unicode="¯" d="M950 1556h-960v121h960v-121z"/>
<glyph glyph-name="degree" horiz-adv-x="819" unicode="°" d="M240 1151q0 -34 13 -65t36 -54.5t53.5 -37t65.5 -13.5q36 0 67 13.5t54 37t36 54.5t13 65q0 36 -13 67.5t-36 54.5t-54 36.5t-67 13.5q-35 0 -65.5 -13.5t-53.5 -36.5t-36 -54.5t-13 -67.5zM98 1151q0 65 24.5 121.5t66.5 98.5t98.5 66.5t120.5 24.5q65 0 121.5 -24.5 t98.5 -66.5t66.5 -98.5t24.5 -121.5q0 -64 -24.5 -120.5t-66.5 -98.5t-98.5 -66t-121.5 -24q-64 0 -120.5 24t-98.5 66t-66.5 98.5t-24.5 120.5z"/>
<glyph glyph-name="plusminus" d="M645 659v-366h-147v366h-365v146h365v366h147v-366h367v-146h-367zM1012 0h-879v145h879v-145z" unicode="±"/>
<glyph glyph-name="twosuperior" horiz-adv-x="819" unicode="²" d="M698 1264q0 -45 -12.5 -85t-45.5 -84t-90.5 -96t-146.5 -122l-167 -132h327q44 0 62 19.5t24 48.5l10 55h76l-8 -282h-651v147l225 189q53 44 87.5 85.5t54.5 81.5t28 80t8 82q0 66 -21.5 103t-74.5 37q-35 0 -56 -18.5t-32.5 -47.5t-15 -65.5t-3.5 -71.5q-34 0 -67 7 t-59 21.5t-42 38t-16 56.5q0 37 19 68.5t56 54.5t91.5 36t124.5 13q83 0 142.5 -15.5t98 -44t56.5 -69t18 -90.5z"/>
<glyph glyph-name="threesuperior" horiz-adv-x="819" unicode="³" d="M479 1260q0 63 -21.5 97t-74.5 34q-32 0 -53.5 -14.5t-34 -39.5t-18 -57t-5.5 -68q-41 0 -74 4t-56 13.5t-35.5 26.5t-12.5 44q0 38 19 71.5t56 58t92 39t126 14.5t128 -14t98 -40t63 -63.5t22 -85.5q0 -90 -56 -146.5t-153 -80.5v-11q46 -7 90 -18t78 -33t55 -57.5 t21 -91.5q0 -75 -38 -126.5t-96.5 -83t-128 -45.5t-132.5 -14q-84 0 -151 15t-107 35v106q22 -9 50 -18t58.5 -16.5t62.5 -12t62 -4.5q98 0 152.5 39.5t54.5 128.5q0 69 -55.5 106t-167.5 37h-68v96h68q38 0 71.5 12.5t58 35.5t38.5 55.5t14 71.5z"/>
<glyph glyph-name="acute" horiz-adv-x="1182" unicode="´" d="M330 1268q22 29 49.5 67t55.5 78.5t52.5 81t40.5 74.5h322v-21q-19 -27 -63 -67.5t-98.5 -84.5t-113 -85.5t-106.5 -69.5h-139v27z"/>
<glyph glyph-name="mu" horiz-adv-x="1362" unicode="µ" d="M573 -20q-85 0 -145 31.5t-100 88.5q0 -85 7 -157t30 -126t66.5 -87.5t115.5 -42.5q0 -39 -13 -71.5t-37.5 -56.5t-59.5 -37.5t-79 -13.5q-38 0 -73 14t-61.5 45.5t-42 83t-15.5 126.5q0 61 3 127.5t7.5 147.5t8.5 181t5 228v637h312v-676q0 -55 7.5 -104t25 -85.5 t47.5 -57.5t75 -21q43 0 77.5 23t59 64.5t37.5 100t13 129.5v627h311v-815q0 -94 34 -134t105 -40h15v-109h-179q-105 0 -172.5 49t-93.5 129h-10q-24 -45 -50.5 -82t-59.5 -62.5t-75 -39.5t-96 -14z"/>
<glyph glyph-name="paragraph" horiz-adv-x="1284" unicode="¶" d="M860 1430h-172v-1657h-342v108h27q35 0 65.5 4.5t53 20t36 44.5t13.5 77v764h-146q-90 0 -150 32.5t-96 88t-51.5 128t-15.5 152.5q0 82 17 149t55 115t98 74t147 26h803v-108h-26q-35 0 -65.5 -5t-53.5 -20.5t-36 -44.5t-13 -78v-1273q0 -48 13 -77t36 -44.5t53.5 -20 t65.5 -4.5h26v-108h-342v1657z"/>
<glyph glyph-name="periodcentered" horiz-adv-x="623" unicode="·" d="M143 727q0 47 13 78.5t35.5 50.5t53.5 27t66 8q34 0 64.5 -8t53.5 -27t36.5 -50.5t13.5 -78.5q0 -46 -13.5 -77.5t-36.5 -50.5t-53.5 -27.5t-64.5 -8.5q-35 0 -66 8.5t-53.5 27.5t-35.5 50.5t-13 77.5z"/>
<glyph glyph-name="cedilla" horiz-adv-x="682" unicode="¸" d="M571 -258q0 -54 -21 -97.5t-59 -74t-91.5 -46.5t-118.5 -16q-16 0 -39 1.5t-48 4.5t-49 7.5t-43 9.5v125q38 -8 75 -12t65 -4q58 0 91.5 20.5t33.5 73.5q0 30 -11.5 49t-32.5 30.5t-49 17t-61 7.5l43 180h117l-21 -88q50 -4 90.5 -18.5t69 -38.5t44 -57.5t15.5 -73.5z "/>
<glyph glyph-name="onesuperior" horiz-adv-x="819" unicode="¹" d="M528 1473v-717q0 -26 7.5 -41.5t20.5 -23.5t30.5 -10.5t36.5 -2.5h84v-90h-578v90h104q20 0 36.5 2.5t29.5 10.5t20 23.5t7 41.5v581q-48 -57 -85.5 -92t-74.5 -35q-29 0 -49.5 29.5t-20.5 71.5q37 9 82.5 29.5t106.5 64.5l92 68h151z"/>
<glyph glyph-name="ordmasculine" horiz-adv-x="895" unicode="º" d="M823 1126q0 -176 -95.5 -262t-281.5 -86q-178 0 -276 86.5t-98 261.5q0 176 96 261.5t283 85.5q86 0 155 -21.5t117 -64.5t74 -108t26 -153zM311 1126q0 -121 30.5 -183t107.5 -62q75 0 106 62t31 183t-32 180.5t-108 59.5q-75 0 -105 -59.5t-30 -180.5z"/>
<glyph glyph-name="guillemotright" horiz-adv-x="1135" unicode="»" d="M590 500l-314 -357h-143l207 410l-207 410h143l314 -357v-106zM1001 500l-313 -357h-143l207 410l-207 410h143l313 -357v-106z"/>
<glyph glyph-name="onequarter" horiz-adv-x="1720" unicode="¼" d="M443 1473v-717q0 -26 7.5 -41.5t20.5 -23.5t30.5 -10.5t36.5 -2.5h84v-90h-578v90h104q20 0 36.5 2.5t29.5 10.5t20 23.5t7 41.5v581q-48 -57 -85.5 -92t-74.5 -35q-29 0 -49.5 29.5t-20.5 71.5q37 9 82.5 29.5t106.5 64.5l92 68h151zM578 0h-160l731 1462h158zM1319 595 q0 32 2.5 63.5t7.5 69.5q-8 -17 -17 -33.5t-14 -24.5l-233 -321h254v246zM1522 240v-71q0 -26 7 -41.5t19 -23.5t27.5 -10.5t32.5 -2.5h41v-90h-471v90h57q17 0 32 2.5t26.5 10.5t18.5 23.5t7 41.5v71h-389v82l407 564h185v-537h159v-109h-159z"/>
<glyph glyph-name="onehalf" horiz-adv-x="1720" unicode="½" d="M443 1473v-717q0 -26 7.5 -41.5t20.5 -23.5t30.5 -10.5t36.5 -2.5h84v-90h-578v90h104q20 0 36.5 2.5t29.5 10.5t20 23.5t7 41.5v581q-48 -57 -85.5 -92t-74.5 -35q-29 0 -49.5 29.5t-20.5 71.5q37 9 82.5 29.5t106.5 64.5l92 68h151zM537 0h-160l731 1462h158zM1628 679 q0 -45 -12.5 -85t-45.5 -84t-90.5 -96t-146.5 -122l-167 -132h327q44 0 62 19.5t24 48.5l10 55h76l-8 -282h-651v147l225 189q53 44 87.5 85.5t54.5 81.5t28 80t8 82q0 66 -21.5 103t-74.5 37q-35 0 -56 -18.5t-32.5 -47.5t-15 -65.5t-3.5 -71.5q-34 0 -67 7t-59 21.5 t-42 38t-16 56.5q0 37 19 68.5t56 54.5t91.5 36t124.5 13q83 0 142.5 -15.5t98 -44t56.5 -69t18 -90.5z"/>
<glyph glyph-name="threequarters" horiz-adv-x="1720" unicode="¾" d="M479 1260q0 63 -21.5 97t-74.5 34q-32 0 -53.5 -14.5t-34 -39.5t-18 -57t-5.5 -68q-41 0 -74 4t-56 13.5t-35.5 26.5t-12.5 44q0 38 19 71.5t56 58t92 39t126 14.5t128 -14t98 -40t63 -63.5t22 -85.5q0 -90 -56 -146.5t-153 -80.5v-11q46 -7 90 -18t78 -33t55 -57.5 t21 -91.5q0 -75 -38 -126.5t-96.5 -83t-128 -45.5t-132.5 -14q-84 0 -151 15t-107 35v106q22 -9 50 -18t58.5 -16.5t62.5 -12t62 -4.5q98 0 152.5 39.5t54.5 128.5q0 69 -55.5 106t-167.5 37h-68v96h68q38 0 71.5 12.5t58 35.5t38.5 55.5t14 71.5zM619 0h-160l731 1462h158z M1319 595q0 32 2.5 63.5t7.5 69.5q-8 -17 -17 -33.5t-14 -24.5l-233 -321h254v246zM1522 240v-71q0 -26 7 -41.5t19 -23.5t27.5 -10.5t32.5 -2.5h41v-90h-471v90h57q17 0 32 2.5t26.5 10.5t18.5 23.5t7 41.5v71h-389v82l407 564h185v-537h159v-109h-159z"/>
<glyph glyph-name="questiondown" horiz-adv-x="1126" unicode="¿" d="M795 944q0 -47 -13 -78.5t-35.5 -50.5t-53.5 -27t-66 -8q-34 0 -64.5 8t-53.5 27t-36.5 50.5t-13.5 78.5q0 46 13.5 77.5t36.5 50.5t53.5 27.5t64.5 8.5q35 0 66 -8.5t53.5 -27.5t35.5 -50.5t13 -77.5zM113 -14q0 82 25.5 147t76 119t127 99t178.5 87l41 187h125l41 -252 q-87 -35 -143.5 -82.5t-88.5 -102t-44.5 -114.5t-12.5 -121q0 -49 9 -89.5t28.5 -70t50 -45.5t72.5 -16q46 0 77.5 20.5t50.5 56t27.5 82t8.5 99.5q63 0 116 -9t91.5 -27t60 -45t21.5 -63q0 -50 -26 -93t-79.5 -75t-136 -50.5t-195.5 -18.5q-108 0 -200 25.5t-158.5 74 t-104.5 118.5t-38 159z"/>
<glyph glyph-name="Agrave" horiz-adv-x="1542" unicode="À" d="M795 942q-11 35 -22.5 73.5t-23 78.5t-22 79.5t-18.5 75.5q-9 -31 -21 -68t-25.5 -76l-27 -78t-25.5 -75l-121 -346h414zM446 481l-59 -176q-8 -25 -16.5 -58.5t-8.5 -58.5q0 -20 8 -35t21 -24.5t29.5 -14.5t34.5 -5h86v-109h-533v109h25q27 0 49.5 6t42 22.5t37 45.5 t35.5 75l444 1204h281l428 -1206q15 -43 31.5 -71.5t36 -45t41.5 -23.5t46 -7h37v-109h-676v109h80q15 0 31 4.5t28.5 14t20.5 24.5t8 36q0 25 -6 48t-12 40l-72 205h-498zM758 1579q-48 28 -106.5 69.5t-113 85.5t-98.5 84.5t-63 67.5v21h321q16 -34 41 -74.5t52.5 -81 t55.5 -78.5t50 -67v-27h-139z"/>
<glyph glyph-name="Aacute" horiz-adv-x="1542" unicode="Á" d="M795 942q-11 35 -22.5 73.5t-23 78.5t-22 79.5t-18.5 75.5q-9 -31 -21 -68t-25.5 -76l-27 -78t-25.5 -75l-121 -346h414zM446 481l-59 -176q-8 -25 -16.5 -58.5t-8.5 -58.5q0 -20 8 -35t21 -24.5t29.5 -14.5t34.5 -5h86v-109h-533v109h25q27 0 49.5 6t42 22.5t37 45.5 t35.5 75l444 1204h281l428 -1206q15 -43 31.5 -71.5t36 -45t41.5 -23.5t46 -7h37v-109h-676v109h80q15 0 31 4.5t28.5 14t20.5 24.5t8 36q0 25 -6 48t-12 40l-72 205h-498zM641 1606q22 29 49.5 67t55.5 78.5t52.5 81t40.5 74.5h322v-21q-19 -27 -63 -67.5t-98.5 -84.5 t-113 -85.5t-106.5 -69.5h-139v27z"/>
<glyph glyph-name="Acircumflex" horiz-adv-x="1542" unicode="Â" d="M795 942q-11 35 -22.5 73.5t-23 78.5t-22 79.5t-18.5 75.5q-9 -31 -21 -68t-25.5 -76l-27 -78t-25.5 -75l-121 -346h414zM446 481l-59 -176q-8 -25 -16.5 -58.5t-8.5 -58.5q0 -20 8 -35t21 -24.5t29.5 -14.5t34.5 -5h86v-109h-533v109h25q27 0 49.5 6t42 22.5t37 45.5 t35.5 75l444 1204h281l428 -1206q15 -43 31.5 -71.5t36 -45t41.5 -23.5t46 -7h37v-109h-676v109h80q15 0 31 4.5t28.5 14t20.5 24.5t8 36q0 25 -6 48t-12 40l-72 205h-498zM415 1606q24 29 56.5 67t64.5 78.5t60.5 81t44.5 74.5h276q16 -34 44.5 -74.5t60.5 -81t64 -78.5 t56 -67v-27h-141q-21 17 -50 40t-60 48t-60.5 50t-52.5 46q-23 -21 -52.5 -46t-60 -50t-59 -48t-49.5 -40h-142v27z"/>
<glyph glyph-name="Atilde" horiz-adv-x="1542" unicode="Ã" d="M795 942q-11 35 -22.5 73.5t-23 78.5t-22 79.5t-18.5 75.5q-9 -31 -21 -68t-25.5 -76l-27 -78t-25.5 -75l-121 -346h414zM446 481l-59 -176q-8 -25 -16.5 -58.5t-8.5 -58.5q0 -20 8 -35t21 -24.5t29.5 -14.5t34.5 -5h86v-109h-533v109h25q27 0 49.5 6t42 22.5t37 45.5 t35.5 75l444 1204h281l428 -1206q15 -43 31.5 -71.5t36 -45t41.5 -23.5t46 -7h37v-109h-676v109h80q15 0 31 4.5t28.5 14t20.5 24.5t8 36q0 25 -6 48t-12 40l-72 205h-498zM942 1774q22 0 39.5 9t30 24t20 34.5t10.5 40.5h133q-3 -62 -23 -117t-53.5 -96.5t-79 -65.5 t-100.5 -24t-99.5 20t-83 44.5t-72 44.5t-66.5 20q-23 0 -40.5 -9t-30 -24t-20 -34.5t-10.5 -40.5h-133q3 62 23.5 117t54 96.5t79.5 65.5t101 24t99.5 -20t83 -44.5t72 -44.5t65.5 -20z"/>
<glyph glyph-name="Adieresis" horiz-adv-x="1542" unicode="Ä" d="M795 942q-11 35 -22.5 73.5t-23 78.5t-22 79.5t-18.5 75.5q-9 -31 -21 -68t-25.5 -76l-27 -78t-25.5 -75l-121 -346h414zM446 481l-59 -176q-8 -25 -16.5 -58.5t-8.5 -58.5q0 -20 8 -35t21 -24.5t29.5 -14.5t34.5 -5h86v-109h-533v109h25q27 0 49.5 6t42 22.5t37 45.5 t35.5 75l444 1204h281l428 -1206q15 -43 31.5 -71.5t36 -45t41.5 -23.5t46 -7h37v-109h-676v109h80q15 0 31 4.5t28.5 14t20.5 24.5t8 36q0 25 -6 48t-12 40l-72 205h-498zM856 1747q0 35 10 59.5t27 39.5t39 21.5t47 6.5q23 0 44.5 -6.5t38.5 -21.5t27.5 -39.5t10.5 -59.5 q0 -34 -10.5 -58.5t-27.5 -39.5t-38.5 -22t-44.5 -7q-25 0 -47 7t-39 22t-27 39.5t-10 58.5zM436 1747q0 35 10 59.5t26.5 39.5t38.5 21.5t46 6.5t46 -6.5t39 -21.5t27.5 -39.5t10.5 -59.5q0 -34 -10.5 -58.5t-27.5 -39.5t-39 -22t-46 -7t-46 7t-38.5 22t-26.5 39.5 t-10 58.5z"/>
<glyph glyph-name="Aring" horiz-adv-x="1542" unicode="Å" d="M795 942q-11 35 -22.5 73.5t-23 78.5t-22 79.5t-18.5 75.5q-9 -31 -21 -68t-25.5 -76l-27 -78t-25.5 -75l-121 -346h414zM446 481l-59 -176q-8 -25 -16.5 -58.5t-8.5 -58.5q0 -20 8 -35t21 -24.5t29.5 -14.5t34.5 -5h86v-109h-533v109h25q27 0 49.5 6t42 22.5t37 45.5 t35.5 75l444 1204h281l428 -1206q15 -43 31.5 -71.5t36 -45t41.5 -23.5t46 -7h37v-109h-676v109h80q15 0 31 4.5t28.5 14t20.5 24.5t8 36q0 25 -6 48t-12 40l-72 205h-498zM899 1573q0 30 -9.5 51t-26 34t-38.5 19t-47 6t-47 -6t-38.5 -19t-26 -34t-9.5 -51t9.5 -51 t26 -34.5t38.5 -19.5t47 -6t47 6t38.5 19.5t26 34.5t9.5 51zM1024 1573q0 -55 -19 -96.5t-52.5 -69.5t-78.5 -42.5t-96 -14.5t-96 14.5t-78.5 42.5t-52.5 69.5t-19 96.5q0 54 19 96t52.5 70t78.5 42.5t96 14.5t96 -14.5t78.5 -42.5t52.5 -70t19 -96z"/>
<glyph glyph-name="AE" horiz-adv-x="2034" unicode="Æ" d="M924 1337l-385 -745h405v745h-20zM1270 125h409q31 0 53 11.5t38 32.5t25.5 49.5t14.5 62.5l17 96h141l-14 -377h-1200v109h86q56 0 80 34.5t24 87.5v238h-471l-86 -172q-17 -32 -25 -61t-8 -48q0 -42 31.5 -60.5t91.5 -18.5h35v-109h-512v109h25q53 0 95 38.5t87 120.5 l575 1075l-135 11v108h1243l8 -377h-143l-10 97q-8 75 -38 115t-93 40h-344v-512h485v-123h-485v-577z"/>
<glyph glyph-name="Ccedilla" horiz-adv-x="1368" unicode="Ç" d="M870 143q75 0 133.5 17.5t104.5 45.5t80.5 63t60.5 69q16 -12 25.5 -37t9.5 -51q0 -43 -23 -90.5t-77 -87.5t-143 -66t-220 -26q-178 0 -311 54t-221 153t-132 238t-44 308q0 166 45 304t133.5 237t221 154t306.5 55q118 0 205.5 -18.5t145.5 -50.5t87 -75.5t29 -93.5 q0 -38 -16.5 -70.5t-49 -56.5t-80.5 -37.5t-110 -13.5q0 51 -11 101.5t-37.5 91.5t-69.5 66.5t-107 25.5q-97 0 -164 -41t-107.5 -120t-58.5 -194.5t-18 -263.5t22 -259t71 -184.5t127.5 -110t192.5 -36.5zM962 -258q0 -54 -21 -97.5t-59 -74t-91.5 -46.5t-118.5 -16 q-16 0 -39 1.5t-48 4.5t-49 7.5t-43 9.5v125q38 -8 75 -12t65 -4q58 0 91.5 20.5t33.5 73.5q0 30 -11.5 49t-32.5 30.5t-49 17t-61 7.5l43 180h117l-21 -88q50 -4 90.5 -18.5t69 -38.5t44 -57.5t15.5 -73.5z"/>
<glyph glyph-name="Egrave" horiz-adv-x="1337" unicode="È" d="M573 125h410q31 0 53 11.5t38 32.5t25.5 49.5t14.5 62.5l16 96h142l-15 -377h-1200v109h86q22 0 41 4t33.5 16.5t22.5 37t8 64.5v990q0 44 -8 70t-22 40t-33 18.5t-42 4.5h-86v108h1137l8 -377h-143l-10 97q-8 75 -38 115t-93 40h-345v-512h486v-123h-486v-577zM689 1579 q-48 28 -106.5 69.5t-113 85.5t-98.5 84.5t-63 67.5v21h321q16 -34 41 -74.5t52.5 -81t55.5 -78.5t50 -67v-27h-139z"/>
<glyph glyph-name="Eacute" horiz-adv-x="1337" unicode="É" d="M573 125h410q31 0 53 11.5t38 32.5t25.5 49.5t14.5 62.5l16 96h142l-15 -377h-1200v109h86q22 0 41 4t33.5 16.5t22.5 37t8 64.5v990q0 44 -8 70t-22 40t-33 18.5t-42 4.5h-86v108h1137l8 -377h-143l-10 97q-8 75 -38 115t-93 40h-345v-512h486v-123h-486v-577zM523 1606 q22 29 49.5 67t55.5 78.5t52.5 81t40.5 74.5h322v-21q-19 -27 -63 -67.5t-98.5 -84.5t-113 -85.5t-106.5 -69.5h-139v27z"/>
<glyph glyph-name="Ecircumflex" horiz-adv-x="1337" unicode="Ê" d="M573 125h410q31 0 53 11.5t38 32.5t25.5 49.5t14.5 62.5l16 96h142l-15 -377h-1200v109h86q22 0 41 4t33.5 16.5t22.5 37t8 64.5v990q0 44 -8 70t-22 40t-33 18.5t-42 4.5h-86v108h1137l8 -377h-143l-10 97q-8 75 -38 115t-93 40h-345v-512h486v-123h-486v-577zM288 1606 q24 29 56.5 67t64.5 78.5t60.5 81t44.5 74.5h276q16 -34 44.5 -74.5t60.5 -81t64 -78.5t56 -67v-27h-141q-21 17 -50 40t-60 48t-60.5 50t-52.5 46q-23 -21 -52.5 -46t-60 -50t-59 -48t-49.5 -40h-142v27z"/>
<glyph glyph-name="Edieresis" horiz-adv-x="1337" unicode="Ë" d="M573 125h410q31 0 53 11.5t38 32.5t25.5 49.5t14.5 62.5l16 96h142l-15 -377h-1200v109h86q22 0 41 4t33.5 16.5t22.5 37t8 64.5v990q0 44 -8 70t-22 40t-33 18.5t-42 4.5h-86v108h1137l8 -377h-143l-10 97q-8 75 -38 115t-93 40h-345v-512h486v-123h-486v-577zM776 1747 q0 35 10 59.5t27 39.5t39 21.5t47 6.5q23 0 44.5 -6.5t38.5 -21.5t27.5 -39.5t10.5 -59.5q0 -34 -10.5 -58.5t-27.5 -39.5t-38.5 -22t-44.5 -7q-25 0 -47 7t-39 22t-27 39.5t-10 58.5zM356 1747q0 35 10 59.5t26.5 39.5t38.5 21.5t46 6.5t46 -6.5t39 -21.5t27.5 -39.5 t10.5 -59.5q0 -34 -10.5 -58.5t-27.5 -39.5t-39 -22t-46 -7t-46 7t-38.5 22t-26.5 39.5t-10 58.5z"/>
<glyph glyph-name="Igrave" horiz-adv-x="821" unicode="Ì" d="M57 0v109h86q23 0 42 4.5t33 18.5t22 40t8 70v978q0 44 -8 70t-22 40t-33 18.5t-42 4.5h-86v109h707v-109h-86q-22 0 -41.5 -4.5t-33.5 -18.5t-22 -40t-8 -70v-978q0 -44 8 -70t22 -40t33.5 -18.5t41.5 -4.5h86v-109h-707zM429 1579q-48 28 -106.5 69.5t-113 85.5 t-98.5 84.5t-63 67.5v21h321q16 -34 41 -74.5t52.5 -81t55.5 -78.5t50 -67v-27h-139z"/>
<glyph glyph-name="Iacute" horiz-adv-x="821" unicode="Í" d="M57 0v109h86q23 0 42 4.5t33 18.5t22 40t8 70v978q0 44 -8 70t-22 40t-33 18.5t-42 4.5h-86v109h707v-109h-86q-22 0 -41.5 -4.5t-33.5 -18.5t-22 -40t-8 -70v-978q0 -44 8 -70t22 -40t33.5 -18.5t41.5 -4.5h86v-109h-707zM253 1606q22 29 49.5 67t55.5 78.5t52.5 81 t40.5 74.5h322v-21q-19 -27 -63 -67.5t-98.5 -84.5t-113 -85.5t-106.5 -69.5h-139v27z"/>
<glyph glyph-name="Icircumflex" horiz-adv-x="821" unicode="Î" d="M57 0v109h86q23 0 42 4.5t33 18.5t22 40t8 70v978q0 44 -8 70t-22 40t-33 18.5t-42 4.5h-86v109h707v-109h-86q-22 0 -41.5 -4.5t-33.5 -18.5t-22 -40t-8 -70v-978q0 -44 8 -70t22 -40t33.5 -18.5t41.5 -4.5h86v-109h-707zM48 1606q24 29 56.5 67t64.5 78.5t60.5 81 t44.5 74.5h276q16 -34 44.5 -74.5t60.5 -81t64 -78.5t56 -67v-27h-141q-21 17 -50 40t-60 48t-60.5 50t-52.5 46q-23 -21 -52.5 -46t-60 -50t-59 -48t-49.5 -40h-142v27z"/>
<glyph glyph-name="Idieresis" horiz-adv-x="821" unicode="Ï" d="M57 0v109h86q23 0 42 4.5t33 18.5t22 40t8 70v978q0 44 -8 70t-22 40t-33 18.5t-42 4.5h-86v109h707v-109h-86q-22 0 -41.5 -4.5t-33.5 -18.5t-22 -40t-8 -70v-978q0 -44 8 -70t22 -40t33.5 -18.5t41.5 -4.5h86v-109h-707zM499 1747q0 35 10 59.5t27 39.5t39 21.5t47 6.5 q23 0 44.5 -6.5t38.5 -21.5t27.5 -39.5t10.5 -59.5q0 -34 -10.5 -58.5t-27.5 -39.5t-38.5 -22t-44.5 -7q-25 0 -47 7t-39 22t-27 39.5t-10 58.5zM79 1747q0 35 10 59.5t26.5 39.5t38.5 21.5t46 6.5t46 -6.5t39 -21.5t27.5 -39.5t10.5 -59.5q0 -34 -10.5 -58.5t-27.5 -39.5 t-39 -22t-46 -7t-46 7t-38.5 22t-26.5 39.5t-10 58.5z"/>
<glyph glyph-name="Eth" horiz-adv-x="1571" unicode="Ð" d="M1112 758q0 293 -107.5 436t-316.5 143h-117v-510h256v-125h-256v-575h115q105 0 185 43.5t133.5 125.5t80.5 198.5t27 263.5zM1458 758q0 -168 -46 -307.5t-137.5 -239.5t-227 -155.5t-314.5 -55.5h-676v109h86q23 0 42 4.5t33 18.5t22 40t8 70v460h-170v125h170v402 q0 41 -8 65.5t-22.5 37.5t-33.5 17.5t-41 4.5h-86v108h676q170 0 304.5 -44.5t228 -133t143 -220.5t49.5 -306z"/>
<glyph glyph-name="Ntilde" horiz-adv-x="1614" unicode="Ñ" d="M1200 0l-799 1128v-886q0 -44 8.5 -70t22.5 -40t33.5 -18.5t40.5 -4.5h86v-109h-535v109h86q22 0 41 4.5t33.5 18.5t22.5 40t8 70v987q0 41 -8.5 65.5t-23 37.5t-33.5 17.5t-40 4.5h-86v108h455l723 -1022v789q0 41 -8.5 65.5t-23 37.5t-33.5 17.5t-40 4.5h-86v108h535 v-108h-86q-21 0 -40 -4.5t-33.5 -18.5t-22.5 -40t-8 -70v-1221h-189zM998 1774q22 0 39.5 9t30 24t20 34.5t10.5 40.5h133q-3 -62 -23 -117t-53.5 -96.5t-79 -65.5t-100.5 -24t-99.5 20t-83 44.5t-72 44.5t-66.5 20q-23 0 -40.5 -9t-30 -24t-20 -34.5t-10.5 -40.5h-133 q3 62 23.5 117t54 96.5t79.5 65.5t101 24t99.5 -20t83 -44.5t72 -44.5t65.5 -20z"/>
<glyph glyph-name="Ograve" horiz-adv-x="1612" unicode="Ò" d="M457 733q0 -147 19 -262t61 -194.5t108.5 -121.5t161.5 -42q96 0 162.5 42t107.5 121.5t59.5 194.5t18.5 262t-18.5 262t-59.5 194.5t-107 121t-161 41.5q-96 0 -163 -41.5t-109 -121t-61 -194.5t-19 -262zM1499 733q0 -169 -45.5 -308t-134 -238t-217 -153t-295.5 -54 q-175 0 -305.5 54t-216.5 153t-129 238.5t-43 309.5t43 308.5t129.5 236.5t217 151.5t306.5 53.5q166 0 294.5 -53.5t216.5 -152t133.5 -237t45.5 -309.5zM813 1579q-48 28 -106.5 69.5t-113 85.5t-98.5 84.5t-63 67.5v21h321q16 -34 41 -74.5t52.5 -81t55.5 -78.5t50 -67 v-27h-139z"/>
<glyph glyph-name="Oacute" horiz-adv-x="1612" unicode="Ó" d="M457 733q0 -147 19 -262t61 -194.5t108.5 -121.5t161.5 -42q96 0 162.5 42t107.5 121.5t59.5 194.5t18.5 262t-18.5 262t-59.5 194.5t-107 121t-161 41.5q-96 0 -163 -41.5t-109 -121t-61 -194.5t-19 -262zM1499 733q0 -169 -45.5 -308t-134 -238t-217 -153t-295.5 -54 q-175 0 -305.5 54t-216.5 153t-129 238.5t-43 309.5t43 308.5t129.5 236.5t217 151.5t306.5 53.5q166 0 294.5 -53.5t216.5 -152t133.5 -237t45.5 -309.5zM666 1606q22 29 49.5 67t55.5 78.5t52.5 81t40.5 74.5h322v-21q-19 -27 -63 -67.5t-98.5 -84.5t-113 -85.5 t-106.5 -69.5h-139v27z"/>
<glyph glyph-name="Ocircumflex" horiz-adv-x="1612" unicode="Ô" d="M457 733q0 -147 19 -262t61 -194.5t108.5 -121.5t161.5 -42q96 0 162.5 42t107.5 121.5t59.5 194.5t18.5 262t-18.5 262t-59.5 194.5t-107 121t-161 41.5q-96 0 -163 -41.5t-109 -121t-61 -194.5t-19 -262zM1499 733q0 -169 -45.5 -308t-134 -238t-217 -153t-295.5 -54 q-175 0 -305.5 54t-216.5 153t-129 238.5t-43 309.5t43 308.5t129.5 236.5t217 151.5t306.5 53.5q166 0 294.5 -53.5t216.5 -152t133.5 -237t45.5 -309.5zM440 1606q24 29 56.5 67t64.5 78.5t60.5 81t44.5 74.5h276q16 -34 44.5 -74.5t60.5 -81t64 -78.5t56 -67v-27h-141 q-21 17 -50 40t-60 48t-60.5 50t-52.5 46q-23 -21 -52.5 -46t-60 -50t-59 -48t-49.5 -40h-142v27z"/>
<glyph glyph-name="Otilde" horiz-adv-x="1612" unicode="Õ" d="M457 733q0 -147 19 -262t61 -194.5t108.5 -121.5t161.5 -42q96 0 162.5 42t107.5 121.5t59.5 194.5t18.5 262t-18.5 262t-59.5 194.5t-107 121t-161 41.5q-96 0 -163 -41.5t-109 -121t-61 -194.5t-19 -262zM1499 733q0 -169 -45.5 -308t-134 -238t-217 -153t-295.5 -54 q-175 0 -305.5 54t-216.5 153t-129 238.5t-43 309.5t43 308.5t129.5 236.5t217 151.5t306.5 53.5q166 0 294.5 -53.5t216.5 -152t133.5 -237t45.5 -309.5zM975 1774q22 0 39.5 9t30 24t20 34.5t10.5 40.5h133q-3 -62 -23 -117t-53.5 -96.5t-79 -65.5t-100.5 -24t-99.5 20 t-83 44.5t-72 44.5t-66.5 20q-23 0 -40.5 -9t-30 -24t-20 -34.5t-10.5 -40.5h-133q3 62 23.5 117t54 96.5t79.5 65.5t101 24t99.5 -20t83 -44.5t72 -44.5t65.5 -20z"/>
<glyph glyph-name="Odieresis" horiz-adv-x="1612" unicode="Ö" d="M457 733q0 -147 19 -262t61 -194.5t108.5 -121.5t161.5 -42q96 0 162.5 42t107.5 121.5t59.5 194.5t18.5 262t-18.5 262t-59.5 194.5t-107 121t-161 41.5q-96 0 -163 -41.5t-109 -121t-61 -194.5t-19 -262zM1499 733q0 -169 -45.5 -308t-134 -238t-217 -153t-295.5 -54 q-175 0 -305.5 54t-216.5 153t-129 238.5t-43 309.5t43 308.5t129.5 236.5t217 151.5t306.5 53.5q166 0 294.5 -53.5t216.5 -152t133.5 -237t45.5 -309.5zM883 1747q0 35 10 59.5t27 39.5t39 21.5t47 6.5q23 0 44.5 -6.5t38.5 -21.5t27.5 -39.5t10.5 -59.5 q0 -34 -10.5 -58.5t-27.5 -39.5t-38.5 -22t-44.5 -7q-25 0 -47 7t-39 22t-27 39.5t-10 58.5zM463 1747q0 35 10 59.5t26.5 39.5t38.5 21.5t46 6.5t46 -6.5t39 -21.5t27.5 -39.5t10.5 -59.5q0 -34 -10.5 -58.5t-27.5 -39.5t-39 -22t-46 -7t-46 7t-38.5 22t-26.5 39.5 t-10 58.5z"/>
<glyph glyph-name="multiply" d="M571 631l-301 -303l-104 104l301 303l-301 301l104 103l301 -301l301 303l105 -105l-303 -303l303 -303l-103 -102z" unicode="×"/>
<glyph glyph-name="Oslash" horiz-adv-x="1612" unicode="Ø" d="M1155 733q0 127 -14 228.5t-43 179.5l-506 -944q40 -42 93 -63t122 -21q96 0 162.5 42t107.5 121.5t59.5 194.5t18.5 262zM457 733q0 -128 14 -230t45 -179l506 942q-38 42 -91.5 64t-121.5 22q-96 0 -163 -41.5t-109 -121t-61 -194.5t-19 -262zM1499 733 q0 -169 -45.5 -308t-134 -238t-217 -153t-295.5 -54q-173 0 -303 53l-62 -115h-145l94 174q-140 96 -209 260.5t-69 382.5q0 170 43 308.5t129.5 236.5t217 151.5t306.5 53.5q85 0 160 -15t141 -43l64 119h143l-96 -178q136 -96 207 -258t71 -377z"/>
<glyph glyph-name="Ugrave" horiz-adv-x="1530" unicode="Ù" d="M1497 1354h-88q-21 0 -40 -4.5t-33.5 -18.5t-22.5 -40t-8 -70v-799q0 -103 -29.5 -185t-92 -139t-159.5 -87.5t-231 -30.5t-239.5 25.5t-178.5 81.5t-111.5 144.5t-38.5 214.5v783q0 41 -8.5 65.5t-23 37.5t-33 17.5t-39.5 4.5h-88v108h706v-108h-86q-21 0 -40 -4.5 t-33.5 -18.5t-22.5 -40t-8 -70v-791q0 -86 21.5 -144.5t61.5 -94t96 -51t126 -15.5q68 0 123 17.5t93.5 54.5t59.5 94t21 135v803q0 41 -8 65.5t-22.5 37.5t-33.5 17.5t-40 4.5h-86v108h536v-108zM813 1579q-48 28 -106.5 69.5t-113 85.5t-98.5 84.5t-63 67.5v21h321 q16 -34 41 -74.5t52.5 -81t55.5 -78.5t50 -67v-27h-139z"/>
<glyph glyph-name="Uacute" horiz-adv-x="1530" unicode="Ú" d="M1497 1354h-88q-21 0 -40 -4.5t-33.5 -18.5t-22.5 -40t-8 -70v-799q0 -103 -29.5 -185t-92 -139t-159.5 -87.5t-231 -30.5t-239.5 25.5t-178.5 81.5t-111.5 144.5t-38.5 214.5v783q0 41 -8.5 65.5t-23 37.5t-33 17.5t-39.5 4.5h-88v108h706v-108h-86q-21 0 -40 -4.5 t-33.5 -18.5t-22.5 -40t-8 -70v-791q0 -86 21.5 -144.5t61.5 -94t96 -51t126 -15.5q68 0 123 17.5t93.5 54.5t59.5 94t21 135v803q0 41 -8 65.5t-22.5 37.5t-33.5 17.5t-40 4.5h-86v108h536v-108zM643 1606q22 29 49.5 67t55.5 78.5t52.5 81t40.5 74.5h322v-21 q-19 -27 -63 -67.5t-98.5 -84.5t-113 -85.5t-106.5 -69.5h-139v27z"/>
<glyph glyph-name="Ucircumflex" horiz-adv-x="1530" unicode="Û" d="M1497 1354h-88q-21 0 -40 -4.5t-33.5 -18.5t-22.5 -40t-8 -70v-799q0 -103 -29.5 -185t-92 -139t-159.5 -87.5t-231 -30.5t-239.5 25.5t-178.5 81.5t-111.5 144.5t-38.5 214.5v783q0 41 -8.5 65.5t-23 37.5t-33 17.5t-39.5 4.5h-88v108h706v-108h-86q-21 0 -40 -4.5 t-33.5 -18.5t-22.5 -40t-8 -70v-791q0 -86 21.5 -144.5t61.5 -94t96 -51t126 -15.5q68 0 123 17.5t93.5 54.5t59.5 94t21 135v803q0 41 -8 65.5t-22.5 37.5t-33.5 17.5t-40 4.5h-86v108h536v-108zM454 1606q24 29 56.5 67t64.5 78.5t60.5 81t44.5 74.5h276 q16 -34 44.5 -74.5t60.5 -81t64 -78.5t56 -67v-27h-141q-21 17 -50 40t-60 48t-60.5 50t-52.5 46q-23 -21 -52.5 -46t-60 -50t-59 -48t-49.5 -40h-142v27z"/>
<glyph glyph-name="Udieresis" horiz-adv-x="1530" unicode="Ü" d="M1497 1354h-88q-21 0 -40 -4.5t-33.5 -18.5t-22.5 -40t-8 -70v-799q0 -103 -29.5 -185t-92 -139t-159.5 -87.5t-231 -30.5t-239.5 25.5t-178.5 81.5t-111.5 144.5t-38.5 214.5v783q0 41 -8.5 65.5t-23 37.5t-33 17.5t-39.5 4.5h-88v108h706v-108h-86q-21 0 -40 -4.5 t-33.5 -18.5t-22.5 -40t-8 -70v-791q0 -86 21.5 -144.5t61.5 -94t96 -51t126 -15.5q68 0 123 17.5t93.5 54.5t59.5 94t21 135v803q0 41 -8 65.5t-22.5 37.5t-33.5 17.5t-40 4.5h-86v108h536v-108zM914 1747q0 35 10 59.5t27 39.5t39 21.5t47 6.5q23 0 44.5 -6.5t38.5 -21.5 t27.5 -39.5t10.5 -59.5q0 -34 -10.5 -58.5t-27.5 -39.5t-38.5 -22t-44.5 -7q-25 0 -47 7t-39 22t-27 39.5t-10 58.5zM494 1747q0 35 10 59.5t26.5 39.5t38.5 21.5t46 6.5t46 -6.5t39 -21.5t27.5 -39.5t10.5 -59.5q0 -34 -10.5 -58.5t-27.5 -39.5t-39 -22t-46 -7t-46 7 t-38.5 22t-26.5 39.5t-10 58.5z"/>
<glyph glyph-name="Yacute" horiz-adv-x="1419" unicode="Ý" d="M336 0v109h96q25 0 46.5 3t37.5 15.5t25.5 37.5t9.5 68v285l-379 727q-15 30 -28.5 51t-29.5 33.5t-36.5 18.5t-50.5 6h-27v108h686v-108h-35q-62 0 -92.5 -25t-30.5 -67q0 -26 9.5 -56.5t21.5 -56.5l152 -301q32 -65 52.5 -115t37.5 -98q21 54 48.5 117.5t61.5 132.5 l119 245q22 45 28.5 75.5t6.5 47.5q0 53 -33.5 77t-101.5 24h-47v108h536v-108h-39q-26 0 -44.5 -7t-35 -25t-34 -49t-41.5 -79l-348 -678v-280q0 -45 9 -70t24.5 -38t36 -16t44.5 -3h101v-109h-756zM602 1606q22 29 49.5 67t55.5 78.5t52.5 81t40.5 74.5h322v-21 q-19 -27 -63 -67.5t-98.5 -84.5t-113 -85.5t-106.5 -69.5h-139v27z"/>
<glyph glyph-name="Thorn" horiz-adv-x="1307" unicode="Þ" d="M1245 760q0 -92 -32 -177t-104 -150t-187 -103.5t-281 -38.5h-70v-60q2 -40 11 -64.5t23.5 -37t34 -16.5t40.5 -4h84v-109h-707v109h86q23 0 42 4.5t33 18.5t22 40t8 70v979q0 44 -8 70t-22 40t-33 18.5t-42 4.5h-86v108h707v-108h-84q-21 0 -41 -4t-35 -17t-24 -37 t-9 -65v-37h115q142 -2 247 -32.5t174.5 -86t103.5 -135t34 -180.5zM571 410h50q76 0 129 19t86.5 60t49 106t15.5 157q0 82 -13.5 142.5t-43 100t-77 59t-116.5 19.5h-80v-663z"/>
<glyph glyph-name="germandbls" horiz-adv-x="1446" unicode="ß" d="M205 1118q0 128 41 216t112.5 142t168.5 77.5t210 23.5q142 0 241 -37t161.5 -109.5t91 -179t29.5 -245.5h-115q-50 0 -93.5 -6t-76 -22t-51.5 -42.5t-19 -67.5q0 -36 12.5 -63t39.5 -50.5t70.5 -47t105.5 -52.5q64 -30 108 -67.5t71.5 -80.5t39.5 -89t12 -94 q0 -87 -27.5 -151.5t-79 -107.5t-126.5 -64t-170 -21q-93 0 -176.5 18.5t-149.5 56.5v248h110q7 -41 24.5 -78t44 -64.5t61.5 -44t77 -16.5q69 0 109.5 36t40.5 102q0 36 -9.5 66.5t-33 58.5t-63.5 55t-101 55q-75 35 -124.5 75.5t-79 86.5t-42 96t-12.5 103 q0 71 24.5 122.5t69 86t105.5 53t133 22.5q-1 94 -16.5 159.5t-44.5 106.5t-70.5 59.5t-94.5 18.5q-52 0 -94.5 -17t-72.5 -52.5t-46 -90t-16 -128.5v-1174h-502v109h88q22 0 41 4.5t33.5 18.5t22.5 40t8 70v714h-164v142h164v20z"/>
<glyph glyph-name="agrave" horiz-adv-x="1227" unicode="à" d="M592 999q-39 0 -65.5 -16.5t-42.5 -46t-22.5 -70t-6.5 -88.5q-138 0 -207.5 31t-69.5 106q0 56 33.5 96t91 65t134 36.5t163.5 11.5q108 0 188.5 -18.5t134 -59.5t80.5 -107.5t27 -162.5v-522q0 -42 6.5 -70t20.5 -44.5t38 -23.5t58 -7h8v-109h-381l-43 141h-18 q-34 -41 -64 -71.5t-64 -50.5t-76.5 -29.5t-100.5 -9.5q-68 0 -126.5 20t-102 61.5t-68.5 104t-25 147.5q0 167 114.5 247t344.5 87l168 6v113q0 51 -4 94t-17 74t-38.5 48t-67.5 17zM410 305q0 -88 28 -132t88 -44q44 0 79.5 18.5t61 52.5t39 82.5t13.5 108.5v154l-92 -6 q-61 -3 -103 -19.5t-67 -45.5t-36 -71t-11 -98zM618 1241q-48 28 -106.5 69.5t-113 85.5t-98.5 84.5t-63 67.5v21h321q16 -34 41 -74.5t52.5 -81t55.5 -78.5t50 -67v-27h-139z"/>
<glyph glyph-name="aacute" horiz-adv-x="1227" unicode="á" d="M592 999q-39 0 -65.5 -16.5t-42.5 -46t-22.5 -70t-6.5 -88.5q-138 0 -207.5 31t-69.5 106q0 56 33.5 96t91 65t134 36.5t163.5 11.5q108 0 188.5 -18.5t134 -59.5t80.5 -107.5t27 -162.5v-522q0 -42 6.5 -70t20.5 -44.5t38 -23.5t58 -7h8v-109h-381l-43 141h-18 q-34 -41 -64 -71.5t-64 -50.5t-76.5 -29.5t-100.5 -9.5q-68 0 -126.5 20t-102 61.5t-68.5 104t-25 147.5q0 167 114.5 247t344.5 87l168 6v113q0 51 -4 94t-17 74t-38.5 48t-67.5 17zM410 305q0 -88 28 -132t88 -44q44 0 79.5 18.5t61 52.5t39 82.5t13.5 108.5v154l-92 -6 q-61 -3 -103 -19.5t-67 -45.5t-36 -71t-11 -98zM467 1268q22 29 49.5 67t55.5 78.5t52.5 81t40.5 74.5h322v-21q-19 -27 -63 -67.5t-98.5 -84.5t-113 -85.5t-106.5 -69.5h-139v27z"/>
<glyph glyph-name="acircumflex" horiz-adv-x="1227" unicode="â" d="M592 999q-39 0 -65.5 -16.5t-42.5 -46t-22.5 -70t-6.5 -88.5q-138 0 -207.5 31t-69.5 106q0 56 33.5 96t91 65t134 36.5t163.5 11.5q108 0 188.5 -18.5t134 -59.5t80.5 -107.5t27 -162.5v-522q0 -42 6.5 -70t20.5 -44.5t38 -23.5t58 -7h8v-109h-381l-43 141h-18 q-34 -41 -64 -71.5t-64 -50.5t-76.5 -29.5t-100.5 -9.5q-68 0 -126.5 20t-102 61.5t-68.5 104t-25 147.5q0 167 114.5 247t344.5 87l168 6v113q0 51 -4 94t-17 74t-38.5 48t-67.5 17zM410 305q0 -88 28 -132t88 -44q44 0 79.5 18.5t61 52.5t39 82.5t13.5 108.5v154l-92 -6 q-61 -3 -103 -19.5t-67 -45.5t-36 -71t-11 -98zM256 1268q24 29 56.5 67t64.5 78.5t60.5 81t44.5 74.5h276q16 -34 44.5 -74.5t60.5 -81t64 -78.5t56 -67v-27h-141q-21 17 -50 40t-60 48t-60.5 50t-52.5 46q-23 -21 -52.5 -46t-60 -50t-59 -48t-49.5 -40h-142v27z"/>
<glyph glyph-name="atilde" horiz-adv-x="1227" unicode="ã" d="M592 999q-39 0 -65.5 -16.5t-42.5 -46t-22.5 -70t-6.5 -88.5q-138 0 -207.5 31t-69.5 106q0 56 33.5 96t91 65t134 36.5t163.5 11.5q108 0 188.5 -18.5t134 -59.5t80.5 -107.5t27 -162.5v-522q0 -42 6.5 -70t20.5 -44.5t38 -23.5t58 -7h8v-109h-381l-43 141h-18 q-34 -41 -64 -71.5t-64 -50.5t-76.5 -29.5t-100.5 -9.5q-68 0 -126.5 20t-102 61.5t-68.5 104t-25 147.5q0 167 114.5 247t344.5 87l168 6v113q0 51 -4 94t-17 74t-38.5 48t-67.5 17zM410 305q0 -88 28 -132t88 -44q44 0 79.5 18.5t61 52.5t39 82.5t13.5 108.5v154l-92 -6 q-61 -3 -103 -19.5t-67 -45.5t-36 -71t-11 -98zM789 1436q22 0 39.5 9t30 24t20 34.5t10.5 40.5h133q-3 -62 -23 -117t-53.5 -96.5t-79 -65.5t-100.5 -24t-99.5 20t-83 44.5t-72 44.5t-66.5 20q-23 0 -40.5 -9t-30 -24t-20 -34.5t-10.5 -40.5h-133q3 62 23.5 117t54 96.5 t79.5 65.5t101 24t99.5 -20t83 -44.5t72 -44.5t65.5 -20z"/>
<glyph glyph-name="adieresis" horiz-adv-x="1227" unicode="ä" d="M592 999q-39 0 -65.5 -16.5t-42.5 -46t-22.5 -70t-6.5 -88.5q-138 0 -207.5 31t-69.5 106q0 56 33.5 96t91 65t134 36.5t163.5 11.5q108 0 188.5 -18.5t134 -59.5t80.5 -107.5t27 -162.5v-522q0 -42 6.5 -70t20.5 -44.5t38 -23.5t58 -7h8v-109h-381l-43 141h-18 q-34 -41 -64 -71.5t-64 -50.5t-76.5 -29.5t-100.5 -9.5q-68 0 -126.5 20t-102 61.5t-68.5 104t-25 147.5q0 167 114.5 247t344.5 87l168 6v113q0 51 -4 94t-17 74t-38.5 48t-67.5 17zM410 305q0 -88 28 -132t88 -44q44 0 79.5 18.5t61 52.5t39 82.5t13.5 108.5v154l-92 -6 q-61 -3 -103 -19.5t-67 -45.5t-36 -71t-11 -98zM698 1409q0 35 10 59.5t27 39.5t39 21.5t47 6.5q23 0 44.5 -6.5t38.5 -21.5t27.5 -39.5t10.5 -59.5q0 -34 -10.5 -58.5t-27.5 -39.5t-38.5 -22t-44.5 -7q-25 0 -47 7t-39 22t-27 39.5t-10 58.5zM278 1409q0 35 10 59.5 t26.5 39.5t38.5 21.5t46 6.5t46 -6.5t39 -21.5t27.5 -39.5t10.5 -59.5q0 -34 -10.5 -58.5t-27.5 -39.5t-39 -22t-46 -7t-46 7t-38.5 22t-26.5 39.5t-10 58.5z"/>
<glyph glyph-name="aring" horiz-adv-x="1227" unicode="å" d="M592 999q-39 0 -65.5 -16.5t-42.5 -46t-22.5 -70t-6.5 -88.5q-138 0 -207.5 31t-69.5 106q0 56 33.5 96t91 65t134 36.5t163.5 11.5q108 0 188.5 -18.5t134 -59.5t80.5 -107.5t27 -162.5v-522q0 -42 6.5 -70t20.5 -44.5t38 -23.5t58 -7h8v-109h-381l-43 141h-18 q-34 -41 -64 -71.5t-64 -50.5t-76.5 -29.5t-100.5 -9.5q-68 0 -126.5 20t-102 61.5t-68.5 104t-25 147.5q0 167 114.5 247t344.5 87l168 6v113q0 51 -4 94t-17 74t-38.5 48t-67.5 17zM410 305q0 -88 28 -132t88 -44q44 0 79.5 18.5t61 52.5t39 82.5t13.5 108.5v154l-92 -6 q-61 -3 -103 -19.5t-67 -45.5t-36 -71t-11 -98zM740 1444q0 30 -9.5 51t-26 34t-38.5 19t-47 6t-47 -6t-38.5 -19t-26 -34t-9.5 -51t9.5 -51t26 -34.5t38.5 -19.5t47 -6t47 6t38.5 19.5t26 34.5t9.5 51zM865 1444q0 -55 -19 -96.5t-52.5 -69.5t-78.5 -42.5t-96 -14.5 t-96 14.5t-78.5 42.5t-52.5 69.5t-19 96.5q0 54 19 96t52.5 70t78.5 42.5t96 14.5t96 -14.5t78.5 -42.5t52.5 -70t19 -96z"/>
<glyph glyph-name="ae" horiz-adv-x="1792" unicode="æ" d="M1253 -20q-151 0 -260.5 50t-175.5 146q-69 -103 -171 -149.5t-232 -46.5q-68 0 -126.5 20t-102 61.5t-68.5 104t-25 147.5q0 167 114.5 247t344.5 87l168 6v113q0 51 -4 94t-17 74t-38.5 48t-67.5 17q-39 0 -65.5 -16.5t-42.5 -46t-22.5 -70t-6.5 -88.5 q-138 0 -207.5 31t-69.5 106q0 56 33.5 96t91 65t134 36.5t163.5 11.5q109 0 190.5 -27t135.5 -89q60 57 135 86.5t166 29.5q111 0 200 -31.5t151 -93.5t95 -154t33 -214v-105h-672q3 -103 22.5 -177t54.5 -122t84.5 -71t113.5 -23q53 0 98 12.5t81.5 35t63.5 53t45 65.5 q56 -30 56 -100q0 -44 -23.5 -83.5t-72.5 -69.5t-124.5 -48t-179.5 -18zM1231 991q-85 0 -136.5 -85t-56.5 -249h355q0 160 -39 247t-123 87zM410 305q0 -88 28 -132t88 -44q44 0 79.5 18.5t61 52.5t39 82.5t13.5 108.5v154l-92 -6q-61 -3 -103 -19.5t-67 -45.5t-36 -71 t-11 -98z"/>
<glyph glyph-name="ccedilla" horiz-adv-x="1079" unicode="ç" d="M604 -20q-113 0 -206.5 29t-160.5 96t-104 175t-37 265q0 166 38.5 277t106 178t159.5 95.5t198 28.5q99 0 175 -16.5t127 -45.5t77.5 -68.5t26.5 -84.5q0 -33 -11.5 -64.5t-41 -55.5t-81 -39t-131.5 -15q0 53 -6.5 101t-21.5 84t-40.5 57.5t-64.5 21.5 q-45 0 -80.5 -21.5t-61 -73.5t-39 -139t-13.5 -218q0 -208 57 -311t186 -103q53 0 99.5 12.5t84.5 35t66.5 53t46.5 65.5q25 -15 37 -40.5t12 -53.5q0 -39 -23 -79t-71.5 -72.5t-123.5 -53t-179 -20.5zM839 -258q0 -54 -21 -97.5t-59 -74t-91.5 -46.5t-118.5 -16 q-16 0 -39 1.5t-48 4.5t-49 7.5t-43 9.5v125q38 -8 75 -12t65 -4q58 0 91.5 20.5t33.5 73.5q0 30 -11.5 49t-32.5 30.5t-49 17t-61 7.5l43 180h117l-21 -88q50 -4 90.5 -18.5t69 -38.5t44 -57.5t15.5 -73.5z"/>
<glyph glyph-name="egrave" horiz-adv-x="1169" unicode="è" d="M627 -20q-130 0 -229.5 38t-166.5 110t-101 176.5t-34 238.5q0 144 34 253t99 182t159.5 109.5t215.5 36.5q111 0 200 -31.5t151 -93.5t95 -154t33 -214v-105h-671q3 -103 22.5 -177t54 -122t84 -71t113.5 -23q53 0 98 12.5t81.5 35t64 53t45.5 65.5q55 -30 55 -100 q0 -44 -24 -83.5t-74 -69.5t-125.5 -48t-179.5 -18zM608 991q-86 0 -136.5 -85t-55.5 -249h354q0 78 -9 140t-28.5 105t-50 66t-74.5 23zM642 1241q-48 28 -106.5 69.5t-113 85.5t-98.5 84.5t-63 67.5v21h321q16 -34 41 -74.5t52.5 -81t55.5 -78.5t50 -67v-27h-139z"/>
<glyph glyph-name="eacute" horiz-adv-x="1169" unicode="é" d="M627 -20q-130 0 -229.5 38t-166.5 110t-101 176.5t-34 238.5q0 144 34 253t99 182t159.5 109.5t215.5 36.5q111 0 200 -31.5t151 -93.5t95 -154t33 -214v-105h-671q3 -103 22.5 -177t54 -122t84 -71t113.5 -23q53 0 98 12.5t81.5 35t64 53t45.5 65.5q55 -30 55 -100 q0 -44 -24 -83.5t-74 -69.5t-125.5 -48t-179.5 -18zM608 991q-86 0 -136.5 -85t-55.5 -249h354q0 78 -9 140t-28.5 105t-50 66t-74.5 23zM473 1268q22 29 49.5 67t55.5 78.5t52.5 81t40.5 74.5h322v-21q-19 -27 -63 -67.5t-98.5 -84.5t-113 -85.5t-106.5 -69.5h-139v27z"/>
<glyph glyph-name="ecircumflex" horiz-adv-x="1169" unicode="ê" d="M627 -20q-130 0 -229.5 38t-166.5 110t-101 176.5t-34 238.5q0 144 34 253t99 182t159.5 109.5t215.5 36.5q111 0 200 -31.5t151 -93.5t95 -154t33 -214v-105h-671q3 -103 22.5 -177t54 -122t84 -71t113.5 -23q53 0 98 12.5t81.5 35t64 53t45.5 65.5q55 -30 55 -100 q0 -44 -24 -83.5t-74 -69.5t-125.5 -48t-179.5 -18zM608 991q-86 0 -136.5 -85t-55.5 -249h354q0 78 -9 140t-28.5 105t-50 66t-74.5 23zM254 1268q24 29 56.5 67t64.5 78.5t60.5 81t44.5 74.5h276q16 -34 44.5 -74.5t60.5 -81t64 -78.5t56 -67v-27h-141q-21 17 -50 40 t-60 48t-60.5 50t-52.5 46q-23 -21 -52.5 -46t-60 -50t-59 -48t-49.5 -40h-142v27z"/>
<glyph glyph-name="edieresis" horiz-adv-x="1169" unicode="ë" d="M627 -20q-130 0 -229.5 38t-166.5 110t-101 176.5t-34 238.5q0 144 34 253t99 182t159.5 109.5t215.5 36.5q111 0 200 -31.5t151 -93.5t95 -154t33 -214v-105h-671q3 -103 22.5 -177t54 -122t84 -71t113.5 -23q53 0 98 12.5t81.5 35t64 53t45.5 65.5q55 -30 55 -100 q0 -44 -24 -83.5t-74 -69.5t-125.5 -48t-179.5 -18zM608 991q-86 0 -136.5 -85t-55.5 -249h354q0 78 -9 140t-28.5 105t-50 66t-74.5 23zM701 1409q0 35 10 59.5t27 39.5t39 21.5t47 6.5q23 0 44.5 -6.5t38.5 -21.5t27.5 -39.5t10.5 -59.5q0 -34 -10.5 -58.5t-27.5 -39.5 t-38.5 -22t-44.5 -7q-25 0 -47 7t-39 22t-27 39.5t-10 58.5zM281 1409q0 35 10 59.5t26.5 39.5t38.5 21.5t46 6.5t46 -6.5t39 -21.5t27.5 -39.5t10.5 -59.5q0 -34 -10.5 -58.5t-27.5 -39.5t-39 -22t-46 -7t-46 7t-38.5 22t-26.5 39.5t-10 58.5z"/>
<glyph glyph-name="igrave" horiz-adv-x="721" unicode="ì" d="M59 109q23 0 48.5 4.5t47 18.5t36 40t14.5 70v622q0 41 -14.5 65.5t-36.5 38t-47.5 17.5t-47.5 4h-24v109h481v-856q0 -44 14.5 -70t36 -40t47.5 -18.5t48 -4.5h24v-109h-651v109h24zM370 1241q-48 28 -106.5 69.5t-113 85.5t-98.5 84.5t-63 67.5v21h321q16 -34 41 -74.5 t52.5 -81t55.5 -78.5t50 -67v-27h-139z"/>
<glyph glyph-name="iacute" horiz-adv-x="721" unicode="í" d="M59 109q23 0 48.5 4.5t47 18.5t36 40t14.5 70v622q0 41 -14.5 65.5t-36.5 38t-47.5 17.5t-47.5 4h-24v109h481v-856q0 -44 14.5 -70t36 -40t47.5 -18.5t48 -4.5h24v-109h-651v109h24zM267 1268q22 29 49.5 67t55.5 78.5t52.5 81t40.5 74.5h322v-21q-19 -27 -63 -67.5 t-98.5 -84.5t-113 -85.5t-106.5 -69.5h-139v27z"/>
<glyph glyph-name="icircumflex" horiz-adv-x="721" unicode="î" d="M59 109q23 0 48.5 4.5t47 18.5t36 40t14.5 70v622q0 41 -14.5 65.5t-36.5 38t-47.5 17.5t-47.5 4h-24v109h481v-856q0 -44 14.5 -70t36 -40t47.5 -18.5t48 -4.5h24v-109h-651v109h24zM-30 1268q24 29 56.5 67t64.5 78.5t60.5 81t44.5 74.5h276q16 -34 44.5 -74.5 t60.5 -81t64 -78.5t56 -67v-27h-141q-21 17 -50 40t-60 48t-60.5 50t-52.5 46q-23 -21 -52.5 -46t-60 -50t-59 -48t-49.5 -40h-142v27z"/>
<glyph glyph-name="idieresis" horiz-adv-x="721" unicode="ï" d="M59 109q23 0 48.5 4.5t47 18.5t36 40t14.5 70v622q0 41 -14.5 65.5t-36.5 38t-47.5 17.5t-47.5 4h-24v109h481v-856q0 -44 14.5 -70t36 -40t47.5 -18.5t48 -4.5h24v-109h-651v109h24zM419 1409q0 35 10 59.5t27 39.5t39 21.5t47 6.5q23 0 44.5 -6.5t38.5 -21.5 t27.5 -39.5t10.5 -59.5q0 -34 -10.5 -58.5t-27.5 -39.5t-38.5 -22t-44.5 -7q-25 0 -47 7t-39 22t-27 39.5t-10 58.5zM-1 1409q0 35 10 59.5t26.5 39.5t38.5 21.5t46 6.5t46 -6.5t39 -21.5t27.5 -39.5t10.5 -59.5q0 -34 -10.5 -58.5t-27.5 -39.5t-39 -22t-46 -7t-46 7 t-38.5 22t-26.5 39.5t-10 58.5z"/>
<glyph glyph-name="eth" horiz-adv-x="1253" unicode="ð" d="M414 520q0 -101 11.5 -178t37 -128.5t66.5 -78t100 -26.5q58 0 98.5 26.5t66 78t37 128.5t11.5 178q0 105 -11.5 182.5t-37 128.5t-66.5 76t-100 25q-58 0 -99 -24.5t-66 -75t-36.5 -128t-11.5 -184.5zM1157 596q0 -312 -135.5 -464t-398.5 -152q-122 0 -219.5 33 t-166 100.5t-105 169.5t-36.5 239q0 136 32.5 237.5t95.5 169t155 101t211 33.5q68 0 126.5 -16t96.5 -39q-11 33 -25 65.5t-34 65t-48 65t-67 64.5l-289 -148v133l182 95q-51 32 -108.5 50.5t-132.5 31.5v129q38 -3 90.5 -14.5t108.5 -29t109.5 -39.5t92.5 -46l258 131 v-136l-143 -73q78 -61 142.5 -140.5t110.5 -175.5t71.5 -206.5t25.5 -233.5z"/>
<glyph glyph-name="ntilde" horiz-adv-x="1366" unicode="ñ" d="M858 0v674q0 66 -8.5 117.5t-28 86.5t-51 53.5t-76.5 18.5q-51 0 -85 -26t-54.5 -69.5t-29.5 -101t-9 -120.5v-391q0 -43 10.5 -69t29.5 -40.5t46.5 -19t61.5 -4.5h6v-109h-629v109h4q35 0 64 4.5t50.5 19.5t33.5 43t12 74v606q0 43 -10.5 69t-30 40.5t-46.5 19t-61 4.5 h-6v109h430l27 -146h10q31 58 65.5 92t73.5 52t82.5 23t91.5 5q79 0 142 -23t106.5 -71t66.5 -122.5t23 -178.5v-475q0 -48 8.5 -76.5t25.5 -43.5t43 -20t61 -5h6v-109h-455zM842 1436q22 0 39.5 9t30 24t20 34.5t10.5 40.5h133q-3 -62 -23 -117t-53.5 -96.5t-79 -65.5 t-100.5 -24t-99.5 20t-83 44.5t-72 44.5t-66.5 20q-23 0 -40.5 -9t-30 -24t-20 -34.5t-10.5 -40.5h-133q3 62 23.5 117t54 96.5t79.5 65.5t101 24t99.5 -20t83 -44.5t72 -44.5t65.5 -20z"/>
<glyph glyph-name="ograve" horiz-adv-x="1255" unicode="ò" d="M414 553q0 -109 11.5 -192t37 -139t66.5 -84.5t100 -28.5t99.5 28.5t66 84.5t36.5 139t11 192q0 110 -11.5 192.5t-37 137.5t-66.5 82.5t-100 27.5t-100 -27.5t-66 -82.5t-36 -137.5t-11 -192.5zM1159 553q0 -289 -135.5 -431t-398.5 -142q-123 0 -221 35.5t-166.5 106.5 t-105 179t-36.5 252q0 289 135.5 430t399.5 141q123 0 220.5 -35t166 -106t105 -178.5t36.5 -251.5zM618 1241q-48 28 -106.5 69.5t-113 85.5t-98.5 84.5t-63 67.5v21h321q16 -34 41 -74.5t52.5 -81t55.5 -78.5t50 -67v-27h-139z"/>
<glyph glyph-name="oacute" horiz-adv-x="1255" unicode="ó" d="M414 553q0 -109 11.5 -192t37 -139t66.5 -84.5t100 -28.5t99.5 28.5t66 84.5t36.5 139t11 192q0 110 -11.5 192.5t-37 137.5t-66.5 82.5t-100 27.5t-100 -27.5t-66 -82.5t-36 -137.5t-11 -192.5zM1159 553q0 -289 -135.5 -431t-398.5 -142q-123 0 -221 35.5t-166.5 106.5 t-105 179t-36.5 252q0 289 135.5 430t399.5 141q123 0 220.5 -35t166 -106t105 -178.5t36.5 -251.5zM504 1268q22 29 49.5 67t55.5 78.5t52.5 81t40.5 74.5h322v-21q-19 -27 -63 -67.5t-98.5 -84.5t-113 -85.5t-106.5 -69.5h-139v27z"/>
<glyph glyph-name="ocircumflex" horiz-adv-x="1255" unicode="ô" d="M414 553q0 -109 11.5 -192t37 -139t66.5 -84.5t100 -28.5t99.5 28.5t66 84.5t36.5 139t11 192q0 110 -11.5 192.5t-37 137.5t-66.5 82.5t-100 27.5t-100 -27.5t-66 -82.5t-36 -137.5t-11 -192.5zM1159 553q0 -289 -135.5 -431t-398.5 -142q-123 0 -221 35.5t-166.5 106.5 t-105 179t-36.5 252q0 289 135.5 430t399.5 141q123 0 220.5 -35t166 -106t105 -178.5t36.5 -251.5zM262 1268q24 29 56.5 67t64.5 78.5t60.5 81t44.5 74.5h276q16 -34 44.5 -74.5t60.5 -81t64 -78.5t56 -67v-27h-141q-21 17 -50 40t-60 48t-60.5 50t-52.5 46 q-23 -21 -52.5 -46t-60 -50t-59 -48t-49.5 -40h-142v27z"/>
<glyph glyph-name="otilde" horiz-adv-x="1255" unicode="õ" d="M414 553q0 -109 11.5 -192t37 -139t66.5 -84.5t100 -28.5t99.5 28.5t66 84.5t36.5 139t11 192q0 110 -11.5 192.5t-37 137.5t-66.5 82.5t-100 27.5t-100 -27.5t-66 -82.5t-36 -137.5t-11 -192.5zM1159 553q0 -289 -135.5 -431t-398.5 -142q-123 0 -221 35.5t-166.5 106.5 t-105 179t-36.5 252q0 289 135.5 430t399.5 141q123 0 220.5 -35t166 -106t105 -178.5t36.5 -251.5zM795 1436q22 0 39.5 9t30 24t20 34.5t10.5 40.5h133q-3 -62 -23 -117t-53.5 -96.5t-79 -65.5t-100.5 -24t-99.5 20t-83 44.5t-72 44.5t-66.5 20q-23 0 -40.5 -9t-30 -24 t-20 -34.5t-10.5 -40.5h-133q3 62 23.5 117t54 96.5t79.5 65.5t101 24t99.5 -20t83 -44.5t72 -44.5t65.5 -20z"/>
<glyph glyph-name="odieresis" horiz-adv-x="1255" unicode="ö" d="M414 553q0 -109 11.5 -192t37 -139t66.5 -84.5t100 -28.5t99.5 28.5t66 84.5t36.5 139t11 192q0 110 -11.5 192.5t-37 137.5t-66.5 82.5t-100 27.5t-100 -27.5t-66 -82.5t-36 -137.5t-11 -192.5zM1159 553q0 -289 -135.5 -431t-398.5 -142q-123 0 -221 35.5t-166.5 106.5 t-105 179t-36.5 252q0 289 135.5 430t399.5 141q123 0 220.5 -35t166 -106t105 -178.5t36.5 -251.5zM713 1409q0 35 10 59.5t27 39.5t39 21.5t47 6.5q23 0 44.5 -6.5t38.5 -21.5t27.5 -39.5t10.5 -59.5q0 -34 -10.5 -58.5t-27.5 -39.5t-38.5 -22t-44.5 -7q-25 0 -47 7 t-39 22t-27 39.5t-10 58.5zM293 1409q0 35 10 59.5t26.5 39.5t38.5 21.5t46 6.5t46 -6.5t39 -21.5t27.5 -39.5t10.5 -59.5q0 -34 -10.5 -58.5t-27.5 -39.5t-39 -22t-46 -7t-46 7t-38.5 22t-26.5 39.5t-10 58.5z"/>
<glyph glyph-name="divide" d="M1012 659h-879v146h879v-146zM459 344q0 35 8.5 59t24 38.5t36.5 21t45 6.5t45 -6.5t36.5 -21t24.5 -38.5t9 -59q0 -34 -9 -58t-24.5 -39t-36.5 -21.5t-45 -6.5q-49 0 -81.5 28t-32.5 97zM459 1120q0 35 8.5 59t24 38.5t36.5 21t45 6.5t45 -6.5t36.5 -21t24.5 -38.5 t9 -59q0 -34 -9 -58t-24.5 -39t-36.5 -21.5t-45 -6.5q-49 0 -81.5 28t-32.5 97z" unicode="÷"/>
<glyph glyph-name="oslash" horiz-adv-x="1255" unicode="ø" d="M842 553q0 56 -3 104.5t-10 92.5l-348 -566q51 -75 148 -75q59 0 99.5 28.5t66 84.5t36.5 139t11 192zM414 553q0 -63 3 -117.5t11 -99.5l352 571q-52 86 -153 86q-59 0 -100 -27.5t-66 -82.5t-36 -137.5t-11 -192.5zM1159 553q0 -289 -135.5 -431t-398.5 -142 q-138 0 -242 43l-66 -105h-145l102 168q-86 71 -132 187t-46 280q0 289 135.5 430t399.5 141q72 0 136 -12t118 -37l65 105h144l-105 -172q82 -72 126 -184t44 -271z"/>
<glyph glyph-name="ugrave" horiz-adv-x="1366" unicode="ù" d="M907 0l-45 145h-10q-31 -53 -67 -85.5t-77 -50t-86.5 -23.5t-93.5 -6q-160 0 -245.5 99t-85.5 306v459q0 45 -8 73t-25 44t-43.5 22t-63.5 6h-4v109h455v-656q0 -66 7.5 -119t25.5 -90.5t48 -58t75 -20.5q49 0 84.5 21.5t58 62t33 98t10.5 129.5v393q0 45 -12 71 t-32 39.5t-47 17t-57 3.5h-6v109h465v-860q0 -45 10.5 -70.5t28.5 -38.5t43 -16.5t55 -3.5h17v-109h-408zM634 1241q-48 28 -106.5 69.5t-113 85.5t-98.5 84.5t-63 67.5v21h321q16 -34 41 -74.5t52.5 -81t55.5 -78.5t50 -67v-27h-139z"/>
<glyph glyph-name="uacute" horiz-adv-x="1366" unicode="ú" d="M907 0l-45 145h-10q-31 -53 -67 -85.5t-77 -50t-86.5 -23.5t-93.5 -6q-160 0 -245.5 99t-85.5 306v459q0 45 -8 73t-25 44t-43.5 22t-63.5 6h-4v109h455v-656q0 -66 7.5 -119t25.5 -90.5t48 -58t75 -20.5q49 0 84.5 21.5t58 62t33 98t10.5 129.5v393q0 45 -12 71 t-32 39.5t-47 17t-57 3.5h-6v109h465v-860q0 -45 10.5 -70.5t28.5 -38.5t43 -16.5t55 -3.5h17v-109h-408zM527 1268q22 29 49.5 67t55.5 78.5t52.5 81t40.5 74.5h322v-21q-19 -27 -63 -67.5t-98.5 -84.5t-113 -85.5t-106.5 -69.5h-139v27z"/>
<glyph glyph-name="ucircumflex" horiz-adv-x="1366" unicode="û" d="M907 0l-45 145h-10q-31 -53 -67 -85.5t-77 -50t-86.5 -23.5t-93.5 -6q-160 0 -245.5 99t-85.5 306v459q0 45 -8 73t-25 44t-43.5 22t-63.5 6h-4v109h455v-656q0 -66 7.5 -119t25.5 -90.5t48 -58t75 -20.5q49 0 84.5 21.5t58 62t33 98t10.5 129.5v393q0 45 -12 71 t-32 39.5t-47 17t-57 3.5h-6v109h465v-860q0 -45 10.5 -70.5t28.5 -38.5t43 -16.5t55 -3.5h17v-109h-408zM295 1268q24 29 56.5 67t64.5 78.5t60.5 81t44.5 74.5h276q16 -34 44.5 -74.5t60.5 -81t64 -78.5t56 -67v-27h-141q-21 17 -50 40t-60 48t-60.5 50t-52.5 46 q-23 -21 -52.5 -46t-60 -50t-59 -48t-49.5 -40h-142v27z"/>
<glyph glyph-name="udieresis" horiz-adv-x="1366" unicode="ü" d="M907 0l-45 145h-10q-31 -53 -67 -85.5t-77 -50t-86.5 -23.5t-93.5 -6q-160 0 -245.5 99t-85.5 306v459q0 45 -8 73t-25 44t-43.5 22t-63.5 6h-4v109h455v-656q0 -66 7.5 -119t25.5 -90.5t48 -58t75 -20.5q49 0 84.5 21.5t58 62t33 98t10.5 129.5v393q0 45 -12 71 t-32 39.5t-47 17t-57 3.5h-6v109h465v-860q0 -45 10.5 -70.5t28.5 -38.5t43 -16.5t55 -3.5h17v-109h-408zM752 1409q0 35 10 59.5t27 39.5t39 21.5t47 6.5q23 0 44.5 -6.5t38.5 -21.5t27.5 -39.5t10.5 -59.5q0 -34 -10.5 -58.5t-27.5 -39.5t-38.5 -22t-44.5 -7q-25 0 -47 7 t-39 22t-27 39.5t-10 58.5zM332 1409q0 35 10 59.5t26.5 39.5t38.5 21.5t46 6.5t46 -6.5t39 -21.5t27.5 -39.5t10.5 -59.5q0 -34 -10.5 -58.5t-27.5 -39.5t-39 -22t-46 -7t-46 7t-38.5 22t-26.5 39.5t-10 58.5z"/>
<glyph glyph-name="yacute" horiz-adv-x="1186" unicode="ý" d="M1186 1098v-109q-31 0 -54.5 -7t-42.5 -24.5t-35 -46t-32 -71.5q-36 -102 -75 -208t-78.5 -212.5t-79 -212t-76.5 -207.5q-36 -99 -68 -174t-67.5 -130t-78.5 -91t-100 -57.5t-132.5 -30.5t-176.5 -9h-35v119q107 0 182 26t127 74t85.5 115t58.5 148l-369 901 q-12 29 -27 46t-32 26t-37 11.5t-43 2.5v121h584v-109q-60 0 -94.5 -15.5t-34.5 -60.5q0 -17 7 -40.5t13 -38.5q18 -43 37.5 -93.5t38 -101t35.5 -97.5t30 -83q15 -39 25 -70.5t16.5 -57t10.5 -47t6 -42.5q2 21 8 46.5t13 49t14 42t10 26.5l135 401q4 10 7.5 23.5t6.5 27.5 t4.5 27t1.5 22q0 47 -39 64.5t-110 17.5v109h461zM463 1268q22 29 49.5 67t55.5 78.5t52.5 81t40.5 74.5h322v-21q-19 -27 -63 -67.5t-98.5 -84.5t-113 -85.5t-106.5 -69.5h-139v27z"/>
<glyph glyph-name="thorn" horiz-adv-x="1321" unicode="þ" d="M717 127q103 0 147.5 103.5t44.5 312.5q0 204 -44.5 313t-145.5 109q-62 0 -102.5 -27.5t-64.5 -81t-34 -132t-10 -179.5q0 -106 10 -184.5t34 -130.5t64 -77.5t101 -25.5zM51 -383q22 0 48 4.5t47.5 18.5t36 40t14.5 70v1555q0 47 -10.5 75t-29 43t-44 20t-54.5 5h-14 v108h463v-376q0 -29 -4 -70.5t-9 -79.5q-5 -45 -12 -92h9q22 40 51.5 73t68 57t86.5 37t107 13q102 0 180.5 -33.5t131.5 -104t80.5 -178.5t27.5 -257q0 -148 -27 -255.5t-79.5 -177.5t-129 -103.5t-176.5 -33.5q-117 0 -190 44.5t-117 119.5h-14q4 -47 8 -92q3 -38 5.5 -81 t2.5 -75v-141q0 -44 14.5 -70t36 -40t47 -18.5t47.5 -4.5h45v-109h-671v109h24z"/>
<glyph glyph-name="hbar" horiz-adv-x="1366" unicode="ħ" d="M205 1292v31q0 41 -14.5 65.5t-36.5 38t-47.5 17.5t-47.5 4h-24v108h481v-264h318v-108h-318v-27q0 -40 -2.5 -85.5t-5.5 -84.5q-4 -46 -8 -90h18q31 58 65.5 91t73.5 49.5t82.5 21t91.5 4.5q79 0 142 -23t106.5 -71t66.5 -122.5t23 -178.5v-414q0 -48 8.5 -76.5 t25.5 -43.5t43 -20t61 -5h6v-109h-455v612q0 66 -8.5 117.5t-28 87t-51 54t-76.5 18.5q-51 0 -85 -26t-54.5 -70t-29.5 -101.5t-9 -120.5v-329q0 -43 10.5 -69t29.5 -40.5t46.5 -19t61.5 -4.5h6v-109h-629v109h4q35 0 64 4.5t50.5 19.5t33.5 43t12 74v934h-178v108h178z"/>
<glyph glyph-name="dotlessi" horiz-adv-x="721" unicode="ı" d="M59 109q23 0 48.5 4.5t47 18.5t36 40t14.5 70v622q0 41 -14.5 65.5t-36.5 38t-47.5 17.5t-47.5 4h-24v109h481v-856q0 -44 14.5 -70t36 -40t47.5 -18.5t48 -4.5h24v-109h-651v109h24z"/>
<glyph glyph-name="OE" horiz-adv-x="2087" unicode="Œ" d="M807 113q59 0 105.5 15t84.5 44v1118q-34 26 -82.5 44t-105.5 18q-96 0 -163 -41.5t-109 -121t-61 -194.5t-19 -262t19 -262t61 -194.5t108.5 -121.5t161.5 -42zM1323 125h410q31 0 53 11.5t37.5 32.5t25 49.5t15.5 62.5l16 96h141l-14 -377h-987q-45 -9 -103.5 -14.5 t-109.5 -5.5q-175 0 -305.5 54t-216.5 153t-129 238.5t-43 309.5t43 308.5t129.5 236.5t217 151.5t306.5 53.5q53 0 112.5 -6t104.5 -17h918l8 -377h-144l-10 97q-8 75 -38 115t-93 40h-344v-512h485v-123h-485v-577z"/>
<glyph glyph-name="oe" horiz-adv-x="1915" unicode="œ" d="M1376 -20q-118 0 -211 40t-161 117q-67 -81 -162.5 -119t-216.5 -38q-123 0 -221 35.5t-166.5 106.5t-105 179t-36.5 252q0 289 135.5 430t399.5 141q114 0 206 -39.5t160 -117.5q63 78 152 117.5t201 39.5q111 0 200 -31.5t151 -93.5t95 -154t33 -214v-105h-670 q0 -6 -1 -12t-1 -12q5 -97 25.5 -166.5t55 -114.5t83.5 -66.5t111 -21.5q53 0 98 12.5t81.5 35t63.5 53t45 65.5q56 -30 56 -100q0 -44 -23.5 -83.5t-72.5 -69.5t-124.5 -48t-179.5 -18zM1354 991q-85 0 -136.5 -85t-56.5 -249h355q0 160 -39 247t-123 87zM414 553 q0 -109 11.5 -192t37 -139t66.5 -84.5t100 -28.5q56 0 95.5 26t65 77t38 127.5t14.5 176.5v55q-1 211 -50.5 316.5t-164.5 105.5q-59 0 -100 -27.5t-66 -82.5t-36 -137.5t-11 -192.5z"/>
<glyph glyph-name="Scaron" horiz-adv-x="1200" unicode="Š" d="M541 -20q-138 0 -230 26t-147.5 67t-79 92t-23.5 101q0 53 19.5 89t52 59t74 33t86.5 10q0 -88 21 -154.5t58 -111t88.5 -67t112.5 -22.5q60 0 107 17t80 47t50 70.5t17 87.5q0 52 -21 92.5t-63.5 75t-107 66t-150.5 67.5q-107 44 -180.5 90.5t-118.5 100.5t-64.5 117 t-19.5 138q0 94 38 170t105 130t159 83t200 29q113 0 195 -18.5t135.5 -50.5t79.5 -75.5t26 -93.5q0 -36 -15.5 -67t-47 -54t-79 -36t-110.5 -13q0 43 -11.5 92.5t-37.5 92t-67.5 70.5t-100.5 28q-41 0 -78 -12t-64.5 -36t-43.5 -59.5t-16 -81.5q0 -43 14 -81t51.5 -74.5 t103 -73t169.5 -78.5q105 -43 179 -88t121.5 -96.5t69 -113t21.5 -136.5q0 -99 -39 -181.5t-112 -141.5t-175.5 -92t-230.5 -33zM245 1907h142q21 -17 49.5 -40t59 -48.5t60 -50.5t52.5 -46q23 21 52.5 46t60.5 50.5t60 48.5t50 40h141v-27q-24 -29 -56 -67t-64 -78.5 t-60.5 -80.5t-44.5 -75h-276q-16 35 -44.5 75t-60.5 80.5t-64.5 78.5t-56.5 67v27z"/>
<glyph glyph-name="scaron" horiz-adv-x="999" unicode="š" d="M473 -20q-111 0 -189.5 18t-128 50t-72 76t-22.5 95q0 50 19.5 80.5t49 47.5t62.5 22.5t60 5.5q0 -64 16 -115t45 -86.5t69.5 -54.5t90.5 -19q53 0 91.5 11t63 30.5t36.5 45t12 53.5q0 34 -12.5 60.5t-41.5 50t-77.5 46t-120.5 47.5q-83 29 -146.5 61.5t-107 74t-66 95 t-22.5 122.5q0 82 31.5 143t89.5 101.5t139 60.5t180 20q97 0 165 -16.5t111 -43.5t63 -61t20 -69q0 -69 -48.5 -105t-160.5 -36q0 102 -45.5 158.5t-134.5 56.5q-33 0 -63.5 -8t-53 -24t-36 -39.5t-13.5 -55.5q0 -33 12.5 -59t44 -49.5t85.5 -47.5t138 -53 q68 -24 125.5 -54.5t99 -70t64.5 -90t23 -115.5q0 -85 -29.5 -152t-86.5 -113t-140 -70.5t-189 -24.5zM136 1569h142q21 -17 49.5 -40t59 -48.5t60 -50.5t52.5 -46q23 21 52.5 46t60.5 50.5t60 48.5t50 40h141v-27q-24 -29 -56 -67t-64 -78.5t-60.5 -80.5t-44.5 -75h-276 q-16 35 -44.5 75t-60.5 80.5t-64.5 78.5t-56.5 67v27z"/>
<glyph glyph-name="Ydieresis" horiz-adv-x="1419" unicode="Ÿ" d="M336 0v109h96q25 0 46.5 3t37.5 15.5t25.5 37.5t9.5 68v285l-379 727q-15 30 -28.5 51t-29.5 33.5t-36.5 18.5t-50.5 6h-27v108h686v-108h-35q-62 0 -92.5 -25t-30.5 -67q0 -26 9.5 -56.5t21.5 -56.5l152 -301q32 -65 52.5 -115t37.5 -98q21 54 48.5 117.5t61.5 132.5 l119 245q22 45 28.5 75.5t6.5 47.5q0 53 -33.5 77t-101.5 24h-47v108h536v-108h-39q-26 0 -44.5 -7t-35 -25t-34 -49t-41.5 -79l-348 -678v-280q0 -45 9 -70t24.5 -38t36 -16t44.5 -3h101v-109h-756zM821 1747q0 35 10 59.5t27 39.5t39 21.5t47 6.5q23 0 44.5 -6.5 t38.5 -21.5t27.5 -39.5t10.5 -59.5q0 -34 -10.5 -58.5t-27.5 -39.5t-38.5 -22t-44.5 -7q-25 0 -47 7t-39 22t-27 39.5t-10 58.5zM401 1747q0 35 10 59.5t26.5 39.5t38.5 21.5t46 6.5t46 -6.5t39 -21.5t27.5 -39.5t10.5 -59.5q0 -34 -10.5 -58.5t-27.5 -39.5t-39 -22t-46 -7 t-46 7t-38.5 22t-26.5 39.5t-10 58.5z"/>
<glyph glyph-name="circumflex" horiz-adv-x="1182" unicode="ˆ" d="M227 1268q24 29 56.5 67t64.5 78.5t60.5 81t44.5 74.5h276q16 -34 44.5 -74.5t60.5 -81t64 -78.5t56 -67v-27h-141q-21 17 -50 40t-60 48t-60.5 50t-52.5 46q-23 -21 -52.5 -46t-60 -50t-59 -48t-49.5 -40h-142v27z"/>
<glyph glyph-name="caron" horiz-adv-x="1182" unicode="ˇ" d="M227 1569h142q21 -17 49.5 -40t59 -48.5t60 -50.5t52.5 -46q23 21 52.5 46t60.5 50.5t60 48.5t50 40h141v-27q-24 -29 -56 -67t-64 -78.5t-60.5 -80.5t-44.5 -75h-276q-16 35 -44.5 75t-60.5 80.5t-64.5 78.5t-56.5 67v27z"/>
<glyph glyph-name="macron" horiz-adv-x="1024" unicode="ˉ" d="M809 1241h-594v162h594v-162z"/>
<glyph glyph-name="ring" horiz-adv-x="682" unicode="˚" d="M461 1444q0 30 -9.5 51t-26 34t-38.5 19t-47 6t-47 -6t-38.5 -19t-26 -34t-9.5 -51t9.5 -51t26 -34.5t38.5 -19.5t47 -6t47 6t38.5 19.5t26 34.5t9.5 51zM586 1444q0 -55 -19 -96.5t-52.5 -69.5t-78.5 -42.5t-96 -14.5t-96 14.5t-78.5 42.5t-52.5 69.5t-19 96.5 q0 54 19 96t52.5 70t78.5 42.5t96 14.5t96 -14.5t78.5 -42.5t52.5 -70t19 -96z"/>
<glyph glyph-name="tilde" horiz-adv-x="1182" unicode="˜" d="M762 1436q22 0 39.5 9t30 24t20 34.5t10.5 40.5h133q-3 -62 -23 -117t-53.5 -96.5t-79 -65.5t-100.5 -24t-99.5 20t-83 44.5t-72 44.5t-66.5 20q-23 0 -40.5 -9t-30 -24t-20 -34.5t-10.5 -40.5h-133q3 62 23.5 117t54 96.5t79.5 65.5t101 24t99.5 -20t83 -44.5t72 -44.5 t65.5 -20z"/>
<glyph glyph-name="hungarumlaut" horiz-adv-x="1182" unicode="˝" d="M578 1241v27q21 33 45 71t47.5 78t44.5 79t37 73h260v-21q-11 -18 -30.5 -42.5t-44.5 -52.5t-53.5 -57.5t-57.5 -57.5t-56.5 -53t-50.5 -44h-141zM188 1241v27q22 33 45.5 71t47 78t44.5 79t37 73h261v-21q-11 -18 -30.5 -42.5t-44.5 -52.5t-53.5 -57.5t-57.5 -57.5 t-56.5 -53t-50.5 -44h-142z"/>
<glyph glyph-name="uni030F" horiz-adv-x="0" unicode="̏" d="M-813 1241q-203 171 -293 307v21h260q53 -113 174 -301v-27h-141zM-424 1241q-203 171 -293 307v21h260q53 -113 174 -301v-27h-141z"/>
<glyph glyph-name="Alpha" horiz-adv-x="1542" unicode="Α" d="M795 942q-11 35 -22.5 73.5t-23 78.5t-22 79.5t-18.5 75.5q-9 -31 -21 -68t-25.5 -76l-27 -78t-25.5 -75l-121 -346h414zM446 481l-59 -176q-8 -25 -16.5 -58.5t-8.5 -58.5q0 -20 8 -35t21 -24.5t29.5 -14.5t34.5 -5h86v-109h-533v109h25q27 0 49.5 6t42 22.5t37 45.5 t35.5 75l444 1204h281l428 -1206q15 -43 31.5 -71.5t36 -45t41.5 -23.5t46 -7h37v-109h-676v109h80q15 0 31 4.5t28.5 14t20.5 24.5t8 36q0 25 -6 48t-12 40l-72 205h-498z"/>
<glyph glyph-name="Beta" horiz-adv-x="1376" unicode="Β" d="M571 827h78q72 0 119.5 15t76 46.5t40.5 81.5t12 120t-13.5 117t-43.5 76t-78 41.5t-117 12.5h-74v-510zM571 125h136q68 0 116 15t78 48.5t43.5 87.5t13.5 132q0 75 -12 130.5t-41 91.5t-76 54t-118 18h-140v-577zM1241 1090q0 -68 -18.5 -118.5t-52.5 -87t-81.5 -62.5 t-105.5 -44v-10q71 -18 129.5 -49.5t101 -77t66 -105.5t23.5 -135q0 -202 -147 -301.5t-439 -99.5h-660v109h84q23 0 42.5 4.5t33.5 18.5t22.5 40t8.5 70v981q0 41 -8.5 66.5t-23 39.5t-34 19.5t-41.5 5.5h-84v108h598q292 0 439 -90t147 -282z"/>
<glyph glyph-name="Gamma" horiz-adv-x="1210" unicode="Γ" d="M1176 1462l14 -401h-115l-24 98q-23 89 -68.5 133.5t-128.5 44.5h-281v-1104q0 -40 8.5 -64.5t22.5 -38t33.5 -17.5t40.5 -4h127v-109h-748v109h86q23 0 42 4.5t33 18.5t22 40t8 70v979q0 44 -8 70t-22 40t-33 18.5t-42 4.5h-86v108h1119z"/>
<glyph glyph-name="uni0394" horiz-adv-x="1434" unicode="Δ" d="M1016 162l-264 770q-31 91 -57.5 176t-43.5 160q-15 -74 -39.5 -148.5t-56.5 -169.5l-272 -788h733zM1333 0h-1233v133l480 1329h292l461 -1315v-147z"/>
<glyph glyph-name="Epsilon" horiz-adv-x="1337" unicode="Ε" d="M573 125h410q31 0 53 11.5t38 32.5t25.5 49.5t14.5 62.5l16 96h142l-15 -377h-1200v109h86q22 0 41 4t33.5 16.5t22.5 37t8 64.5v990q0 44 -8 70t-22 40t-33 18.5t-42 4.5h-86v108h1137l8 -377h-143l-10 97q-8 75 -38 115t-93 40h-345v-512h486v-123h-486v-577z"/>
<glyph glyph-name="Zeta" horiz-adv-x="1364" unicode="Ζ" d="M1229 1358l-770 -1233h442q63 0 103 17.5t63.5 46.5t34 65.5t14.5 75.5l10 92h148l-10 -422h-1178v102l768 1235h-403q-48 0 -79 -13t-49.5 -37.5t-27 -59t-12.5 -76.5l-11 -111h-147l10 422h1094v-104z"/>
<glyph glyph-name="Eta" horiz-adv-x="1677" unicode="Η" d="M913 0v109h88q22 0 41 4.5t33.5 18.5t22.5 40t8 70v458h-535v-458q0 -44 8.5 -70t22.5 -40t33 -18.5t41 -4.5h88v-109h-707v109h86q22 0 41 4.5t33.5 18.5t22.5 40t8 70v986q0 41 -8.5 65.5t-23 37.5t-33.5 17.5t-40 4.5h-86v109h707v-109h-88q-22 0 -41 -4.5t-33 -18.5 t-22.5 -40t-8.5 -70v-395h535v395q0 44 -8 70t-22.5 40t-33.5 18.5t-41 4.5h-88v109h707v-109h-86q-21 0 -40 -4.5t-33.5 -18.5t-22.5 -40t-8 -70v-989q0 -40 8.5 -64.5t23 -37t33 -16.5t39.5 -4h86v-109h-707z"/>
<glyph glyph-name="Theta" horiz-adv-x="1612" unicode="Θ" d="M457 733q0 -147 19 -262t61 -194.5t108.5 -121.5t161.5 -42q96 0 162.5 42t107.5 121.5t59.5 194.5t18.5 262t-18.5 262t-59.5 194.5t-107 121t-161 41.5q-96 0 -163 -41.5t-109 -121t-61 -194.5t-19 -262zM1499 733q0 -169 -45.5 -308t-134 -238t-217 -153t-295.5 -54 q-175 0 -305.5 54t-216.5 153t-129 238.5t-43 309.5t43 308.5t129.5 236.5t217 151.5t306.5 53.5q166 0 294.5 -53.5t216.5 -152t133.5 -237t45.5 -309.5zM639 942l10 -39q6 -22 13 -39.5t22 -29.5t42 -18.5t73 -6.5h10q41 0 68 6.5t44.5 19t26.5 30t15 38.5l10 39h106v-391 h-106l-10 39q-6 21 -15 38.5t-26.5 30t-44.5 19t-68 6.5h-10q-46 0 -73 -6.5t-42 -18.5t-22 -29.5t-13 -39.5l-10 -39h-107v391h107z"/>
<glyph glyph-name="Iota" horiz-adv-x="821" unicode="Ι" d="M57 0v109h86q23 0 42 4.5t33 18.5t22 40t8 70v978q0 44 -8 70t-22 40t-33 18.5t-42 4.5h-86v109h707v-109h-86q-22 0 -41.5 -4.5t-33.5 -18.5t-22 -40t-8 -70v-978q0 -44 8 -70t22 -40t33.5 -18.5t41.5 -4.5h86v-109h-707z"/>
<glyph glyph-name="Kappa" horiz-adv-x="1503" unicode="Κ" d="M889 1090q33 35 55.5 63.5t36 53t19.5 46.5t6 43q0 34 -26 47t-89 13v106h555v-106q-42 0 -79.5 -13t-73.5 -37t-71 -57t-71 -73l-270 -297l381 -605q30 -48 57.5 -79.5t55.5 -50.5t57 -27t63 -8h8v-109h-110q-78 0 -137 5t-103.5 15t-76.5 25.5t-56 36.5t-43.5 47.5 t-38.5 58.5l-276 471l-91 -71v-346q0 -44 8.5 -70t22.5 -40t34 -18.5t42 -4.5h86v-109h-707v109h86q22 0 41 4t33.5 16.5t22.5 37t8 64.5v998q0 41 -8 65.5t-22.5 37.5t-33.5 17.5t-41 4.5h-86v108h707v-108h-86q-22 0 -42 -4.5t-34 -18.5t-22.5 -40t-8.5 -70v-478z"/>
<glyph glyph-name="Lambda" horiz-adv-x="1430" unicode="Λ" d="M0 109h98q14 0 25 5.5t22 22t23.5 45.5t28.5 76l417 1204h205l436 -1255q10 -29 25.5 -48t33 -30t35.5 -15.5t33 -4.5h48v-109h-676v109h94q15 0 29 3.5t25.5 11t18.5 20.5t7 32q0 20 -6 45.5t-13 42.5l-209 631q-7 23 -16 54t-17 65t-14.5 67.5t-9.5 61.5 q-3 -17 -10.5 -46.5t-17 -63.5t-20.5 -69t-20 -63l-210 -622q-4 -11 -8.5 -25t-8 -28t-6 -26.5t-2.5 -21.5q0 -34 22.5 -51.5t59.5 -17.5h106v-109h-528v109z"/>
<glyph glyph-name="Mu" horiz-adv-x="1950" unicode="Μ" d="M1237 0v109h20q32 0 56.5 4t40.5 16t24 34.5t8 59.5v1037l-413 -1260h-139l-433 1260v-1018q0 -44 10.5 -70t30 -40t47.5 -18.5t64 -4.5h12v-109h-508v109h86q22 0 41 4t33.5 16.5t22.5 37t8 64.5v998q0 41 -8 65.5t-22.5 37.5t-33.5 17.5t-41 4.5h-86v108h590l340 -989 l326 989h579v-108h-86q-22 0 -41 -4.5t-33 -18.5t-22 -40t-8 -70v-979q0 -44 8 -70t22 -40t33 -18.5t41 -4.5h86v-109h-655z"/>
<glyph glyph-name="Nu" horiz-adv-x="1614" unicode="Ν" d="M1200 0l-799 1128v-886q0 -44 8.5 -70t22.5 -40t33.5 -18.5t40.5 -4.5h86v-109h-535v109h86q22 0 41 4.5t33.5 18.5t22.5 40t8 70v987q0 41 -8.5 65.5t-23 37.5t-33.5 17.5t-40 4.5h-86v108h455l723 -1022v789q0 41 -8.5 65.5t-23 37.5t-33.5 17.5t-40 4.5h-86v108h535 v-108h-86q-21 0 -40 -4.5t-33.5 -18.5t-22.5 -40t-8 -70v-1221h-189z"/>
<glyph glyph-name="Xi" horiz-adv-x="1292" unicode="Ξ" d="M451 942l10 -39q6 -22 12.5 -39.5t21.5 -29.5t42 -18.5t73 -6.5h72q41 0 68 6.5t44.5 19t26.5 30t15 38.5l10 39h106v-391h-106l-10 39q-6 21 -15 38.5t-26.5 30t-44.5 19t-68 6.5h-72q-46 0 -73 -6.5t-42 -18.5t-21.5 -29.5t-12.5 -39.5l-10 -39h-107v391h107z M1165 1022h-127l-8 61q-4 31 -14 59t-29.5 49t-51 33.5t-77.5 12.5h-424q-46 0 -77.5 -12.5t-51 -33.5t-29.5 -49t-14 -59l-8 -61h-127l10 440h1018zM1217 0h-1141l-10 465h127l8 -62q4 -30 14 -58t29.5 -49t51 -33.5t77.5 -12.5h547q46 0 77 12.5t50.5 33.5t30 49t14.5 58 l8 62h127z"/>
<glyph glyph-name="Omicron" horiz-adv-x="1612" unicode="Ο" d="M457 733q0 -147 19 -262t61 -194.5t108.5 -121.5t161.5 -42q96 0 162.5 42t107.5 121.5t59.5 194.5t18.5 262t-18.5 262t-59.5 194.5t-107 121t-161 41.5q-96 0 -163 -41.5t-109 -121t-61 -194.5t-19 -262zM1499 733q0 -169 -45.5 -308t-134 -238t-217 -153t-295.5 -54 q-175 0 -305.5 54t-216.5 153t-129 238.5t-43 309.5t43 308.5t129.5 236.5t217 151.5t306.5 53.5q166 0 294.5 -53.5t216.5 -152t133.5 -237t45.5 -309.5z"/>
<glyph glyph-name="Pi" horiz-adv-x="1657" unicode="Π" d="M893 0v109h88q21 0 40 4.5t33.5 18.5t22.5 40t8 70v1095h-514v-1095q0 -44 8.5 -70t22.5 -40t33 -18.5t41 -4.5h88v-109h-707v109h86q22 0 41 4.5t33.5 18.5t22.5 40t8 70v987q0 41 -8.5 65.5t-23 37.5t-33.5 17.5t-40 4.5h-86v108h1542v-108h-86q-21 0 -40 -4.5 t-33.5 -18.5t-22.5 -40t-8 -70v-990q0 -40 8.5 -64.5t23 -37t33 -16.5t39.5 -4h86v-109h-706z"/>
<glyph glyph-name="Rho" horiz-adv-x="1307" unicode="Ρ" d="M571 678h50q76 0 129 19t86.5 60t49 106t15.5 157q0 82 -13.5 142.5t-43 100t-77 59t-116.5 19.5h-80v-663zM1245 1028q0 -92 -32 -177t-104 -150t-187 -103.5t-281 -38.5h-70v-328q0 -40 9 -64.5t24 -37t35 -16.5t41 -4h125v-109h-748v109h86q23 0 42 4.5t33 18.5t22 40 t8 70v987q0 41 -8 65.5t-22.5 37.5t-33.5 17.5t-41 4.5h-86v108h629q142 0 247 -30t174.5 -86.5t103.5 -136.5t34 -181z"/>
<glyph glyph-name="Sigma" horiz-adv-x="1300" unicode="Σ" d="M887 250q48 0 82 14.5t56.5 40.5t35.5 61.5t18 77.5l8 62h127l-10 -506h-1157v127l422 580l-377 675v80h1022l10 -379h-127l-10 109q-7 68 -47.5 106.5t-132.5 38.5h-393l284 -514v-30l-403 -543h592z"/>
<glyph glyph-name="Tau" horiz-adv-x="1337" unicode="Τ" d="M831 242q0 -44 8 -70t22.5 -40t33.5 -18.5t41 -4.5h86v-109h-707v109h86q23 0 42 4.5t33 18.5t22 40t8 70v1095h-164q-46 0 -77 -10t-50.5 -28.5t-29 -45.5t-13.5 -61l-14 -127h-138l11 397h1276l10 -397h-137l-15 127q-4 34 -13.5 61t-29 45.5t-50.5 28.5t-77 10h-164 v-1095z"/>
<glyph glyph-name="Upsilon" horiz-adv-x="1419" unicode="Υ" d="M336 0v109h96q25 0 46.5 3t37.5 15.5t25.5 37.5t9.5 68v285l-379 727q-15 30 -28.5 51t-29.5 33.5t-36.5 18.5t-50.5 6h-27v108h686v-108h-35q-62 0 -92.5 -25t-30.5 -67q0 -26 9.5 -56.5t21.5 -56.5l152 -301q32 -65 52.5 -115t37.5 -98q21 54 48.5 117.5t61.5 132.5 l119 245q22 45 28.5 75.5t6.5 47.5q0 53 -33.5 77t-101.5 24h-47v108h536v-108h-39q-26 0 -44.5 -7t-35 -25t-34 -49t-41.5 -79l-348 -678v-280q0 -45 9 -70t24.5 -38t36 -16t44.5 -3h101v-109h-756z"/>
<glyph glyph-name="Phi" horiz-adv-x="1741" unicode="Φ" d="M721 274h-64q-110 0 -197 19t-153 52.5t-113 80t-76.5 100.5t-43 113.5t-13.5 120.5q0 100 33 182.5t101 141.5t171 91.5t242 32.5h113v21q0 41 -13.5 65.5t-36 37.5t-53 17.5t-65.5 4.5h-27v108h688v-108h-26q-34 0 -65 -4.5t-53.5 -17.5t-36 -37.5t-13.5 -65.5v-21h113 q140 0 242.5 -32.5t170 -91.5t100.5 -141.5t33 -182.5q0 -61 -13.5 -120.5t-43 -113.5t-76 -100.5t-113 -80t-153.5 -52.5t-197 -19h-63v-41q0 -40 13.5 -64.5t36 -38t53.5 -17.5t65 -4h26v-109h-688v109h27q35 0 65.5 4t53 17.5t36 38t13.5 64.5v41zM721 1087h-86 q-72 0 -122.5 -20t-82 -61.5t-45.5 -104.5t-14 -149q0 -97 16.5 -165.5t51.5 -111.5t90 -62.5t133 -19.5h59v694zM1020 393h59q78 0 133 19.5t90 62.5t51.5 111.5t16.5 165.5q0 86 -14 149t-45.5 104.5t-82 61.5t-122.5 20h-86v-694z"/>
<glyph glyph-name="Chi" horiz-adv-x="1499" unicode="Χ" d="M1071 1294q0 18 -9 30t-24.5 18.5t-36.5 9t-45 2.5h-6v108h480v-108h-19q-30 0 -54 -7.5t-47.5 -25t-47.5 -45.5t-54 -70l-297 -405l377 -584q40 -63 83 -85.5t81 -22.5h27v-109h-676v109h10q123 0 123 67q0 12 -2 23t-9.5 26t-20.5 37t-36 55l-188 285l-221 -299 q-19 -26 -36 -59.5t-17 -65.5q0 -34 28 -51.5t96 -17.5h7v-109h-517v109h13q37 0 65 10t52.5 28.5t47.5 45t48 59.5l358 467l-338 526q-17 27 -33.5 47.5t-37 34t-45.5 20.5t-60 7h-27v108h678v-108h-6q-35 0 -58.5 -4.5t-37.5 -13t-19.5 -19.5t-5.5 -23q0 -21 15.5 -53 t38.5 -67l170 -254l178 249q18 28 36.5 62.5t18.5 62.5z"/>
<glyph glyph-name="Psi" horiz-adv-x="1999" unicode="Ψ" d="M770 487q-115 0 -201 17.5t-148 49t-102.5 75t-64 95t-32.5 109.5t-9 119v254q0 48 -13.5 77.5t-36 45t-53 20.5t-65.5 5v108h467v-483q0 -97 12.5 -167.5t44.5 -116.5t89 -67.5t145 -21.5h45v621q0 41 -13.5 65.5t-36 38.5t-53 18.5t-65.5 4.5h-27v108h688v-108h-26 q-34 0 -65 -4.5t-53.5 -18.5t-36 -38.5t-13.5 -65.5v-621h45q88 0 144.5 21.5t89 67.5t45 116.5t12.5 167.5v483h467v-108q-34 0 -65 -5t-53.5 -20.5t-36 -45t-13.5 -77.5v-254q0 -61 -9 -119t-32.5 -109.5t-64 -95t-102.5 -75t-148 -49t-201 -17.5h-78v-254 q0 -40 13.5 -64.5t36 -38t53.5 -17.5t65 -4h26v-109h-688v109h27q35 0 65.5 4t53 17.5t36 38t13.5 64.5v254h-78z"/>
<glyph glyph-name="alpha" horiz-adv-x="1329" unicode="α" d="M602 133q61 0 101.5 38.5t65 105.5t34.5 158t10 196v76q-11 70 -30 120t-44.5 82t-56.5 47t-64 15q-109 0 -157.5 -106.5t-48.5 -317.5q0 -209 43.5 -311.5t146.5 -102.5zM1137 0q-76 0 -129 14.5t-88 37.5t-54.5 51.5t-27.5 56.5h-13q-23 -39 -52 -72t-67 -57t-86 -37.5 t-108 -13.5q-100 0 -178 33.5t-130.5 103t-80 176.5t-27.5 254q0 148 32.5 256t91.5 178t143 103.5t186 33.5q61 0 109.5 -16t87 -44t66.5 -64.5t48 -78.5h19q17 47 39.5 91.5t62.5 91.5h197q-9 -29 -19 -77t-17.5 -104.5t-12.5 -117t-5 -115.5v-397q0 -90 43.5 -134 t124.5 -44h17v-109h-172z"/>
<glyph glyph-name="beta" horiz-adv-x="1358" unicode="β" d="M748 100q44 0 81 21t64 64.5t42 110t15 157.5q0 81 -13 138.5t-37.5 98.5t-61 68t-84.5 45q-25 -11 -56.5 -19t-74.5 -8q-34 0 -57 20.5t-23 57.5q0 82 104 82q11 0 27.5 -1.5t34.5 -3.5t34 -5t25 -6q65 31 98 100t33 186q0 58 -12.5 105.5t-37.5 81.5t-62 52.5t-85 18.5 q-51 0 -88.5 -19.5t-63 -55.5t-38 -87.5t-12.5 -115.5v-965q19 -23 44.5 -44.5t57 -38.5t68 -27.5t78.5 -10.5zM190 -492v1661q0 115 39.5 193t108.5 126t162 68.5t200 20.5q123 0 215.5 -23t154 -66.5t92 -106t30.5 -140.5q0 -50 -11.5 -92t-30 -76.5t-42.5 -62.5t-49 -49 q-59 -50 -133 -80v-13q71 -23 132 -56.5t106.5 -83t71.5 -116t26 -155.5q0 -119 -32 -208.5t-91.5 -149t-144 -89.5t-189.5 -30q-108 0 -183.5 25t-121.5 67v-564h-310z"/>
<glyph glyph-name="gamma" horiz-adv-x="1176" unicode="γ" d="M221 1118q79 0 136.5 -54t107 -166.5t97 -286.5t106.5 -414q54 64 97.5 145t74 165t47 165t16.5 145q0 63 -27 103.5t-81 54.5q0 68 37 105.5t96 37.5q47 0 77 -17.5t47.5 -45.5t24 -63.5t6.5 -71.5q0 -74 -17 -155.5t-46 -164.5t-67 -163.5t-81.5 -152.5t-89 -131 t-88.5 -100q1 -13 1.5 -30t1 -34.5t1 -34t0.5 -28.5q0 -97 -18.5 -174.5t-51.5 -131.5t-78 -83t-97 -29q-71 0 -103.5 40.5t-32.5 105.5q0 45 10.5 93t27 95.5t38 92t43.5 81.5q-51 198 -98.5 369.5t-94 299t-92 200.5t-92.5 73q-21 0 -42 -7.5t-40 -18.5l-40 84 q26 18 58.5 36t69.5 32.5t76.5 24t79.5 9.5z"/>
<glyph glyph-name="delta" horiz-adv-x="1255" unicode="δ" d="M516 1305q0 -44 14.5 -78.5t46.5 -67.5t82.5 -67t122.5 -78q86 -52 155.5 -106.5t118.5 -116t76 -133.5t27 -160q0 -127 -38.5 -223.5t-108.5 -162t-168.5 -99t-218.5 -33.5q-115 0 -212 30.5t-167.5 89t-110 143.5t-39.5 195q0 106 30.5 183t85.5 132.5t130.5 92.5 t165.5 63q-50 36 -93.5 76t-76 85t-51.5 96.5t-19 111.5q0 72 31.5 126t87 90.5t131.5 54.5t166 18q106 0 180.5 -19t121 -48t68 -65t21.5 -71q0 -72 -55 -109.5t-148 -37.5q0 51 -12.5 94.5t-36.5 74.5t-60 48.5t-83 17.5q-42 0 -73 -12t-51.5 -32.5t-30 -47t-9.5 -55.5z M842 442q0 78 -18 136t-48.5 103t-70.5 81t-84 69q-39 -15 -76 -42.5t-66 -74t-47 -116t-18 -168.5q0 -74 14.5 -133.5t42.5 -101t67.5 -64t90.5 -22.5t90.5 22.5t66.5 65.5t41.5 105t14.5 140z"/>
<glyph glyph-name="epsilon" horiz-adv-x="1096" unicode="ε" d="M420 827q0 -37 8 -71.5t24 -61.5t39 -44t54 -21q43 12 94.5 23.5t99.5 11.5q45 0 72 -18t27 -60q0 -45 -37.5 -74t-100.5 -29q-17 0 -43.5 3.5t-55.5 9t-55.5 12.5t-43.5 14q-51 -15 -81 -66.5t-30 -131.5q0 -94 65 -142.5t187 -48.5q63 0 113.5 13t91 34.5t71.5 49 t54 55.5q18 -10 32.5 -34t14.5 -50q0 -43 -25 -83t-80.5 -70.5t-144.5 -49t-217 -18.5q-121 0 -211 26t-149 70.5t-88 104.5t-29 128q0 62 19.5 104.5t51.5 72t73.5 49t86.5 34.5v11q-46 14 -83 39.5t-63.5 59t-40.5 72.5t-14 80q0 71 32.5 125.5t92 91t144.5 55.5t190 19 q109 0 187.5 -19.5t129.5 -50t75 -69t24 -76.5q0 -65 -69 -94t-212 -29q0 104 -35 163t-106 59q-40 0 -66.5 -14.5t-42.5 -39t-23 -57t-7 -68.5z"/>
<glyph glyph-name="zeta" horiz-adv-x="1020" unicode="ζ" d="M96 418q0 127 33.5 253t95.5 245t151.5 227t201.5 198q-50 6 -103 22.5t-105.5 40.5t-103.5 54t-96 64l74 102q44 -33 92 -62.5t101 -53.5t111.5 -40t123.5 -22q24 20 55 41.5t66 39.5t72 30t75 12q56 0 87.5 -24.5t31.5 -69.5q0 -38 -15.5 -69t-50 -53.5t-88.5 -35 t-131 -12.5h-36.5t-39.5 2q-76 -98 -130 -201.5t-88.5 -209.5t-51 -213t-16.5 -212q0 -84 18 -133t56 -79t97.5 -47.5t143.5 -37.5q121 -28 181.5 -88t60.5 -160q0 -60 -25.5 -115t-78.5 -101t-134 -78.5t-192 -47.5v107q48 12 79.5 27.5t51 35t27.5 42.5t8 50 q0 30 -11 51.5t-39 38t-76 30t-122 28.5q-89 17 -156 48.5t-113 82.5t-69 123t-23 170z"/>
<glyph glyph-name="eta" horiz-adv-x="1346" unicode="η" d="M190 694q0 49 -5 107t-12.5 114t-17 104.5t-18.5 78.5h271q21 -42 35.5 -87.5t25.5 -99.5h8q23 41 52 79.5t67.5 68t88 47.5t114.5 18q90 0 157 -23t111.5 -72t66 -125.5t21.5 -182.5v-862q0 -39 3 -91t8 -103t12 -94t16 -63h-295q-15 19 -25 61t-17 94t-10 107.5 t-3 100.5v825q0 127 -42.5 190.5t-111.5 63.5q-53 0 -89 -26t-58 -75t-31.5 -118.5t-9.5 -157.5v-573h-312v694z"/>
<glyph glyph-name="theta" horiz-adv-x="1255" unicode="θ" d="M631 1434q-53 0 -92.5 -38.5t-66 -112t-41 -181.5t-17.5 -246h428q-2 138 -16 246t-40 181.5t-64.5 112t-90.5 38.5zM629 109q54 0 93 42t65.5 121t40 193.5t14.5 259.5h-428q1 -145 14 -259.5t39.5 -193.5t66.5 -121t95 -42zM1159 774q0 -185 -32.5 -332t-98.5 -250 t-165.5 -157.5t-233.5 -54.5q-141 0 -241.5 55t-165.5 157.5t-95.5 250t-30.5 333.5q0 185 30.5 331.5t95.5 248t166.5 155.5t242.5 54q133 0 232 -54t165 -155.5t98.5 -248.5t32.5 -333z"/>
<glyph glyph-name="iota" horiz-adv-x="805" unicode="ι" d="M500 1098v-762q0 -100 33 -145.5t104 -45.5q37 0 77 4.5t72 10.5v-137q-13 -6 -37.5 -13.5t-58 -14t-74.5 -11t-86 -4.5q-80 0 -143 16.5t-107 53.5t-67 98t-23 149v801h310z"/>
<glyph glyph-name="kappa" horiz-adv-x="1313" unicode="κ" d="M666 723q68 97 124.5 169t109 119.5t104.5 71t112 23.5q74 0 112 -35t38 -98q0 -12 -2 -26.5t-5 -29t-6.5 -27t-7.5 -20.5q-15 16 -45 27.5t-80 11.5q-27 0 -55 -4.5t-58 -18.5t-63 -40t-70 -70l-77 -94l286 -414q114 -159 213 -159h7v-109h-29q-112 0 -188.5 4.5 t-131 22.5t-95 54.5t-79.5 100.5l-162 262l-102 -82v-362h-311v864q0 41 -14.5 65.5t-36.5 38t-47.5 17.5t-47.5 4h-24v109h481v-363q0 -27 -1.5 -67.5t-3.5 -78.5q-3 -44 -5 -91z"/>
<glyph glyph-name="lambda" horiz-adv-x="1167" unicode="λ" d="M575 1106q-24 86 -50.5 145.5t-56 97t-63.5 54t-75 16.5q-32 0 -58.5 -8t-47.5 -20.5t-37.5 -28.5t-28.5 -31q-16 19 -27.5 45.5t-11.5 63.5q0 33 14.5 58.5t40 43t60.5 26.5t77 9q81 0 142.5 -28.5t109 -84.5t83.5 -138.5t67 -190.5l188 -670q30 -105 61 -174 t62.5 -109.5t63.5 -56.5t63 -16h10v-109h-47q-64 0 -114 10.5t-89.5 42.5t-71 93t-57.5 161q-48 184 -75.5 300.5t-30.5 150.5h-6q-5 -25 -17 -62t-27.5 -78t-33.5 -82t-35 -75l-229 -461h-328z"/>
<glyph glyph-name="uni03BC" horiz-adv-x="1362" unicode="μ" d="M573 -20q-85 0 -145 31.5t-100 88.5q0 -85 7 -157t30 -126t66.5 -87.5t115.5 -42.5q0 -39 -13 -71.5t-37.5 -56.5t-59.5 -37.5t-79 -13.5q-38 0 -73 14t-61.5 45.5t-42 83t-15.5 126.5q0 61 3 127.5t7.5 147.5t8.5 181t5 228v637h312v-676q0 -55 7.5 -104t25 -85.5 t47.5 -57.5t75 -21q43 0 77.5 23t59 64.5t37.5 100t13 129.5v627h311v-815q0 -94 34 -134t105 -40h15v-109h-179q-105 0 -172.5 49t-93.5 129h-10q-24 -45 -50.5 -82t-59.5 -62.5t-75 -39.5t-96 -14z"/>
<glyph glyph-name="nu" horiz-adv-x="1186" unicode="ν" d="M1087 920q0 -74 -16.5 -157t-46.5 -169t-71.5 -171.5t-91.5 -163t-106 -144t-116 -115.5h-197q-34 132 -66.5 253.5t-64 227t-63 191.5t-63 147.5t-64 95t-66.5 33.5q-17 0 -39 -7.5t-41 -18.5l-41 86q29 18 64 36t72 32.5t75 23t74 8.5q48 0 88 -17t76 -58t68.5 -108.5 t66.5 -169t70.5 -239.5t79.5 -319q61 68 106 149.5t74.5 163.5t44 158.5t14.5 134.5q0 40 -10 70t-25.5 51t-35.5 33.5t-41 17.5q0 38 11 65t30 44t43.5 25.5t52.5 8.5q41 0 70.5 -17.5t48.5 -45.5t27.5 -63.5t8.5 -71.5z"/>
<glyph glyph-name="xi" horiz-adv-x="1034" unicode="ξ" d="M412 428q0 -65 19 -104.5t57 -65t95 -42t134 -34.5q74 -17 126.5 -39t85.5 -52t48.5 -69t15.5 -90q0 -54 -23 -108t-73 -101.5t-128 -85t-187 -57.5v109q43 12 71.5 28t45.5 35.5t24.5 42t7.5 47.5q0 31 -9.5 52.5t-32.5 37t-60.5 27t-93.5 23.5q-118 24 -201 57t-136 81 t-77.5 113t-24.5 152q0 81 30 153t84.5 133.5t131.5 111.5t172 87v13q-78 9 -141.5 30t-108 52t-68.5 69.5t-24 83.5q0 36 18.5 73t53.5 72.5t85.5 68.5t114.5 61q-89 15 -170.5 48.5t-140.5 78.5l76 102q29 -20 72.5 -41t94 -39.5t104 -33t102.5 -21.5q21 13 49.5 27.5 t62.5 26.5t71.5 20t76.5 8q37 0 62 -6.5t40 -17.5t21 -26t6 -32q0 -63 -67 -99t-214 -36q-23 0 -47.5 1t-52.5 3q-28 -21 -52 -45.5t-41.5 -53t-27.5 -61t-10 -70.5q0 -34 14 -61t37 -48.5t53 -37t62 -25.5q18 9 44.5 18.5t56.5 17t62 12t62 4.5q53 0 79.5 -22t26.5 -56 q0 -21 -8.5 -41.5t-27.5 -37t-49.5 -26.5t-73.5 -10q-24 0 -49 1.5t-47.5 3t-40 3.5t-27.5 4q-42 -18 -82 -56.5t-71 -92t-49.5 -117.5t-18.5 -131z"/>
<glyph glyph-name="omicron" horiz-adv-x="1255" unicode="ο" d="M414 553q0 -109 11.5 -192t37 -139t66.5 -84.5t100 -28.5t99.5 28.5t66 84.5t36.5 139t11 192q0 110 -11.5 192.5t-37 137.5t-66.5 82.5t-100 27.5t-100 -27.5t-66 -82.5t-36 -137.5t-11 -192.5zM1159 553q0 -289 -135.5 -431t-398.5 -142q-123 0 -221 35.5t-166.5 106.5 t-105 179t-36.5 252q0 289 135.5 430t399.5 141q123 0 220.5 -35t166 -106t105 -178.5t36.5 -251.5z"/>
<glyph glyph-name="pi" horiz-adv-x="1368" unicode="π" d="M1311 834h-271q-6 -73 -10 -152t-7 -152.5t-4 -135.5t-1 -101q0 -42 8.5 -70t23 -45.5t34.5 -25t44 -7.5q29 0 57 6.5t48 14.5v-127q-25 -23 -71 -39t-103 -16q-56 0 -99.5 13t-74 41.5t-46.5 74.5t-16 112q0 52 5.5 125t15 155t22 167t25.5 162h-342l-25 -519 q-4 -81 -20 -140t-49 -98t-86 -58t-129 -19h-136v106q32 0 70 12.5t72.5 44t62 84t39.5 132.5l62 455h-95q-59 0 -90 -36.5t-39 -92.5h-120q0 80 19 151.5t59 125t103 85t150 31.5h914v-264z"/>
<glyph glyph-name="rho" horiz-adv-x="1327" unicode="ρ" d="M915 532q0 110 -14 195.5t-43 144.5t-73 90t-103 31t-98 -28t-62.5 -79.5t-33 -124t-9.5 -161.5v-375q50 -52 108 -84t132 -32q44 0 80 22.5t62 72.5t40 130.5t14 197.5zM1231 528q0 -144 -30.5 -248t-87.5 -170.5t-139.5 -98t-187.5 -31.5q-89 0 -167.5 22t-143.5 72 q2 -28 3 -73.5t1 -100.5v-392h-309v1092q0 125 30 222.5t92.5 164.5t158.5 102t227 35q123 0 225 -39.5t174.5 -115t113 -186.5t40.5 -255z"/>
<glyph glyph-name="sigma1" horiz-adv-x="1038" unicode="ς" d="M96 506q0 172 38.5 290t106 191t159.5 105t198 32q99 0 175 -16.5t127 -45.5t77.5 -68.5t26.5 -84.5q0 -33 -11.5 -64.5t-41 -55.5t-81 -39t-131.5 -15q0 53 -6.5 101t-21.5 84t-40.5 57.5t-64.5 21.5q-45 0 -81 -19t-61.5 -69t-39.5 -138t-14 -226q0 -72 19 -120 t57.5 -81t96 -55t134.5 -41q74 -19 126.5 -44t85.5 -58.5t48.5 -77t15.5 -99.5q0 -60 -23 -120t-73 -112.5t-127.5 -94.5t-187.5 -64v109q43 14 71.5 32t46 39.5t24.5 47.5t7 55q0 35 -9.5 59.5t-32.5 41.5t-60.5 30t-93.5 26q-127 29 -211.5 71.5t-135 101t-71.5 136 t-21 177.5z"/>
<glyph glyph-name="sigma" horiz-adv-x="1321" unicode="σ" d="M412 496q0 -90 15.5 -162t45 -123t73 -78t99.5 -27q99 0 153 87t54 268q0 81 -9.5 145t-23.5 113.5t-30.5 86t-30.5 60.5h-31q-65 0 -122.5 -19t-100 -62.5t-67.5 -114t-25 -174.5zM1171 453q0 -109 -34 -196.5t-102 -149t-170 -94.5t-238 -33q-121 0 -219 36.5 t-167.5 105t-107 167.5t-37.5 223q0 116 25 204.5t69.5 153.5t106.5 108.5t136 70t157.5 38t171.5 11.5h528v-232h-336q34 -25 72 -62t70.5 -87.5t53.5 -116t21 -147.5z"/>
<glyph glyph-name="tau" horiz-adv-x="1079" unicode="τ" d="M1014 834h-375q-23 -179 -34 -306.5t-11 -218.5q0 -83 32.5 -123.5t82.5 -40.5q46 0 83.5 7t69.5 18v-141q-37 -23 -89.5 -36t-127.5 -13q-132 0 -193 72.5t-61 203.5q0 61 7.5 125.5t22 135t34 149.5t43.5 168h-183q-45 0 -76.5 -13.5t-51 -37.5t-28.5 -56t-9 -68h-109 q0 121 26 205t67.5 136t92.5 75t101 23h686v-264z"/>
<glyph glyph-name="upsilon" horiz-adv-x="1296" unicode="υ" d="M676 -20q-121 0 -211.5 32t-149.5 91t-88.5 142t-29.5 185v434q0 41 -9 65.5t-26.5 38t-44 17.5t-62.5 4v109h451v-668q0 -80 17 -136.5t48.5 -92t78 -52t104.5 -16.5q77 0 133 32.5t93 91t55 140t18 178.5q0 98 -23.5 166.5t-58.5 113.5t-75.5 69t-74.5 34q0 32 9 60.5 t26.5 49.5t44 33.5t62.5 12.5q52 0 96 -34t75.5 -97.5t49.5 -153.5t18 -202q0 -80 -9.5 -159t-33 -151t-62.5 -133.5t-97.5 -107t-138 -71t-185.5 -25.5z"/>
<glyph glyph-name="phi" horiz-adv-x="1518" unicode="φ" d="M1100 551q0 104 -13.5 182t-46 131.5t-86 83.5t-133.5 37v-876q81 8 134.5 38.5t85.5 85t45.5 134t13.5 184.5zM418 551q0 -105 13.5 -184.5t46 -134t86 -85t134.5 -38.5v878q-81 -7 -135 -37t-86.5 -83.5t-45.5 -132t-13 -183.5zM1421 551q0 -275 -148.5 -416 t-451.5 -153v-474h-123v474q-145 6 -257.5 44t-189 109t-116 174.5t-39.5 241.5q0 273 148.5 413t453.5 152v440h123v-440q144 -6 255.5 -44t188 -108t116.5 -173t40 -240z"/>
<glyph glyph-name="chi" horiz-adv-x="1235" unicode="χ" d="M365 -492h-338l499 902l-155 393q-16 41 -32 71.5t-35 50.5t-42.5 30t-54.5 10q-11 0 -26 -3t-30.5 -8t-30 -10.5t-24.5 -9.5l-37 80q25 18 52.5 34t57.5 28.5t60.5 20t61.5 7.5q43 0 74.5 -11t57 -38t47.5 -72t46 -113l102 -292l252 520h322l-442 -791l176 -475 q15 -42 31 -75t35 -56.5t42 -36t53 -12.5q32 0 58 8.5t45 17.5l39 -86q-54 -35 -106.5 -57t-118.5 -22q-45 0 -77.5 16t-57.5 47t-45.5 77.5t-41.5 106.5l-127 367z"/>
<glyph glyph-name="psi" horiz-adv-x="1470" unicode="ψ" d="M1376 641q0 -116 -24.5 -225.5t-81 -198t-148.5 -149.5t-227 -80v-480h-123v472q-137 1 -244 34.5t-180.5 98.5t-112 161t-38.5 220v370q0 41 -9 65.5t-26.5 38t-44 17.5t-62.5 4v109h451v-621q0 -152 62 -236.5t204 -103.5v1419h123v-1421q79 7 141 42.5t104.5 94 t64.5 138t22 174.5t-17.5 161.5t-43.5 110.5t-56 68t-55 34q0 32 7.5 60.5t22 49.5t37 33.5t52.5 12.5q44 0 81 -38t64 -102.5t42 -150.5t15 -182z"/>
<glyph glyph-name="uni03D1" horiz-adv-x="1413" unicode="ϑ" d="M1245 874q2 -23 3 -52.5t1 -61.5q0 -173 -37.5 -316.5t-114 -246.5t-191.5 -160t-269 -57q-131 0 -221 29.5t-145.5 78.5t-80 113t-24.5 133q0 40 3.5 82.5t8 83t8.5 75.5t4 60q0 43 -19.5 68.5t-74.5 25.5h-65v109h213q139 0 200.5 -45t61.5 -134q0 -34 -4 -78t-8.5 -91 t-8.5 -93t-4 -84q0 -44 9 -81t30.5 -64.5t56 -43t85.5 -15.5q71 0 124 46.5t87.5 131.5t51.5 204.5t17 264.5q0 31 -1 64.5t-3 53.5q-175 3 -301 32t-207 80t-119.5 122t-38.5 158q0 70 28 125.5t80.5 94t129 59t174.5 20.5q130 0 225 -42t161 -118.5t106 -184t61 -237.5 h145v-109h-137zM928 987q-9 105 -29 188.5t-49 141.5t-67 88.5t-83 30.5q-56 0 -93.5 -41.5t-37.5 -126.5q0 -72 29 -125t78 -87.5t114.5 -51.5t137.5 -17z"/>
<glyph glyph-name="uni03D2" horiz-adv-x="1487" unicode="ϒ" d="M877 236q0 -45 9 -70t24.5 -38t36 -16t44.5 -3h101v-109h-756v109h96q25 0 46.5 3t37.5 15.5t25.5 37t9.5 68.5v170q0 62 -17 133.5t-43.5 145.5t-60 146.5t-66 135.5t-61.5 113t-47 80q-26 44 -53.5 80t-56.5 62t-58.5 40.5t-60.5 14.5h-27v108h233q75 0 131 -13 t102 -44.5t84 -84.5t77 -134q34 -72 60 -133t46.5 -115.5t36.5 -105t31 -101.5q15 62 34 125.5t41 124.5t45 118t46 107q38 84 75.5 137t78 82.5t85 40.5t97.5 11q48 0 82.5 -10.5t57 -29t33.5 -43.5t11 -53q0 -60 -30 -97t-87 -46q-8 40 -31.5 70t-66.5 30q-27 0 -52.5 -11 t-51.5 -38.5t-54 -74t-59 -117.5q-15 -34 -34 -80t-39 -99.5t-38.5 -112t-33.5 -116.5t-24 -112.5t-9 -100.5v-200z"/>
<glyph glyph-name="uni03D6" horiz-adv-x="2077" unicode="ϖ" d="M1460 446q0 64 -6 118.5t-16.5 102t-26 88.5t-33.5 79h-653q-18 -38 -32.5 -79.5t-25 -89t-16.5 -103t-6 -120.5q0 -86 15.5 -145t41 -95.5t56.5 -52.5t63 -16q60 0 100 40.5t56 131.5q-15 42 -26 76t-18 63t-10 55.5t-3 55.5q0 82 34 116t99 34t99 -34t34 -116 q0 -29 -3.5 -55t-11 -55t-18 -63t-25.5 -77q16 -90 56 -131t100 -41q31 0 62.5 16t57 53t41 97t15.5 147zM1761 1098q45 0 77 13.5t51.5 37.5t28.5 55.5t9 67.5h109q0 -122 -26 -205.5t-67.5 -135t-92.5 -74.5t-101 -23h-98q56 -85 90.5 -184.5t34.5 -225.5 q0 -109 -27.5 -192t-79 -139t-125.5 -84.5t-166 -28.5q-71 0 -123 15t-90 43t-65 68.5t-49 90.5q-23 -50 -49.5 -90.5t-64 -68.5t-88 -43t-120.5 -15q-93 0 -167 28.5t-125.5 84.5t-79 139t-27.5 192q0 126 33.5 225.5t89.5 184.5h-138q-45 0 -76.5 -13.5t-51 -37.5 t-28.5 -56t-9 -68h-109q0 121 26 205t67.5 136t92.5 75t101 23h1433z"/>
<glyph glyph-name="uni0400" horiz-adv-x="1337" unicode="Ѐ" d="M573 125h410q31 0 53 11.5t38 32.5t25.5 49.5t14.5 62.5l16 96h142l-15 -377h-1200v109h86q22 0 41 4t33.5 16.5t22.5 37t8 64.5v990q0 44 -8 70t-22 40t-33 18.5t-42 4.5h-86v108h1137l8 -377h-143l-10 97q-8 75 -38 115t-93 40h-345v-512h486v-123h-486v-577zM689 1579 q-48 28 -106.5 69.5t-113 85.5t-98.5 84.5t-63 67.5v21h321q16 -34 41 -74.5t52.5 -81t55.5 -78.5t50 -67v-27h-139z"/>
<glyph glyph-name="afii10023" horiz-adv-x="1337" unicode="Ё" d="M573 125h410q31 0 53 11.5t38 32.5t25.5 49.5t14.5 62.5l16 96h142l-15 -377h-1200v109h86q22 0 41 4t33.5 16.5t22.5 37t8 64.5v990q0 44 -8 70t-22 40t-33 18.5t-42 4.5h-86v108h1137l8 -377h-143l-10 97q-8 75 -38 115t-93 40h-345v-512h486v-123h-486v-577zM776 1747 q0 35 10 59.5t27 39.5t39 21.5t47 6.5q23 0 44.5 -6.5t38.5 -21.5t27.5 -39.5t10.5 -59.5q0 -34 -10.5 -58.5t-27.5 -39.5t-38.5 -22t-44.5 -7q-25 0 -47 7t-39 22t-27 39.5t-10 58.5zM356 1747q0 35 10 59.5t26.5 39.5t38.5 21.5t46 6.5t46 -6.5t39 -21.5t27.5 -39.5 t10.5 -59.5q0 -34 -10.5 -58.5t-27.5 -39.5t-39 -22t-46 -7t-46 7t-38.5 22t-26.5 39.5t-10 58.5z"/>
<glyph glyph-name="afii10051" horiz-adv-x="1688" unicode="Ђ" d="M791 838q25 9 59.5 19.5t76.5 19t90 14.5t99 6q119 0 210 -21t153.5 -72t94.5 -136t32 -213q0 -132 -30.5 -220t-88.5 -140t-142 -73.5t-192 -21.5h-55v119h22q39 0 68.5 10t50 42.5t31 93t10.5 161.5t-18 162t-50 93t-76.5 42t-97.5 10q-38 0 -75 -4.5t-69 -12 t-58.5 -16t-44.5 -16.5v-442q0 -44 8 -70t22 -40t33 -18.5t41 -4.5h86v-109h-707v109h86q23 0 42 4.5t33 18.5t22 40t8 70v1095h-123q-46 0 -77 -10t-50.5 -28.5t-29 -45.5t-13.5 -61l-14 -127h-138l11 397h1194l10 -397h-137l-15 127q-4 34 -13.5 61t-29 45.5t-50.5 28.5 t-77 10h-122v-499z"/>
<glyph glyph-name="afii10052" horiz-adv-x="1210" unicode="Ѓ" d="M1176 1462l14 -401h-115l-24 98q-23 89 -68.5 133.5t-128.5 44.5h-281v-1104q0 -40 8.5 -64.5t22.5 -38t33.5 -17.5t40.5 -4h127v-109h-748v109h86q23 0 42 4.5t33 18.5t22 40t8 70v979q0 44 -8 70t-22 40t-33 18.5t-42 4.5h-86v108h1119zM484 1606q22 29 49.5 67 t55.5 78.5t52.5 81t40.5 74.5h322v-21q-19 -27 -63 -67.5t-98.5 -84.5t-113 -85.5t-106.5 -69.5h-139v27z"/>
<glyph glyph-name="afii10053" horiz-adv-x="1368" unicode="Є" d="M870 143q75 0 133.5 17.5t104.5 45.5t80.5 63t60.5 69q16 -12 25.5 -37t9.5 -51q0 -43 -23 -90.5t-77 -87.5t-143 -66t-220 -26q-178 0 -311 54t-221 153t-132 238t-44 308q0 166 45 304t133.5 237t221 154t306.5 55q118 0 205.5 -18.5t145.5 -50.5t87 -75.5t29 -93.5 q0 -38 -16.5 -70.5t-49 -56.5t-80.5 -37.5t-110 -13.5q0 51 -11 101.5t-37.5 91.5t-69.5 66.5t-107 25.5q-92 0 -156.5 -37t-106 -108t-61.5 -174.5t-24 -237.5h481v-123h-481q5 -133 29.5 -232.5t74 -165.5t126 -98.5t183.5 -32.5z"/>
<glyph glyph-name="afii10054" horiz-adv-x="1200" unicode="Ѕ" d="M541 -20q-138 0 -230 26t-147.5 67t-79 92t-23.5 101q0 53 19.5 89t52 59t74 33t86.5 10q0 -88 21 -154.5t58 -111t88.5 -67t112.5 -22.5q60 0 107 17t80 47t50 70.5t17 87.5q0 52 -21 92.5t-63.5 75t-107 66t-150.5 67.5q-107 44 -180.5 90.5t-118.5 100.5t-64.5 117 t-19.5 138q0 94 38 170t105 130t159 83t200 29q113 0 195 -18.5t135.5 -50.5t79.5 -75.5t26 -93.5q0 -36 -15.5 -67t-47 -54t-79 -36t-110.5 -13q0 43 -11.5 92.5t-37.5 92t-67.5 70.5t-100.5 28q-41 0 -78 -12t-64.5 -36t-43.5 -59.5t-16 -81.5q0 -43 14 -81t51.5 -74.5 t103 -73t169.5 -78.5q105 -43 179 -88t121.5 -96.5t69 -113t21.5 -136.5q0 -99 -39 -181.5t-112 -141.5t-175.5 -92t-230.5 -33z"/>
<glyph glyph-name="afii10055" horiz-adv-x="821" unicode="І" d="M57 0v109h86q23 0 42 4.5t33 18.5t22 40t8 70v978q0 44 -8 70t-22 40t-33 18.5t-42 4.5h-86v109h707v-109h-86q-22 0 -41.5 -4.5t-33.5 -18.5t-22 -40t-8 -70v-978q0 -44 8 -70t22 -40t33.5 -18.5t41.5 -4.5h86v-109h-707z"/>
<glyph glyph-name="afii10056" horiz-adv-x="821" unicode="Ї" d="M57 0v109h86q23 0 42 4.5t33 18.5t22 40t8 70v978q0 44 -8 70t-22 40t-33 18.5t-42 4.5h-86v109h707v-109h-86q-22 0 -41.5 -4.5t-33.5 -18.5t-22 -40t-8 -70v-978q0 -44 8 -70t22 -40t33.5 -18.5t41.5 -4.5h86v-109h-707zM499 1747q0 35 10 59.5t27 39.5t39 21.5t47 6.5 q23 0 44.5 -6.5t38.5 -21.5t27.5 -39.5t10.5 -59.5q0 -34 -10.5 -58.5t-27.5 -39.5t-38.5 -22t-44.5 -7q-25 0 -47 7t-39 22t-27 39.5t-10 58.5zM79 1747q0 35 10 59.5t26.5 39.5t38.5 21.5t46 6.5t46 -6.5t39 -21.5t27.5 -39.5t10.5 -59.5q0 -34 -10.5 -58.5t-27.5 -39.5 t-39 -22t-46 -7t-46 7t-38.5 22t-26.5 39.5t-10 58.5z"/>
<glyph glyph-name="afii10057" horiz-adv-x="754" unicode="Ј" d="M731 1354h-86q-22 0 -41.5 -4.5t-33.5 -18.5t-22.5 -40t-8.5 -70v-1225q0 -93 -21 -165t-58 -126.5t-88.5 -92t-112 -60.5t-128 -33.5t-137.5 -10.5h-74v119h37q49 0 95.5 18.5t82.5 61.5t58 113.5t22 173.5v1235q0 41 -8 65.5t-22.5 37.5t-33.5 17.5t-40 4.5h-86v108 h706v-108z"/>
<glyph glyph-name="afii10058" horiz-adv-x="1956" unicode="Љ" d="M1241 121h80q62 0 105.5 17.5t70.5 52.5t39 88t12 124q0 82 -14 139.5t-44 93.5t-77.5 52.5t-114.5 16.5h-57v-584zM651 1354q-6 -128 -18 -269t-30.5 -279.5t-42.5 -266t-54 -228.5q-28 -94 -63.5 -156.5t-78 -100t-93 -53t-107.5 -15.5q-74 0 -119 39.5t-45 113.5 q0 31 8.5 56.5t22.5 43.5t32 27.5t37 9.5q0 -40 25 -68t65 -28q34 0 62.5 12.5t53.5 42.5t46.5 81.5t42.5 129.5q18 66 33 147t27.5 165t22 166.5t16 152t9.5 121t3 74.5q0 28 -13 44.5t-35.5 25t-52 10.5t-63.5 2h-31v108h1164v-108h-125q-56 0 -82.5 -27.5t-26.5 -95.5 v-408h109q147 0 250 -30t168.5 -84t95.5 -129.5t30 -165.5q0 -92 -33.5 -168.5t-102 -131t-173 -84.5t-246.5 -30h-612v109h86q31 0 51 7.5t32 23.5t17 42t5 62v1110h-267z"/>
<glyph glyph-name="afii10059" horiz-adv-x="2081" unicode="Њ" d="M1366 121h80q62 0 105.5 17.5t70.5 52.5t39 88t12 124q0 82 -14 139.5t-44 93.5t-77.5 52.5t-114.5 16.5h-57v-584zM1559 1462v-108h-84q-56 0 -82.5 -27.5t-26.5 -95.5v-408h109q147 0 250 -30t168.5 -84t95.5 -129.5t30 -165.5q0 -92 -33.5 -168.5t-102 -131 t-173 -84.5t-246.5 -30h-592v109h66q31 0 51 7.5t32 23.5t16.5 42t4.5 62v456h-471v-458q0 -44 8.5 -70t22.5 -40t33 -18.5t41 -4.5h67v-109h-686v109h86q22 0 41 4.5t33.5 18.5t22.5 40t8 70v987q0 41 -8.5 65.5t-23 37.5t-33.5 17.5t-40 4.5h-86v108h686v-108h-67 q-22 0 -41 -4.5t-33 -18.5t-22.5 -40t-8.5 -70v-396h471v396q0 42 -7.5 68t-21 40.5t-32.5 19.5t-43 5h-66v108h687z"/>
<glyph glyph-name="afii10060" horiz-adv-x="1812" unicode="Ћ" d="M1090 0v109h86q22 0 41 4.5t33 18.5t22 40t8 70v198q0 79 -13.5 134.5t-42.5 91t-75 51.5t-111 16q-38 0 -75 -4.5t-69 -12t-58.5 -16t-44.5 -16.5v-442q0 -44 8 -70t22 -40t33 -18.5t41 -4.5h86v-109h-707v109h86q23 0 42 4.5t33 18.5t22 40t8 70v1095h-123 q-46 0 -77 -10t-50.5 -28.5t-29 -45.5t-13.5 -61l-14 -127h-138l11 397h1194l10 -397h-137l-15 127q-4 34 -13.5 61t-29 45.5t-50.5 28.5t-77 10h-122v-503q25 9 61.5 20t82.5 20.5t100.5 16t115.5 6.5q105 0 189.5 -21t143.5 -72t90.5 -136t31.5 -213v-213q0 -44 8 -70 t22 -40t33 -18.5t41 -4.5h66v-109h-686z"/>
<glyph glyph-name="afii10061" horiz-adv-x="1475" unicode="Ќ" d="M1329 0q-79 0 -137.5 12.5t-102 37.5t-75.5 61t-58 84l-194 354q-25 45 -46 70t-44.5 38t-52 16t-68.5 3v-434q0 -44 8.5 -70t22.5 -40t33.5 -18.5t41.5 -4.5h86v-109h-686v109h86q22 0 41 4t33.5 16.5t22.5 37t8 64.5v998q0 41 -8 65.5t-22.5 37.5t-33.5 17.5t-41 4.5 h-86v108h686v-108h-86q-22 0 -41.5 -4.5t-33.5 -18.5t-22.5 -40t-8.5 -70v-428q34 0 58.5 3t44 9.5t35.5 18t32 28.5q28 29 73 102.5t101 186.5q45 90 84.5 153.5t82 103.5t91.5 58.5t111 18.5q86 0 123.5 -36.5t37.5 -92.5q0 -63 -27 -103t-73 -49q-4 21 -13 40t-23 33.5 t-33.5 23.5t-45.5 9q-31 0 -56.5 -12.5t-49.5 -39.5t-49.5 -70t-57.5 -105q-34 -64 -60 -111t-49 -80.5t-45 -57.5t-46 -42q45 0 86 -14t76.5 -39t65.5 -60.5t54 -78.5l166 -297q28 -49 53 -84t51 -57t53.5 -32.5t59.5 -10.5h13v-109h-146zM662 1606q22 29 49.5 67 t55.5 78.5t52.5 81t40.5 74.5h322v-21q-19 -27 -63 -67.5t-98.5 -84.5t-113 -85.5t-106.5 -69.5h-139v27z"/>
<glyph glyph-name="uni040D" horiz-adv-x="1677" unicode="Ѝ" d="M1106 1010l-535 -686v-82q0 -44 8.5 -70t22.5 -40t33 -18.5t41 -4.5h88v-109h-707v109h86q22 0 41 4.5t33.5 18.5t22.5 40t8 70v987q0 41 -8.5 65.5t-23 37.5t-33.5 17.5t-40 4.5h-86v108h707v-108h-88q-22 0 -41 -4.5t-33 -18.5t-22.5 -40t-8.5 -70v-721l535 686v35 q0 44 -8 70t-22.5 40t-33.5 18.5t-41 4.5h-88v108h707v-108h-86q-21 0 -40 -4.5t-33.5 -18.5t-22.5 -40t-8 -70v-990q0 -40 8.5 -64.5t23 -37t33 -16.5t39.5 -4h86v-109h-707v109h88q22 0 41 4.5t33.5 18.5t22.5 40t8 70v768zM836 1579q-48 28 -106.5 69.5t-113 85.5 t-98.5 84.5t-63 67.5v21h321q16 -34 41 -74.5t52.5 -81t55.5 -78.5t50 -67v-27h-139z"/>
<glyph glyph-name="afii10062" horiz-adv-x="1421" unicode="Ў" d="M1421 1354h-39q-30 0 -50.5 -7t-37.5 -25t-32.5 -49t-34.5 -79l-299 -770q-34 -87 -64.5 -152.5t-64.5 -113t-74.5 -78t-92.5 -48.5t-119.5 -25t-156.5 -7h-127v119h90q52 0 104.5 9.5t98.5 28.5t81 47t52 66l-483 975q-15 30 -28 51t-29.5 33.5t-37 18.5t-50.5 6h-27 v108h702v-108h-73q-53 0 -82 -19t-29 -65q0 -29 9.5 -57t25.5 -60l156 -330q17 -36 35.5 -76t35 -80.5t29.5 -79.5t20 -73q13 42 28.5 86.5t37.5 101.5l149 410q19 50 29 87t10 54q0 53 -33.5 77t-101.5 24h-43v108h516v-108zM734 1692q88 0 135.5 50t58.5 157h256 q-6 -62 -25.5 -120t-67.5 -102.5t-133.5 -71t-223.5 -26.5t-223.5 26.5t-134 71t-68 102.5t-25.5 120h256q11 -107 59 -157t136 -50z"/>
<glyph glyph-name="afii10145" horiz-adv-x="1657" unicode="Џ" d="M1599 1462v-108h-86q-21 0 -39.5 -4t-33 -17t-23 -37t-8.5 -65v-989q0 -44 8 -70t22.5 -40t33.5 -18.5t40 -4.5h86v-109h-483q-55 0 -96 -24.5t-68.5 -77t-41 -133.5t-13.5 -195h-135q0 111 -16 192.5t-46 134t-72.5 78t-95.5 25.5h-475v109h86q21 0 40 4t33.5 17.5 t23 38t8.5 64.5v988q0 44 -8 70t-22.5 40t-33.5 18.5t-41 4.5h-86v108h707v-108h-88q-22 0 -41 -4.5t-33 -18.5t-22.5 -40t-8.5 -70v-1096h514v1096q0 44 -8 70t-22.5 40t-33.5 18.5t-40 4.5h-88v108h706z"/>
<glyph glyph-name="afii10017" horiz-adv-x="1542" unicode="А" d="M795 942q-11 35 -22.5 73.5t-23 78.5t-22 79.5t-18.5 75.5q-9 -31 -21 -68t-25.5 -76l-27 -78t-25.5 -75l-121 -346h414zM446 481l-59 -176q-8 -25 -16.5 -58.5t-8.5 -58.5q0 -20 8 -35t21 -24.5t29.5 -14.5t34.5 -5h86v-109h-533v109h25q27 0 49.5 6t42 22.5t37 45.5 t35.5 75l444 1204h281l428 -1206q15 -43 31.5 -71.5t36 -45t41.5 -23.5t46 -7h37v-109h-676v109h80q15 0 31 4.5t28.5 14t20.5 24.5t8 36q0 25 -6 48t-12 40l-72 205h-498z"/>
<glyph glyph-name="afii10018" horiz-adv-x="1333" unicode="Б" d="M598 121h100q62 0 105.5 17.5t70.5 52.5t39.5 88t12.5 124q0 82 -14 139.5t-44 93.5t-77.5 52.5t-114.5 16.5h-78v-584zM1184 1462l10 -397h-137l-15 127q-4 34 -13.5 61t-29 45.5t-50.5 28.5t-77 10h-274v-514h129q147 0 250.5 -30t169 -84t95.5 -129.5t30 -165.5 q0 -92 -33.5 -168.5t-102 -131t-173 -84.5t-246.5 -30h-633v109h86q31 0 51 7.5t32 23.5t16.5 42t4.5 62v977q0 42 -7.5 68t-21 40.5t-32.5 19.5t-43 5h-86v108h1100z"/>
<glyph glyph-name="afii10019" horiz-adv-x="1376" unicode="В" d="M571 827h78q72 0 119.5 15t76 46.5t40.5 81.5t12 120t-13.5 117t-43.5 76t-78 41.5t-117 12.5h-74v-510zM571 125h136q68 0 116 15t78 48.5t43.5 87.5t13.5 132q0 75 -12 130.5t-41 91.5t-76 54t-118 18h-140v-577zM1241 1090q0 -68 -18.5 -118.5t-52.5 -87t-81.5 -62.5 t-105.5 -44v-10q71 -18 129.5 -49.5t101 -77t66 -105.5t23.5 -135q0 -202 -147 -301.5t-439 -99.5h-660v109h84q23 0 42.5 4.5t33.5 18.5t22.5 40t8.5 70v981q0 41 -8.5 66.5t-23 39.5t-34 19.5t-41.5 5.5h-84v108h598q292 0 439 -90t147 -282z"/>
<glyph glyph-name="afii10020" horiz-adv-x="1210" unicode="Г" d="M1176 1462l14 -401h-115l-24 98q-23 89 -68.5 133.5t-128.5 44.5h-281v-1104q0 -40 8.5 -64.5t22.5 -38t33.5 -17.5t40.5 -4h127v-109h-748v109h86q23 0 42 4.5t33 18.5t22 40t8 70v979q0 44 -8 70t-22 40t-33 18.5t-42 4.5h-86v108h1119z"/>
<glyph glyph-name="afii10021" horiz-adv-x="1450" unicode="Д" d="M141 125q75 147 144 299.5t122 300.5t85 287t32 258q0 28 -15 45t-40 25.5t-57 11t-66 2.5h-6v108h1020v-108h-27q-29 0 -54.5 -4.5t-45.5 -19t-31.5 -41.5t-11.5 -72v-945q0 -48 13.5 -77t36 -44.5t53 -20.5t65.5 -5h41v-555h-135q0 114 -14.5 195t-46 133.5t-81.5 77 t-121 24.5h-587q-71 0 -120.5 -24.5t-81 -77t-46 -133.5t-14.5 -195h-136v555h125zM672 1337q0 -101 -16.5 -207t-44.5 -213.5t-64.5 -214t-78 -208t-84.5 -195t-83 -174.5h565v1212h-194z"/>
<glyph glyph-name="afii10022" horiz-adv-x="1337" unicode="Е" d="M573 125h410q31 0 53 11.5t38 32.5t25.5 49.5t14.5 62.5l16 96h142l-15 -377h-1200v109h86q22 0 41 4t33.5 16.5t22.5 37t8 64.5v990q0 44 -8 70t-22 40t-33 18.5t-42 4.5h-86v108h1137l8 -377h-143l-10 97q-8 75 -38 115t-93 40h-345v-512h486v-123h-486v-577z"/>
<glyph glyph-name="afii10024" horiz-adv-x="2130" unicode="Ж" d="M924 1229q0 41 -8 65.5t-22.5 37.5t-33.5 17.5t-41 4.5h-86v108h666v-108h-86q-22 0 -42 -4.5t-34 -18.5t-22.5 -40t-8.5 -70v-428q34 0 58.5 3t44 9.5t35.5 18t32 28.5q28 29 73.5 102.5t100.5 186.5q45 90 84.5 153.5t82 103.5t91.5 58.5t111 18.5q43 0 74 -9.5 t50.5 -27t28.5 -41t9 -51.5q0 -63 -27 -103t-74 -49q-4 21 -13 40t-22.5 33.5t-33 23.5t-45.5 9q-31 0 -56.5 -12.5t-49.5 -39.5t-49.5 -70t-57.5 -105q-34 -64 -60 -111t-49.5 -80.5t-45 -57.5t-46.5 -42q45 0 86 -14t77 -39t66 -60.5t54 -78.5l166 -297q27 -49 52.5 -84 t51 -57t53.5 -32.5t60 -10.5h12v-109h-145q-79 0 -134.5 12.5t-95 37.5t-68.5 61t-55 84l-194 354q-25 45 -49 70t-51.5 38t-59.5 16t-72 3v-434q0 -44 8.5 -70t22.5 -40t34 -18.5t42 -4.5h86v-109h-666v109h86q22 0 41 4t33.5 16.5t22.5 37t8 64.5v445q-40 0 -72 -3 t-59.5 -16t-51.5 -38t-49 -70l-194 -354q-26 -48 -55 -84t-68.5 -61t-95 -37.5t-134.5 -12.5h-145v109h12q32 0 60 10.5t53.5 32.5t51 57t52.5 84l166 297q24 43 54 78.5t66 60.5t77 39t86 14q-25 18 -46.5 42t-45 57.5t-49.5 80.5t-60 111q-32 62 -57.5 105t-49.5 70 t-49 39.5t-57 12.5q-26 0 -45.5 -9t-33 -23.5t-22 -33.5t-13.5 -40q-47 9 -74 49t-27 103q0 28 9 51.5t28.5 41t50.5 27t74 9.5q62 0 111 -18.5t91.5 -58.5t82 -103.5t84.5 -153.5q55 -113 100.5 -186.5t73.5 -102.5q16 -17 32 -28.5t35.5 -18t44 -9.5t58.5 -3v436z"/>
<glyph glyph-name="afii10025" horiz-adv-x="1264" unicode="З" d="M586 -23q-135 0 -231.5 25.5t-159 68t-92 98t-29.5 114.5q0 81 54 129.5t163 48.5q9 -80 31 -145t58.5 -111t89 -71t122.5 -25q132 0 207 71.5t75 225.5q0 68 -20 121.5t-63.5 90t-111 55.5t-161.5 19h-188v127h184q155 0 233 74t78 225q0 57 -12 101.5t-38.5 75.5 t-68 47t-100.5 16q-65 0 -108 -26t-68.5 -70t-36 -101.5t-10.5 -120.5q-56 0 -105 7t-85 26t-57 52t-21 85q0 55 34 104.5t98 87t155.5 59.5t205.5 22q117 0 214.5 -20t168 -62t109.5 -106.5t39 -153.5q0 -80 -26.5 -142.5t-71.5 -109t-105.5 -77t-128.5 -46.5 q57 -6 123.5 -25.5t124.5 -59.5t96.5 -104t38.5 -159q0 -119 -48 -202.5t-130.5 -136.5t-192.5 -77.5t-233 -24.5z"/>
<glyph glyph-name="afii10026" horiz-adv-x="1677" unicode="И" d="M1106 1010l-535 -686v-82q0 -44 8.5 -70t22.5 -40t33 -18.5t41 -4.5h88v-109h-707v109h86q22 0 41 4.5t33.5 18.5t22.5 40t8 70v987q0 41 -8.5 65.5t-23 37.5t-33.5 17.5t-40 4.5h-86v108h707v-108h-88q-22 0 -41 -4.5t-33 -18.5t-22.5 -40t-8.5 -70v-721l535 686v35 q0 44 -8 70t-22.5 40t-33.5 18.5t-41 4.5h-88v108h707v-108h-86q-21 0 -40 -4.5t-33.5 -18.5t-22.5 -40t-8 -70v-990q0 -40 8.5 -64.5t23 -37t33 -16.5t39.5 -4h86v-109h-707v109h88q22 0 41 4.5t33.5 18.5t22.5 40t8 70v768z"/>
<glyph glyph-name="afii10027" horiz-adv-x="1677" unicode="Й" d="M1106 1010l-535 -686v-82q0 -44 8.5 -70t22.5 -40t33 -18.5t41 -4.5h88v-109h-707v109h86q22 0 41 4.5t33.5 18.5t22.5 40t8 70v987q0 41 -8.5 65.5t-23 37.5t-33.5 17.5t-40 4.5h-86v108h707v-108h-88q-22 0 -41 -4.5t-33 -18.5t-22.5 -40t-8.5 -70v-721l535 686v35 q0 44 -8 70t-22.5 40t-33.5 18.5t-41 4.5h-88v108h707v-108h-86q-21 0 -40 -4.5t-33.5 -18.5t-22.5 -40t-8 -70v-990q0 -40 8.5 -64.5t23 -37t33 -16.5t39.5 -4h86v-109h-707v109h88q22 0 41 4.5t33.5 18.5t22.5 40t8 70v768zM834 1692q88 0 135.5 50t58.5 157h256 q-6 -62 -25.5 -120t-67.5 -102.5t-133.5 -71t-223.5 -26.5t-223.5 26.5t-134 71t-68 102.5t-25.5 120h256q11 -107 59 -157t136 -50z"/>
<glyph glyph-name="afii10028" horiz-adv-x="1475" unicode="К" d="M1329 0q-79 0 -137.5 12.5t-102 37.5t-75.5 61t-58 84l-194 354q-25 45 -46 70t-44.5 38t-52 16t-68.5 3v-434q0 -44 8.5 -70t22.5 -40t33.5 -18.5t41.5 -4.5h86v-109h-686v109h86q22 0 41 4t33.5 16.5t22.5 37t8 64.5v998q0 41 -8 65.5t-22.5 37.5t-33.5 17.5t-41 4.5 h-86v108h686v-108h-86q-22 0 -41.5 -4.5t-33.5 -18.5t-22.5 -40t-8.5 -70v-428q34 0 58.5 3t44 9.5t35.5 18t32 28.5q28 29 73 102.5t101 186.5q45 90 84.5 153.5t82 103.5t91.5 58.5t111 18.5q86 0 123.5 -36.5t37.5 -92.5q0 -63 -27 -103t-73 -49q-4 21 -13 40t-23 33.5 t-33.5 23.5t-45.5 9q-31 0 -56.5 -12.5t-49.5 -39.5t-49.5 -70t-57.5 -105q-34 -64 -60 -111t-49 -80.5t-45 -57.5t-46 -42q45 0 86 -14t76.5 -39t65.5 -60.5t54 -78.5l166 -297q28 -49 53 -84t51 -57t53.5 -32.5t59.5 -10.5h13v-109h-146z"/>
<glyph glyph-name="afii10029" horiz-adv-x="1489" unicode="Л" d="M725 0v109h88q21 0 40.5 4.5t33.5 18.5t22.5 40t8.5 70v1112h-267q-6 -128 -18 -269t-30.5 -280t-42.5 -267t-54 -229q-28 -94 -63.5 -156t-78 -99t-93 -52.5t-107.5 -15.5q-74 0 -119 39.5t-45 113.5q0 31 8.5 56.5t22.5 43.5t32 27.5t37 9.5q0 -40 25 -68t65 -28 q34 0 62.5 12.5t53.5 42.5t46.5 81.5t42.5 129.5q18 66 33 147t27.5 165t22 166.5t16 152t9.5 121t3 74.5q0 28 -13 44.5t-35.5 25t-52 10.5t-63.5 2h-31v108h1121v-108h-86q-22 0 -41 -4.5t-33.5 -18.5t-22.5 -40.5t-8 -69.5v-990q0 -41 8.5 -65t23 -36.5t33.5 -16.5t40 -4 h86v-109h-707z"/>
<glyph glyph-name="afii10030" horiz-adv-x="1950" unicode="М" d="M1237 0v109h20q32 0 56.5 4t40.5 16t24 34.5t8 59.5v1037l-413 -1260h-139l-433 1260v-1018q0 -44 10.5 -70t30 -40t47.5 -18.5t64 -4.5h12v-109h-508v109h86q22 0 41 4t33.5 16.5t22.5 37t8 64.5v998q0 41 -8 65.5t-22.5 37.5t-33.5 17.5t-41 4.5h-86v108h590l340 -989 l326 989h579v-108h-86q-22 0 -41 -4.5t-33 -18.5t-22 -40t-8 -70v-979q0 -44 8 -70t22 -40t33 -18.5t41 -4.5h86v-109h-655z"/>
<glyph glyph-name="afii10031" horiz-adv-x="1677" unicode="Н" d="M913 0v109h88q22 0 41 4.5t33.5 18.5t22.5 40t8 70v458h-535v-458q0 -44 8.5 -70t22.5 -40t33 -18.5t41 -4.5h88v-109h-707v109h86q22 0 41 4.5t33.5 18.5t22.5 40t8 70v986q0 41 -8.5 65.5t-23 37.5t-33.5 17.5t-40 4.5h-86v109h707v-109h-88q-22 0 -41 -4.5t-33 -18.5 t-22.5 -40t-8.5 -70v-395h535v395q0 44 -8 70t-22.5 40t-33.5 18.5t-41 4.5h-88v109h707v-109h-86q-21 0 -40 -4.5t-33.5 -18.5t-22.5 -40t-8 -70v-989q0 -40 8.5 -64.5t23 -37t33 -16.5t39.5 -4h86v-109h-707z"/>
<glyph glyph-name="afii10032" horiz-adv-x="1612" unicode="О" d="M457 733q0 -147 19 -262t61 -194.5t108.5 -121.5t161.5 -42q96 0 162.5 42t107.5 121.5t59.5 194.5t18.5 262t-18.5 262t-59.5 194.5t-107 121t-161 41.5q-96 0 -163 -41.5t-109 -121t-61 -194.5t-19 -262zM1499 733q0 -169 -45.5 -308t-134 -238t-217 -153t-295.5 -54 q-175 0 -305.5 54t-216.5 153t-129 238.5t-43 309.5t43 308.5t129.5 236.5t217 151.5t306.5 53.5q166 0 294.5 -53.5t216.5 -152t133.5 -237t45.5 -309.5z"/>
<glyph glyph-name="afii10033" horiz-adv-x="1657" unicode="П" d="M893 0v109h88q21 0 40 4.5t33.5 18.5t22.5 40t8 70v1095h-514v-1095q0 -44 8.5 -70t22.5 -40t33 -18.5t41 -4.5h88v-109h-707v109h86q22 0 41 4.5t33.5 18.5t22.5 40t8 70v987q0 41 -8.5 65.5t-23 37.5t-33.5 17.5t-40 4.5h-86v108h1542v-108h-86q-21 0 -40 -4.5 t-33.5 -18.5t-22.5 -40t-8 -70v-990q0 -40 8.5 -64.5t23 -37t33 -16.5t39.5 -4h86v-109h-706z"/>
<glyph glyph-name="afii10034" horiz-adv-x="1307" unicode="Р" d="M571 678h50q76 0 129 19t86.5 60t49 106t15.5 157q0 82 -13.5 142.5t-43 100t-77 59t-116.5 19.5h-80v-663zM1245 1028q0 -92 -32 -177t-104 -150t-187 -103.5t-281 -38.5h-70v-328q0 -40 9 -64.5t24 -37t35 -16.5t41 -4h125v-109h-748v109h86q23 0 42 4.5t33 18.5t22 40 t8 70v987q0 41 -8 65.5t-22.5 37.5t-33.5 17.5t-41 4.5h-86v108h629q142 0 247 -30t174.5 -86.5t103.5 -136.5t34 -181z"/>
<glyph glyph-name="afii10035" horiz-adv-x="1368" unicode="С" d="M870 143q75 0 133.5 17.5t104.5 45.5t80.5 63t60.5 69q16 -12 25.5 -37t9.5 -51q0 -43 -23 -90.5t-77 -87.5t-143 -66t-220 -26q-178 0 -311 54t-221 153t-132 238t-44 308q0 166 45 304t133.5 237t221 154t306.5 55q118 0 205.5 -18.5t145.5 -50.5t87 -75.5t29 -93.5 q0 -38 -16.5 -70.5t-49 -56.5t-80.5 -37.5t-110 -13.5q0 51 -11 101.5t-37.5 91.5t-69.5 66.5t-107 25.5q-97 0 -164 -41t-107.5 -120t-58.5 -194.5t-18 -263.5t22 -259t71 -184.5t127.5 -110t192.5 -36.5z"/>
<glyph glyph-name="afii10036" horiz-adv-x="1337" unicode="Т" d="M831 242q0 -44 8 -70t22.5 -40t33.5 -18.5t41 -4.5h86v-109h-707v109h86q23 0 42 4.5t33 18.5t22 40t8 70v1095h-164q-46 0 -77 -10t-50.5 -28.5t-29 -45.5t-13.5 -61l-14 -127h-138l11 397h1276l10 -397h-137l-15 127q-4 34 -13.5 61t-29 45.5t-50.5 28.5t-77 10h-164 v-1095z"/>
<glyph glyph-name="afii10037" horiz-adv-x="1421" unicode="У" d="M1421 1354h-39q-30 0 -50.5 -7t-37.5 -25t-32.5 -49t-34.5 -79l-299 -770q-34 -87 -64.5 -152.5t-64.5 -113t-74.5 -78t-92.5 -48.5t-119.5 -25t-156.5 -7h-127v119h90q52 0 104.5 9.5t98.5 28.5t81 47t52 66l-483 975q-15 30 -28 51t-29.5 33.5t-37 18.5t-50.5 6h-27 v108h702v-108h-73q-53 0 -82 -19t-29 -65q0 -29 9.5 -57t25.5 -60l156 -330q17 -36 35.5 -76t35 -80.5t29.5 -79.5t20 -73q13 42 28.5 86.5t37.5 101.5l149 410q19 50 29 87t10 54q0 53 -33.5 77t-101.5 24h-43v108h516v-108z"/>
<glyph glyph-name="afii10038" horiz-adv-x="1741" unicode="Ф" d="M721 274h-64q-110 0 -197 19t-153 52.5t-113 80t-76.5 100.5t-43 113.5t-13.5 120.5q0 100 33 182.5t101 141.5t171 91.5t242 32.5h113v21q0 41 -13.5 65.5t-36 37.5t-53 17.5t-65.5 4.5h-27v108h688v-108h-26q-34 0 -65 -4.5t-53.5 -17.5t-36 -37.5t-13.5 -65.5v-21h113 q140 0 242.5 -32.5t170 -91.5t100.5 -141.5t33 -182.5q0 -61 -13.5 -120.5t-43 -113.5t-76 -100.5t-113 -80t-153.5 -52.5t-197 -19h-63v-41q0 -40 13.5 -64.5t36 -38t53.5 -17.5t65 -4h26v-109h-688v109h27q35 0 65.5 4t53 17.5t36 38t13.5 64.5v41zM721 1087h-86 q-72 0 -122.5 -20t-82 -61.5t-45.5 -104.5t-14 -149q0 -97 16.5 -165.5t51.5 -111.5t90 -62.5t133 -19.5h59v694zM1020 393h59q78 0 133 19.5t90 62.5t51.5 111.5t16.5 165.5q0 86 -14 149t-45.5 104.5t-82 61.5t-122.5 20h-86v-694z"/>
<glyph glyph-name="afii10039" horiz-adv-x="1499" unicode="Х" d="M1071 1294q0 18 -9 30t-24.5 18.5t-36.5 9t-45 2.5h-6v108h480v-108h-19q-30 0 -54 -7.5t-47.5 -25t-47.5 -45.5t-54 -70l-297 -405l377 -584q40 -63 83 -85.5t81 -22.5h27v-109h-676v109h10q123 0 123 67q0 12 -2 23t-9.5 26t-20.5 37t-36 55l-188 285l-221 -299 q-19 -26 -36 -59.5t-17 -65.5q0 -34 28 -51.5t96 -17.5h7v-109h-517v109h13q37 0 65 10t52.5 28.5t47.5 45t48 59.5l358 467l-338 526q-17 27 -33.5 47.5t-37 34t-45.5 20.5t-60 7h-27v108h678v-108h-6q-35 0 -58.5 -4.5t-37.5 -13t-19.5 -19.5t-5.5 -23q0 -21 15.5 -53 t38.5 -67l170 -254l178 249q18 28 36.5 62.5t18.5 62.5z"/>
<glyph glyph-name="afii10040" horiz-adv-x="1669" unicode="Ц" d="M1606 -430h-136q0 114 -14.5 195t-46 133.5t-81 77t-120.5 24.5h-1151v109h86q21 0 40 4t33.5 17.5t23 38t8.5 64.5v988q0 44 -8 70t-22.5 40t-33.5 18.5t-41 4.5h-86v108h707v-108h-88q-22 0 -41 -4.5t-33 -18.5t-22.5 -40t-8.5 -70v-1096h514v1096q0 44 -8 70t-22.5 40 t-33.5 18.5t-40 4.5h-88v108h706v-108h-86q-21 0 -39.5 -4t-33 -17t-23 -37t-8.5 -65v-1106h197v-555z"/>
<glyph glyph-name="afii10041" horiz-adv-x="1597" unicode="Ч" d="M1350 242q0 -44 8 -70t22 -40t33 -18.5t41 -4.5h86v-109h-706v109h86q22 0 41 4.5t33 18.5t22 40t8 70v352q-26 -11 -61.5 -23.5t-81 -23.5t-101 -18t-121.5 -7q-103 0 -186.5 21.5t-142 72.5t-90 136.5t-31.5 212.5v256q0 44 -8 70t-22 40t-33 18.5t-42 4.5h-65v108h686 v-108h-86q-22 0 -41 -4.5t-33 -18.5t-22 -40t-8 -70v-250q0 -81 14 -136t43 -88t74.5 -47t109.5 -14q39 0 76 5t69 12t58.5 16t44.5 16v486q0 44 -8 70t-22 40t-33 18.5t-41 4.5h-86v108h706v-108h-86q-22 0 -41 -4.5t-33 -18.5t-22 -40t-8 -70v-979z"/>
<glyph glyph-name="afii10042" horiz-adv-x="2331" unicode="Ш" d="M57 0v109h86q21 0 40 4t33.5 17.5t23 38t8.5 64.5v988q0 44 -8 70t-22.5 40t-33.5 18.5t-41 4.5h-86v108h674v-108h-67q-22 0 -41 -4.5t-33 -18.5t-22.5 -40t-8.5 -70v-1096h451v1096q0 44 -8 70t-22.5 40t-33.5 18.5t-41 4.5h-67v108h653v-108h-66q-21 0 -39.5 -4 t-33 -17t-23 -37t-8.5 -65v-1106h451v1096q0 44 -8.5 70t-22.5 40t-33.5 18.5t-40.5 4.5h-68v108h674v-108h-86q-21 0 -40 -4.5t-33.5 -18.5t-22.5 -40t-8 -70v-988q0 -40 8.5 -64.5t23 -38t33 -17.5t39.5 -4h86v-109h-2216z"/>
<glyph glyph-name="afii10043" horiz-adv-x="2343" unicode="Щ" d="M2083 125h196v-555h-135q0 111 -13.5 192.5t-43.5 134t-77 78t-114 25.5h-1839v109h86q21 0 40 4t33.5 17.5t23 38t8.5 64.5v988q0 44 -8 70t-22.5 40t-33.5 18.5t-41 4.5h-86v108h674v-108h-67q-22 0 -41 -4.5t-33 -18.5t-22.5 -40t-8.5 -70v-1096h451v1096q0 44 -8 70 t-22.5 40t-33.5 18.5t-41 4.5h-67v108h653v-108h-66q-21 0 -39.5 -4t-33 -17t-23 -37t-8.5 -65v-1106h451v1096q0 44 -8.5 70t-22.5 40t-33.5 18.5t-40.5 4.5h-68v108h674v-108h-86q-21 0 -40 -4.5t-33.5 -18.5t-22.5 -40t-8 -70v-1096z"/>
<glyph glyph-name="afii10044" horiz-adv-x="1524" unicode="Ъ" d="M788 121h101q62 0 105.5 17.5t70.5 52.5t39 88t12 124q0 82 -14 139.5t-44 93.5t-77.5 52.5t-114.5 16.5h-78v-584zM1022 1462v-108h-125q-56 0 -82.5 -27.5t-26.5 -95.5v-408h130q147 0 250 -30t168.5 -84t95.5 -129.5t30 -165.5q0 -92 -33.5 -168.5t-102 -131 t-173 -84.5t-246.5 -30h-633v109h86q31 0 51 7.5t32 23.5t17 42t5 62v1093h-123q-46 0 -77 -10t-50.5 -28.5t-29 -45.5t-13.5 -61l-14 -127h-138l11 397h991z"/>
<glyph glyph-name="afii10045" horiz-adv-x="2023" unicode="Ы" d="M1260 0v109h86q22 0 41 4.5t33 18.5t22 40t8 70v979q0 44 -8 70t-22 40t-33 18.5t-41 4.5h-86v108h706v-108h-86q-22 0 -41 -4.5t-33 -18.5t-22 -40t-8 -70v-979q0 -44 8 -70t22 -40t33 -18.5t41 -4.5h86v-109h-706zM571 121h80q62 0 105.5 17.5t70.5 52.5t39.5 88 t12.5 124q0 82 -14 139.5t-44 93.5t-77.5 52.5t-114.5 16.5h-58v-584zM805 1462v-108h-125q-56 0 -82.5 -27.5t-26.5 -95.5v-408h109q147 0 250.5 -30t169 -84t95.5 -129.5t30 -165.5q0 -92 -33.5 -168.5t-102 -131t-173 -84.5t-246.5 -30h-613v109h86q31 0 51 7.5t32 23.5 t17 42t5 62v977q0 42 -7.5 68t-21 40.5t-33 19.5t-43.5 5h-86v108h748z"/>
<glyph glyph-name="afii10046" horiz-adv-x="1307" unicode="Ь" d="M571 121h101q62 0 105.5 17.5t70.5 52.5t39 88t12 124q0 82 -14 139.5t-44 93.5t-77.5 52.5t-114.5 16.5h-78v-584zM805 1462v-108h-125q-56 0 -82.5 -27.5t-26.5 -95.5v-408h129q147 0 250.5 -30t169 -84t95.5 -129.5t30 -165.5q0 -92 -33.5 -168.5t-102 -131 t-173 -84.5t-246.5 -30h-633v109h86q31 0 51 7.5t32 23.5t17 42t5 62v977q0 42 -7.5 68t-21 40.5t-33 19.5t-43.5 5h-86v108h748z"/>
<glyph glyph-name="afii10047" horiz-adv-x="1397" unicode="Э" d="M596 1483q177 0 306.5 -54.5t214 -151.5t126 -229.5t41.5 -289.5q0 -179 -46 -323t-134 -245t-215 -155.5t-289 -54.5q-144 0 -244 26t-162.5 70t-90 100.5t-27.5 118.5q0 80 56 126t153 46q9 -77 32 -142t62 -112.5t94 -74.5t129 -27q82 0 144 42t104 116.5t64.5 177.5 t25.5 225h-481v123h481q-3 133 -22 237t-58 175t-101.5 108t-152.5 37q-62 0 -107 -27t-74 -69.5t-42.5 -95t-13.5 -103.5q-58 0 -105.5 11.5t-81.5 33.5t-52.5 54.5t-18.5 74.5q0 49 29 94.5t89 80.5t151 56t216 21z"/>
<glyph glyph-name="afii10048" horiz-adv-x="2277" unicode="Ю" d="M1204 733q0 -147 16.5 -262t53.5 -194.5t96 -121.5t143 -42q85 0 143.5 42t95 121.5t53 194.5t16.5 262t-16.5 262t-52.5 194.5t-94 121t-142 41.5q-85 0 -144.5 -41.5t-97 -121t-54 -194.5t-16.5 -262zM2165 733q0 -169 -43 -308t-126 -238t-204.5 -153t-278.5 -54 q-161 0 -282 51t-202 145.5t-123 227.5t-46 296h-289v-458q0 -44 8.5 -70t22.5 -40t33 -18.5t41 -4.5h88v-109h-707v109h86q22 0 41 4.5t33.5 18.5t22.5 40t8 70v987q0 41 -8.5 65.5t-23 37.5t-33.5 17.5t-40 4.5h-86v108h707v-108h-88q-22 0 -41 -4.5t-33 -18.5t-22.5 -40 t-8.5 -70v-396h291q10 151 55.5 273t126.5 208t199 132.5t273 46.5q156 0 276.5 -53.5t203.5 -152t126 -237t43 -309.5z"/>
<glyph glyph-name="afii10049" horiz-adv-x="1446" unicode="Я" d="M874 1341h-110q-68 0 -116 -15.5t-78 -50t-44 -88.5t-14 -132q0 -75 12 -131.5t41 -94t76.5 -56.5t118.5 -19h114v587zM1389 0h-707v109h88q21 0 39.5 4t33 16.5t23 37t8.5 64.5v404h-153l-205 -410q-37 -73 -78.5 -117.5t-95.5 -68.5t-123.5 -31.5t-161.5 -7.5h-67v109 h8q59 0 111.5 38.5t101.5 128.5l225 416q-51 21 -99.5 54t-86 81t-60 111.5t-22.5 144.5q0 185 135.5 282t425.5 97h660v-108h-86q-21 0 -40 -4.5t-33.5 -17.5t-23 -37.5t-8.5 -65.5v-998q0 -40 8.5 -64.5t23 -37t33.5 -16.5t40 -4h86v-109z"/>
<glyph glyph-name="afii10065" horiz-adv-x="1227" unicode="а" d="M592 999q-39 0 -65.5 -16.5t-42.5 -46t-22.5 -70t-6.5 -88.5q-138 0 -207.5 31t-69.5 106q0 56 33.5 96t91 65t134 36.5t163.5 11.5q108 0 188.5 -18.5t134 -59.5t80.5 -107.5t27 -162.5v-522q0 -42 6.5 -70t20.5 -44.5t38 -23.5t58 -7h8v-109h-381l-43 141h-18 q-34 -41 -64 -71.5t-64 -50.5t-76.5 -29.5t-100.5 -9.5q-68 0 -126.5 20t-102 61.5t-68.5 104t-25 147.5q0 167 114.5 247t344.5 87l168 6v113q0 51 -4 94t-17 74t-38.5 48t-67.5 17zM410 305q0 -88 28 -132t88 -44q44 0 79.5 18.5t61 52.5t39 82.5t13.5 108.5v154l-92 -6 q-61 -3 -103 -19.5t-67 -45.5t-36 -71t-11 -98z"/>
<glyph glyph-name="afii10066" horiz-adv-x="1255" unicode="б" d="M842 520q0 102 -11.5 179.5t-37 129t-67.5 77.5t-103 26q-62 0 -102.5 -26t-64 -77.5t-33 -129t-9.5 -179.5q0 -202 49.5 -306.5t159.5 -104.5q61 0 103 26.5t67.5 78.5t37 129t11.5 177zM98 653q0 116 9 221t31.5 195.5t62 165t100.5 130t146 90.5t200 46q76 8 141 13.5 t115.5 13.5t84 19.5t46.5 31.5h96q-3 -103 -36 -163.5t-95 -94t-152.5 -50t-209.5 -32.5q-84 -7 -145 -18t-103.5 -30.5t-70 -48.5t-43.5 -71.5t-23.5 -100.5t-11.5 -134h8q18 47 52 88t83 71.5t112.5 48t141.5 17.5q261 0 391.5 -135.5t130.5 -403.5q0 -131 -32.5 -232 t-98.5 -170t-167 -104.5t-238 -35.5q-260 0 -392.5 165t-132.5 508z"/>
<glyph glyph-name="afii10067" horiz-adv-x="1272" unicode="в" d="M821 813q0 40 -8.5 71.5t-28.5 53t-52 32.5t-79 11h-137v-356h137q92 0 130 50t38 138zM662 117q52 0 89 9t61 31.5t35 62t11 99.5q0 54 -13.5 90t-40 57.5t-65 30.5t-88.5 9h-135v-389h146zM35 109h24q23 0 48.5 4.5t47 18.5t36 40t14.5 70v622q0 41 -14.5 65.5 t-36.5 38t-47.5 17.5t-47.5 4h-24v109h645q229 0 338.5 -67t109.5 -195q0 -61 -18 -107t-49.5 -78t-75.5 -50.5t-96 -25.5v-10q59 -5 112.5 -22t94 -48.5t64.5 -78t24 -111.5q0 -67 -26 -123.5t-80.5 -96.5t-138 -62.5t-198.5 -22.5h-706v109z"/>
<glyph glyph-name="afii10068" horiz-adv-x="1040" unicode="г" d="M516 242q0 -44 13.5 -70t33.5 -40t43.5 -18.5t44.5 -4.5h45v-109h-661v109h24q23 0 48.5 4.5t47 18.5t36 40t14.5 70v614q0 44 -14.5 70t-36 40t-47 18.5t-48.5 4.5h-24v109h964v-348h-141l-10 88q-5 48 -15 76.5t-26.5 43.5t-41.5 19t-60 4h-189v-739z"/>
<glyph glyph-name="afii10069" horiz-adv-x="1280" unicode="д" d="M733 981h-219q-17 -198 -46.5 -352t-61.5 -262q-14 -46 -26 -82.5t-23 -66t-22.5 -54t-23.5 -47.5h422v864zM1204 1098v-109h-24q-22 0 -48 -4.5t-47.5 -18.5t-36 -40t-14.5 -70v-631q0 -36 12 -58.5t32.5 -35t47.5 -17t56 -5.5h47v-539h-142l-10 149q-5 77 -23.5 130.5 t-45 87t-58.5 48.5t-65 15h-508q-48 0 -83.5 -15t-59.5 -48.5t-37.5 -87t-18.5 -130.5l-10 -149h-141v547h141q29 48 61.5 123.5t63.5 183.5q16 57 31 118t26 120.5t18 113t7 94.5q0 38 -13.5 61.5t-36.5 36t-53.5 17t-64.5 4.5h-8v109h1005z"/>
<glyph glyph-name="afii10070" horiz-adv-x="1169" unicode="е" d="M627 -20q-130 0 -229.5 38t-166.5 110t-101 176.5t-34 238.5q0 144 34 253t99 182t159.5 109.5t215.5 36.5q111 0 200 -31.5t151 -93.5t95 -154t33 -214v-105h-671q3 -103 22.5 -177t54 -122t84 -71t113.5 -23q53 0 98 12.5t81.5 35t64 53t45.5 65.5q55 -30 55 -100 q0 -44 -24 -83.5t-74 -69.5t-125.5 -48t-179.5 -18zM608 991q-86 0 -136.5 -85t-55.5 -249h354q0 78 -9 140t-28.5 105t-50 66t-74.5 23z"/>
<glyph glyph-name="afii10072" horiz-adv-x="1888" unicode="ж" d="M649 109h4q23 0 48.5 4.5t47 18.5t36 40t14.5 70v276q-32 0 -56.5 -4.5t-45 -18.5t-39.5 -39t-42 -67l-104 -194q-34 -64 -73.5 -102.5t-89.5 -59t-114.5 -27t-148.5 -6.5h-86v109h6q35 0 61.5 5.5t50 20.5t45 42t46.5 69l113 192q27 46 57 78t62 53t65.5 32t66.5 15 q-17 14 -33 30.5t-34 38.5t-39 51.5t-47 68.5q-28 41 -50.5 70.5t-42 48.5t-37.5 28t-36 9q-45 0 -69.5 -29t-32.5 -76q-25 2 -47 12t-38.5 26.5t-26 39.5t-9.5 51q0 24 8.5 46.5t29 40t54 28t84.5 10.5q61 0 104.5 -16.5t78 -46.5t64.5 -73t64 -97q51 -79 83 -127.5 t56 -73.5q23 -23 54 -34t88 -11v225q0 44 -14.5 70t-36 40t-47 18.5t-48.5 4.5h-4v109h580v-109h-4q-21 0 -44.5 -4.5t-44 -18.5t-33.5 -40t-13 -70v-225q56 0 87 11t54 34q25 25 56.5 73.5t82.5 127.5q34 54 64 97t65 73t78.5 46.5t103.5 16.5q51 0 85 -10.5t54.5 -28 t29 -40t8.5 -46.5q0 -28 -10 -51t-26.5 -39.5t-38.5 -26.5t-46 -12q-8 47 -33 76t-70 29q-18 0 -36 -9t-37.5 -28t-42 -48.5t-50.5 -70.5q-26 -39 -46.5 -68.5t-38.5 -51.5t-34.5 -38.5t-33.5 -30.5q33 -4 66.5 -15t65.5 -32t62.5 -53t57.5 -78l112 -192q25 -42 47 -69 t45 -42t50 -20.5t61 -5.5h6v-109h-86q-84 0 -148.5 6.5t-114.5 27t-89 59t-74 102.5l-104 194q-22 42 -41.5 67t-40 39t-44.5 18.5t-56 4.5v-276q0 -44 13 -70t33.5 -40t44 -18.5t44.5 -4.5h4v-109h-580v109z"/>
<glyph glyph-name="afii10073" horiz-adv-x="1083" unicode="з" d="M496 94q50 0 86 16t59 44.5t34 67t11 83.5q0 99 -57 150t-180 51h-138v131h140q57 0 95.5 15.5t62 42.5t33 62t9.5 74q0 37 -7.5 69t-24 55.5t-43.5 37t-66 13.5q-47 0 -78.5 -20.5t-51 -54.5t-28 -77.5t-8.5 -89.5q-63 0 -105 10.5t-66.5 29.5t-35 46t-10.5 61 q0 36 19.5 73.5t65 68t121 50t187.5 19.5q106 0 189 -17.5t140 -52t86.5 -85t29.5 -115.5q0 -49 -16.5 -92.5t-47 -78.5t-74.5 -61t-98 -40v-11q131 -24 201.5 -85t70.5 -171q0 -76 -32.5 -137t-96 -104t-158 -66.5t-218.5 -23.5q-120 0 -201.5 18.5t-131.5 50.5t-71.5 74 t-21.5 90q0 75 47.5 116.5t154.5 41.5q0 -59 15 -110t43.5 -88.5t70.5 -59t95 -21.5z"/>
<glyph glyph-name="afii10074" horiz-adv-x="1415" unicode="и" d="M1210 242q0 -44 14.5 -70t36 -40t47.5 -18.5t48 -4.5h24v-109h-620v109h4q21 0 44.5 4.5t43.5 18.5t33.5 40t13.5 70v440l-383 -420v-20q0 -44 13.5 -70t33.5 -40t43.5 -18.5t44.5 -4.5h4v-109h-620v109h24q23 0 48.5 4.5t47 18.5t36 40t14.5 70v614q0 44 -14.5 70 t-36 40t-47 18.5t-48.5 4.5h-24v109h620v-109h-4q-21 0 -44.5 -4.5t-43.5 -18.5t-33.5 -40t-13.5 -70v-436l383 420v16q0 44 -13.5 70t-33.5 40t-43.5 18.5t-44.5 4.5h-4v109h620v-109h-24q-22 0 -48 -4.5t-47.5 -18.5t-36 -40t-14.5 -70v-614z"/>
<glyph glyph-name="afii10075" horiz-adv-x="1415" unicode="й" d="M1210 242q0 -44 14.5 -70t36 -40t47.5 -18.5t48 -4.5h24v-109h-620v109h4q21 0 44.5 4.5t43.5 18.5t33.5 40t13.5 70v440l-383 -420v-20q0 -44 13.5 -70t33.5 -40t43.5 -18.5t44.5 -4.5h4v-109h-620v109h24q23 0 48.5 4.5t47 18.5t36 40t14.5 70v614q0 44 -14.5 70 t-36 40t-47 18.5t-48.5 4.5h-24v109h620v-109h-4q-21 0 -44.5 -4.5t-43.5 -18.5t-33.5 -40t-13.5 -70v-436l383 420v16q0 44 -13.5 70t-33.5 40t-43.5 18.5t-44.5 4.5h-4v109h620v-109h-24q-22 0 -48 -4.5t-47.5 -18.5t-36 -40t-14.5 -70v-614zM707 1354q88 0 135.5 50 t58.5 157h256q-6 -62 -25.5 -120t-67.5 -102.5t-133.5 -71t-223.5 -26.5t-223.5 26.5t-134 71t-68 102.5t-25.5 120h256q11 -107 59 -157t136 -50z"/>
<glyph glyph-name="afii10076" horiz-adv-x="1315" unicode="к" d="M35 109h24q23 0 48.5 4.5t47 18.5t36 40t14.5 70v614q0 44 -14.5 70t-36 40t-47 18.5t-48.5 4.5h-24v109h620v-109h-4q-21 0 -44.5 -4.5t-43.5 -18.5t-33.5 -40t-13.5 -70v-225q50 0 81 11t54 34q25 25 57 73.5t83 127.5q34 54 65 97t66.5 73t80 46.5t105.5 16.5 q51 0 84.5 -10.5t54 -28t29 -40t8.5 -46.5q0 -28 -9.5 -51t-26 -39.5t-38.5 -26.5t-47 -12q-8 47 -32.5 76t-69.5 29q-18 0 -36 -9t-37.5 -28t-42 -48.5t-50.5 -70.5q-26 -39 -47 -68.5t-39 -51.5t-34.5 -38.5t-33.5 -30.5q33 -4 66.5 -15t66 -32t62.5 -53t57 -78l113 -192 q24 -42 46 -69t45.5 -42t50.5 -20.5t61 -5.5h6v-109h-86q-84 0 -151.5 6.5t-121.5 27t-96.5 59t-77.5 102.5l-104 194q-22 42 -40 67t-36 39t-38 18.5t-48 4.5v-276q0 -44 13.5 -70t33.5 -40t43.5 -18.5t44.5 -4.5h4v-109h-620v109z"/>
<glyph glyph-name="afii10077" horiz-adv-x="1354" unicode="л" d="M471 862q0 41 -12.5 66t-34 38.5t-50.5 18t-63 4.5h-26v109h1034v-109h-25q-22 0 -47.5 -4.5t-47 -18.5t-36 -40t-14.5 -70v-614q0 -44 14.5 -70t36 -40t47 -18.5t47.5 -4.5h25v-109h-641v109h24q21 0 45 4.5t44 18.5t33.5 40t13.5 70v739h-232q-20 -190 -51 -358 t-70 -306q-27 -94 -57.5 -157.5t-68 -102t-83.5 -55t-104 -16.5q-82 0 -127 37.5t-45 105.5q0 34 10.5 59t27 41.5t36.5 24.5t39 8q0 -37 22.5 -63.5t63.5 -26.5q24 0 47.5 6.5t48 33.5t49.5 82t51 152q12 42 25 98t24.5 114t19 112t7.5 92z"/>
<glyph glyph-name="afii10078" horiz-adv-x="1767" unicode="м" d="M35 0v109h24q23 0 48.5 4.5t47 18.5t36 40t14.5 70v614q0 44 -14.5 70t-36 40t-47 18.5t-48.5 4.5h-24v109h536l303 -686l310 686h549v-109h-27q-34 0 -64.5 -4.5t-53.5 -18.5t-36.5 -41.5t-13.5 -72.5v-606q0 -45 13.5 -72.5t36.5 -41.5t53.5 -18.5t64.5 -4.5h27v-109 h-664v109h6q34 0 64.5 4.5t53.5 18.5t36.5 41.5t13.5 72.5v631h-14l-398 -877h-94l-387 877h-14v-631q0 -45 13.5 -72.5t36.5 -41.5t53.5 -18.5t64.5 -4.5h6v-109h-475z"/>
<glyph glyph-name="afii10079" horiz-adv-x="1415" unicode="н" d="M1210 242q0 -44 14.5 -70t36 -40t47.5 -18.5t48 -4.5h24v-109h-620v109h4q21 0 44.5 4.5t43.5 18.5t33.5 40t13.5 70v264h-383v-264q0 -44 13.5 -70t33.5 -40t43.5 -18.5t44.5 -4.5h4v-109h-620v109h24q23 0 48.5 4.5t47 18.5t36 40t14.5 70v614q0 44 -14.5 70t-36 40 t-47 18.5t-48.5 4.5h-24v109h620v-109h-4q-21 0 -44.5 -4.5t-43.5 -18.5t-33.5 -40t-13.5 -70v-233h383v233q0 44 -13.5 70t-33.5 40t-43.5 18.5t-44.5 4.5h-4v109h620v-109h-24q-22 0 -48 -4.5t-47.5 -18.5t-36 -40t-14.5 -70v-614z"/>
<glyph glyph-name="afii10080" horiz-adv-x="1255" unicode="о" d="M414 553q0 -109 11.5 -192t37 -139t66.5 -84.5t100 -28.5t99.5 28.5t66 84.5t36.5 139t11 192q0 110 -11.5 192.5t-37 137.5t-66.5 82.5t-100 27.5t-100 -27.5t-66 -82.5t-36 -137.5t-11 -192.5zM1159 553q0 -289 -135.5 -431t-398.5 -142q-123 0 -221 35.5t-166.5 106.5 t-105 179t-36.5 252q0 289 135.5 430t399.5 141q123 0 220.5 -35t166 -106t105 -178.5t36.5 -251.5z"/>
<glyph glyph-name="afii10081" horiz-adv-x="1374" unicode="п" d="M1339 109v-109h-620v109h4q21 0 44.5 4.5t43.5 18.5t33.5 40t13.5 70v739h-342v-739q0 -44 13.5 -70t33.5 -40t43.5 -18.5t44.5 -4.5h4v-109h-620v109h24q23 0 48.5 4.5t47 18.5t36 40t14.5 70v622q0 41 -14.5 65.5t-36.5 38t-47.5 17.5t-47.5 4h-24v109h1304v-109h-24 q-22 0 -47.5 -4t-47.5 -17.5t-36.5 -38t-14.5 -65.5v-622q0 -44 14.5 -70t36 -40t47.5 -18.5t48 -4.5h24z"/>
<glyph glyph-name="afii10082" horiz-adv-x="1321" unicode="р" d="M717 127q103 0 147.5 103.5t44.5 312.5q0 204 -44.5 313t-145.5 109q-61 0 -102 -27.5t-65 -81t-34 -132t-10 -179.5q0 -106 10 -184.5t34 -130.5t64 -77.5t101 -25.5zM51 -383q23 0 48.5 4.5t47 18.5t36 40t14.5 70v1096q0 47 -10.5 75t-29 43t-44 20t-54.5 5h-14v109 h401l37 -160h9q22 40 51.5 73t68 57t86.5 37t107 13q102 0 180.5 -33.5t131.5 -104t80.5 -178.5t27.5 -257q0 -148 -27 -255.5t-79.5 -177.5t-129 -103.5t-176.5 -33.5q-117 0 -190 44.5t-117 119.5h-14q4 -47 8 -92q3 -38 5.5 -81t2.5 -75v-141q0 -44 14.5 -70t36 -40 t47 -18.5t47.5 -4.5h45v-109h-671v109h24z"/>
<glyph glyph-name="afii10083" horiz-adv-x="1079" unicode="с" d="M604 -20q-113 0 -206.5 29t-160.5 96t-104 175t-37 265q0 166 38.5 277t106 178t159.5 95.5t198 28.5q99 0 175 -16.5t127 -45.5t77.5 -68.5t26.5 -84.5q0 -33 -11.5 -64.5t-41 -55.5t-81 -39t-131.5 -15q0 53 -6.5 101t-21.5 84t-40.5 57.5t-64.5 21.5 q-45 0 -80.5 -21.5t-61 -73.5t-39 -139t-13.5 -218q0 -208 57 -311t186 -103q53 0 99.5 12.5t84.5 35t66.5 53t46.5 65.5q25 -15 37 -40.5t12 -53.5q0 -39 -23 -79t-71.5 -72.5t-123.5 -53t-179 -20.5z"/>
<glyph glyph-name="afii10084" horiz-adv-x="1161" unicode="т" d="M1108 1098l12 -350h-141l-8 67q-6 48 -14.5 80t-22 51t-32.5 27t-48 8h-117v-735q0 -41 11 -67.5t30 -42t44 -21.5t52 -6h23v-109h-641v109h23q30 0 56.5 6t46.5 21.5t32 42t12 67.5v735h-119q-28 0 -47.5 -8t-33 -27t-22 -51t-14.5 -80l-8 -67h-141l12 350h1055z"/>
<glyph glyph-name="afii10085" horiz-adv-x="1186" unicode="у" d="M1186 1098v-109q-31 0 -54.5 -7t-42.5 -24.5t-35 -46t-32 -71.5q-36 -102 -75 -208t-78.5 -212.5t-79 -212t-76.5 -207.5q-36 -99 -68 -174t-67.5 -130t-78.5 -91t-100 -57.5t-132.5 -30.5t-176.5 -9h-35v119q107 0 182 26t127 74t85.5 115t58.5 148l-369 901 q-12 29 -27 46t-32 26t-37 11.5t-43 2.5v121h584v-109q-60 0 -94.5 -15.5t-34.5 -60.5q0 -17 7 -40.5t13 -38.5q18 -43 37.5 -93.5t38 -101t35.5 -97.5t30 -83q15 -39 25 -70.5t16.5 -57t10.5 -47t6 -42.5q2 21 8 46.5t13 49t14 42t10 26.5l135 401q4 10 7.5 23.5t6.5 27.5 t4.5 27t1.5 22q0 47 -39 64.5t-110 17.5v109h461z"/>
<glyph glyph-name="afii10086" horiz-adv-x="1681" unicode="ф" d="M1278 551q0 186 -71 295t-216 129v-854q147 20 217 130.5t70 299.5zM403 551q0 -189 71.5 -300.5t221.5 -131.5v856q-151 -19 -222 -126.5t-71 -297.5zM551 -383q22 0 47.5 4t47 17.5t36 39.5t14.5 70v242q-137 7 -248 48.5t-189 113.5t-120.5 172.5t-42.5 226.5 q0 125 40 225t116.5 171t188 112t255.5 49v215q0 41 -14.5 65.5t-36.5 38t-47.5 17.5t-46.5 4h-25v108h465v-450q136 -9 246 -50t187 -112t119 -170t42 -223q0 -126 -40 -226.5t-116 -172.5t-186.5 -113.5t-251.5 -48.5v-242q0 -44 14.5 -70t36 -39.5t47.5 -17.5t48 -4h24 v-109h-635v109h25z"/>
<glyph glyph-name="afii10087" horiz-adv-x="1323" unicode="х" d="M891 928q0 37 -28.5 49t-76.5 12h-6v109h473v-109h-18q-30 0 -53.5 -5.5t-47 -20t-48.5 -40t-58 -65.5l-211 -258l301 -383q47 -59 86.5 -83.5t77.5 -24.5h27v-109h-652v109h11q123 0 123 67q0 12 -3 24t-11 28t-23.5 37.5t-40.5 51.5l-117 142l-143 -178 q-19 -25 -31 -51t-12 -52q0 -34 29 -51.5t98 -17.5h6v-109h-520v109h18q37 0 65 6.5t52.5 21.5t49.5 40t56 63l258 311l-258 330q-43 54 -86 81t-90 27h-27v109h644v-109h-7q-35 0 -57.5 -4.5t-35.5 -12.5t-18 -19t-5 -23q0 -22 11 -42.5t36 -51.5l114 -140l97 117 q24 31 37.5 59t13.5 56z"/>
<glyph glyph-name="afii10088" horiz-adv-x="1405" unicode="ц" d="M1339 1098v-109h-24q-22 0 -48 -4.5t-47.5 -18.5t-36 -40t-14.5 -70v-631q0 -36 12 -58.5t32.5 -35t47.5 -17t56 -5.5h47v-539h-141l-11 149q-5 77 -23.5 130.5t-45 87t-58.5 48.5t-65 15h-985v109h24q22 0 47.5 4t47.5 17.5t36.5 38t14.5 64.5v623q0 44 -14.5 70t-36 40 t-47 18.5t-48.5 4.5h-24v109h610v-109h-4q-21 0 -44.5 -4.5t-43.5 -18.5t-33.5 -40t-13.5 -70v-739h362v747q0 41 -13.5 65.5t-34 38t-44 17.5t-43.5 4h-4v109h610z"/>
<glyph glyph-name="afii10089" horiz-adv-x="1395" unicode="ч" d="M684 0v109h35q34 0 63 4.5t50.5 18.5t34 41.5t12.5 72.5v260q-51 -31 -97.5 -56t-93.5 -43t-98 -28t-111 -10q-70 0 -125 19.5t-93 55.5t-57.5 85.5t-19.5 109.5v211q0 75 -39.5 107t-105.5 32h-6v109h602v-109h-4q-23 0 -47 -5t-43.5 -20t-32 -42t-12.5 -70v-182 q0 -72 33 -103.5t98 -31.5q32 0 60 4.5t57.5 15t62 27t72.5 39.5v229q0 42 -11 68.5t-29.5 42.5t-43 22t-52.5 6h-4v109h621v-109h-23q-30 0 -56.5 -6t-47 -21t-32 -41.5t-11.5 -68.5v-606q0 -42 11.5 -68.5t32 -41.5t47 -21t56.5 -6h23v-109h-676z"/>
<glyph glyph-name="afii10090" horiz-adv-x="2038" unicode="ш" d="M729 1098h580v-109h-4q-21 0 -45 -4.5t-44 -18.5t-33.5 -40t-13.5 -70v-739h363v739q0 44 -13.5 70t-33.5 40t-43.5 18.5t-44.5 4.5h-4v109h610v-109h-25q-22 0 -47.5 -4.5t-47 -18.5t-36 -40t-14.5 -70v-623q0 -40 14.5 -64.5t36.5 -38t47.5 -17.5t46.5 -4h25v-109 h-1968v109h24q22 0 47.5 4t47.5 17.5t36.5 38t14.5 64.5v623q0 44 -14.5 70t-36 40t-47 18.5t-48.5 4.5h-24v109h610v-109h-4q-21 0 -44.5 -4.5t-43.5 -18.5t-33.5 -40t-13.5 -70v-739h362v747q0 41 -13.5 65.5t-34 38t-44 17.5t-43.5 4h-4v109z"/>
<glyph glyph-name="afii10091" horiz-adv-x="2068" unicode="щ" d="M729 1098h580v-109h-4q-21 0 -45 -4.5t-44 -18.5t-33.5 -40t-13.5 -70v-739h363v739q0 44 -13.5 70t-33.5 40t-43.5 18.5t-44.5 4.5h-4v109h610v-109h-25q-22 0 -47.5 -4.5t-47 -18.5t-36 -40t-14.5 -70v-631q0 -36 12 -58.5t32.5 -35t47 -17t55.5 -5.5h48v-539h-142 l-10 149q-5 77 -23.5 130.5t-45 87t-59 48.5t-65.5 15h-1648v109h24q22 0 47.5 4t47.5 17.5t36.5 38t14.5 64.5v623q0 44 -14.5 70t-36 40t-47 18.5t-48.5 4.5h-24v109h610v-109h-4q-21 0 -44.5 -4.5t-43.5 -18.5t-33.5 -40t-13.5 -70v-739h362v747q0 41 -13.5 65.5t-34 38 t-44 17.5t-43.5 4h-4v109z"/>
<glyph glyph-name="afii10092" horiz-adv-x="1456" unicode="ъ" d="M891 119q51 0 86.5 11.5t58 36t33 64.5t10.5 97q0 97 -51 137.5t-145 40.5h-146v-387h154zM932 1098v-117h-27q-34 0 -64.5 -6t-53.5 -20.5t-36.5 -38.5t-13.5 -60v-231h197q95 0 180 -11.5t150 -44t103 -92t38 -155.5q0 -69 -28.5 -128t-85.5 -102t-143.5 -67.5 t-203.5 -24.5h-688v109h23q75 0 111 33t36 98v741h-119q-28 0 -47.5 -8t-33 -27t-22 -51t-14.5 -80l-8 -67h-141l12 350h879z"/>
<glyph glyph-name="afii10093" horiz-adv-x="1853" unicode="ы" d="M1167 0v109h25q22 0 47.5 4.5t47 18.5t36 40t14.5 70v614q0 44 -14.5 70t-36 40t-47 18.5t-47.5 4.5h-25v109h641v-109h-24q-21 0 -44.5 -4.5t-43.5 -18.5t-33.5 -40t-13.5 -70v-614q0 -44 13.5 -70t33.5 -40t43.5 -18.5t44.5 -4.5h24v-109h-641zM629 119q51 0 86.5 11.5 t58 36t33 64.5t10.5 97q0 97 -51.5 137.5t-144.5 40.5h-105v-387h113zM711 1098v-117h-27q-34 0 -64.5 -6t-53.5 -20.5t-36.5 -38.5t-13.5 -60v-231h156q95 0 180 -11.5t150 -44t103 -92t38 -155.5q0 -69 -28.5 -128t-85.5 -102t-143.5 -67.5t-203.5 -24.5h-647v109h22 q76 0 112 33t36 98v616q0 71 -37.5 102t-110.5 31h-22v109h676z"/>
<glyph glyph-name="afii10094" horiz-adv-x="1235" unicode="ь" d="M670 119q51 0 86.5 11.5t58 36t33 64.5t10.5 97q0 97 -51.5 137.5t-144.5 40.5h-146v-387h154zM711 1098v-117h-27q-34 0 -64.5 -6t-53.5 -20.5t-36.5 -38.5t-13.5 -60v-231h197q95 0 180 -11.5t150 -44t103 -92t38 -155.5q0 -69 -28.5 -128t-85.5 -102t-143.5 -67.5 t-203.5 -24.5h-688v109h22q76 0 112 33t36 98v616q0 71 -37.5 102t-110.5 31h-22v109h676z"/>
<glyph glyph-name="afii10095" horiz-adv-x="1063" unicode="э" d="M463 94q44 0 77.5 21t57 69.5t37 127.5t16.5 194h-356v131h356q-3 85 -12.5 153.5t-29.5 116.5t-53 73.5t-83 25.5q-42 0 -73.5 -22.5t-52.5 -58.5t-31.5 -80t-10.5 -87q-104 0 -152.5 39t-48.5 104q0 41 21 80.5t67.5 71t120.5 50.5t179 19q113 0 201.5 -30.5t149 -96 t92.5 -169.5t32 -251q0 -167 -35.5 -280t-100.5 -183t-156 -100t-202 -30q-117 0 -194.5 18.5t-124 50.5t-65.5 74t-19 90q0 75 51 116.5t151 41.5q0 -59 12.5 -110t36.5 -88.5t59.5 -59t82.5 -21.5z"/>
<glyph glyph-name="afii10096" horiz-adv-x="1890" unicode="ю" d="M1090 553q0 -109 10 -192t33 -139t60 -84.5t91 -28.5t90.5 28.5t59.5 84.5t33 139t10 192q0 220 -44 330t-151 110q-54 0 -90.5 -27.5t-59 -82.5t-32.5 -137.5t-10 -192.5zM1794 553q0 -289 -131 -431t-383 -142q-114 0 -205 32.5t-156.5 98t-103 164t-43.5 231.5h-256 v-264q0 -44 13.5 -70t33.5 -40t43.5 -18.5t44.5 -4.5h15v-109h-631v109h24q23 0 48.5 4.5t47 18.5t36 40t14.5 70v614q0 44 -14.5 70t-36 40t-47 18.5t-48.5 4.5h-24v109h631v-109h-15q-21 0 -44.5 -4.5t-43.5 -18.5t-33.5 -40t-13.5 -70v-233h258q16 254 145 377.5 t367 123.5q119 0 213 -35t159.5 -106t100.5 -178.5t35 -251.5z"/>
<glyph glyph-name="afii10097" horiz-adv-x="1255" unicode="я" d="M471 188q-31 -57 -73 -93.5t-99.5 -57.5t-131 -29t-167.5 -8v109h6q28 0 50 7t41.5 22t38 38t38.5 55l180 289q-41 10 -82.5 32t-75 57t-54.5 84.5t-21 113.5q0 68 24.5 122t78.5 91.5t139 57.5t206 20h652v-109h-7q-89 0 -126 -31t-37 -94v-618q0 -28 6.5 -52.5 t22.5 -43.5t44 -30t70 -11h27v-109h-658v109h8q34 0 64.5 4.5t53.5 18.5t36.5 41.5t13.5 72.5v237h-108zM604 981q-45 0 -76 -13.5t-50 -37.5t-27.5 -57.5t-8.5 -73.5q0 -44 8.5 -80t28 -61.5t50 -39.5t75.5 -14h135v377h-135z"/>
<glyph glyph-name="uni0450" horiz-adv-x="1169" unicode="ѐ" d="M627 -20q-130 0 -229.5 38t-166.5 110t-101 176.5t-34 238.5q0 144 34 253t99 182t159.5 109.5t215.5 36.5q111 0 200 -31.5t151 -93.5t95 -154t33 -214v-105h-671q3 -103 22.5 -177t54 -122t84 -71t113.5 -23q53 0 98 12.5t81.5 35t64 53t45.5 65.5q55 -30 55 -100 q0 -44 -24 -83.5t-74 -69.5t-125.5 -48t-179.5 -18zM608 991q-86 0 -136.5 -85t-55.5 -249h354q0 78 -9 140t-28.5 105t-50 66t-74.5 23zM642 1241q-48 28 -106.5 69.5t-113 85.5t-98.5 84.5t-63 67.5v21h321q16 -34 41 -74.5t52.5 -81t55.5 -78.5t50 -67v-27h-139z"/>
<glyph glyph-name="afii10071" horiz-adv-x="1169" unicode="ё" d="M627 -20q-130 0 -229.5 38t-166.5 110t-101 176.5t-34 238.5q0 144 34 253t99 182t159.5 109.5t215.5 36.5q111 0 200 -31.5t151 -93.5t95 -154t33 -214v-105h-671q3 -103 22.5 -177t54 -122t84 -71t113.5 -23q53 0 98 12.5t81.5 35t64 53t45.5 65.5q55 -30 55 -100 q0 -44 -24 -83.5t-74 -69.5t-125.5 -48t-179.5 -18zM608 991q-86 0 -136.5 -85t-55.5 -249h354q0 78 -9 140t-28.5 105t-50 66t-74.5 23zM701 1409q0 35 10 59.5t27 39.5t39 21.5t47 6.5q23 0 44.5 -6.5t38.5 -21.5t27.5 -39.5t10.5 -59.5q0 -34 -10.5 -58.5t-27.5 -39.5 t-38.5 -22t-44.5 -7q-25 0 -47 7t-39 22t-27 39.5t-10 58.5zM281 1409q0 35 10 59.5t26.5 39.5t38.5 21.5t46 6.5t46 -6.5t39 -21.5t27.5 -39.5t10.5 -59.5q0 -34 -10.5 -58.5t-27.5 -39.5t-39 -22t-46 -7t-46 7t-38.5 22t-26.5 39.5t-10 58.5z"/>
<glyph glyph-name="afii10099" horiz-adv-x="1333" unicode="ђ" d="M694 889q-51 0 -85 -26t-54.5 -70t-29.5 -101.5t-9 -120.5v-329q0 -43 10.5 -69t29.5 -40.5t46.5 -19t61.5 -4.5h6v-109h-629v109h4q34 0 63.5 4.5t51 19.5t33.5 43t12 74v934h-178v108h178v31q0 41 -14.5 65.5t-36.5 38t-47.5 17.5t-47.5 4h-24v108h481v-264h318v-108 h-318v-27q0 -40 -2.5 -85.5t-5.5 -84.5q-4 -46 -8 -90h18q31 58 65.5 91t73.5 49.5t82.5 21t91.5 4.5q79 0 142 -23t106.5 -71t66.5 -123t23 -178v-684q0 -138 -36 -229.5t-100.5 -146t-153.5 -77.5t-195 -23h-39v127h12q48 0 85.5 18t63 60t39 112t13.5 175v612 q0 66 -8.5 117.5t-28 87t-51 54t-76.5 18.5z"/>
<glyph glyph-name="afii10100" horiz-adv-x="1040" unicode="ѓ" d="M516 242q0 -44 13.5 -70t33.5 -40t43.5 -18.5t44.5 -4.5h45v-109h-661v109h24q23 0 48.5 4.5t47 18.5t36 40t14.5 70v614q0 44 -14.5 70t-36 40t-47 18.5t-48.5 4.5h-24v109h964v-348h-141l-10 88q-5 48 -15 76.5t-26.5 43.5t-41.5 19t-60 4h-189v-739zM365 1268 q22 29 49.5 67t55.5 78.5t52.5 81t40.5 74.5h322v-21q-19 -27 -63 -67.5t-98.5 -84.5t-113 -85.5t-106.5 -69.5h-139v27z"/>
<glyph glyph-name="afii10101" horiz-adv-x="1079" unicode="є" d="M604 -20q-113 0 -206.5 29t-160.5 96t-104 175t-37 265q0 166 38.5 277t106 178t159.5 95.5t198 28.5q99 0 175 -16.5t127 -45.5t77.5 -68.5t26.5 -84.5q0 -33 -11.5 -64.5t-41 -55.5t-81 -39t-131.5 -15q0 53 -6.5 101t-21.5 84t-40.5 57.5t-64.5 21.5q-42 0 -76.5 -19 t-59.5 -65t-40 -123t-18 -192h356v-131h-354q9 -170 66.5 -253t174.5 -83q53 0 99.5 12.5t84.5 35t66.5 53t46.5 65.5q25 -15 37 -40.5t12 -53.5q0 -39 -23 -79t-71.5 -72.5t-123.5 -53t-179 -20.5z"/>
<glyph glyph-name="afii10102" horiz-adv-x="999" unicode="ѕ" d="M473 -20q-111 0 -189.5 18t-128 50t-72 76t-22.5 95q0 50 19.5 80.5t49 47.5t62.5 22.5t60 5.5q0 -64 16 -115t45 -86.5t69.5 -54.5t90.5 -19q53 0 91.5 11t63 30.5t36.5 45t12 53.5q0 34 -12.5 60.5t-41.5 50t-77.5 46t-120.5 47.5q-83 29 -146.5 61.5t-107 74t-66 95 t-22.5 122.5q0 82 31.5 143t89.5 101.5t139 60.5t180 20q97 0 165 -16.5t111 -43.5t63 -61t20 -69q0 -69 -48.5 -105t-160.5 -36q0 102 -45.5 158.5t-134.5 56.5q-33 0 -63.5 -8t-53 -24t-36 -39.5t-13.5 -55.5q0 -33 12.5 -59t44 -49.5t85.5 -47.5t138 -53 q68 -24 125.5 -54.5t99 -70t64.5 -90t23 -115.5q0 -85 -29.5 -152t-86.5 -113t-140 -70.5t-189 -24.5z"/>
<glyph glyph-name="afii10103" horiz-adv-x="721" unicode="і" d="M59 109q23 0 48.5 4.5t47 18.5t36 40t14.5 70v622q0 41 -14.5 65.5t-36.5 38t-47.5 17.5t-47.5 4h-24v109h481v-856q0 -44 14.5 -70t36 -40t47.5 -18.5t48 -4.5h24v-109h-651v109h24zM176 1430q0 39 13.5 67t37 45.5t55 26t68.5 8.5q35 0 67 -8.5t56 -26t38.5 -45.5 t14.5 -67q0 -38 -14.5 -66t-38.5 -46t-56 -27t-67 -9q-37 0 -68.5 9t-55 27t-37 46t-13.5 66z"/>
<glyph glyph-name="afii10104" horiz-adv-x="721" unicode="ї" d="M59 109q23 0 48.5 4.5t47 18.5t36 40t14.5 70v622q0 41 -14.5 65.5t-36.5 38t-47.5 17.5t-47.5 4h-24v109h481v-856q0 -44 14.5 -70t36 -40t47.5 -18.5t48 -4.5h24v-109h-651v109h24zM419 1409q0 35 10 59.5t27 39.5t39 21.5t47 6.5q23 0 44.5 -6.5t38.5 -21.5 t27.5 -39.5t10.5 -59.5q0 -34 -10.5 -58.5t-27.5 -39.5t-38.5 -22t-44.5 -7q-25 0 -47 7t-39 22t-27 39.5t-10 58.5zM-1 1409q0 35 10 59.5t26.5 39.5t38.5 21.5t46 6.5t46 -6.5t39 -21.5t27.5 -39.5t10.5 -59.5q0 -34 -10.5 -58.5t-27.5 -39.5t-39 -22t-46 -7t-46 7 t-38.5 22t-26.5 39.5t-10 58.5z"/>
<glyph glyph-name="afii10105" horiz-adv-x="707" unicode="ј" d="M178 1430q0 39 13.5 67t37 45.5t55 26t68.5 8.5q35 0 67 -8.5t56 -26t38.5 -45.5t14.5 -67q0 -38 -14.5 -66t-38.5 -46t-56 -27t-67 -9q-37 0 -68.5 9t-55 27t-37 46t-13.5 66zM516 1098v-1114q0 -138 -38.5 -229.5t-107 -146t-163 -77.5t-207.5 -23h-41v127h14 q56 0 99.5 18t73 60t44.5 112t15 175v854q0 44 -13 70.5t-35.5 41t-52.5 19t-63 4.5h-6v109h481z"/>
<glyph glyph-name="afii10106" horiz-adv-x="1827" unicode="љ" d="M1262 119q51 0 86.5 11.5t58 36t33 64.5t10.5 97q0 97 -51.5 137.5t-145.5 40.5h-104v-387h113zM471 862q0 41 -12.5 66t-34 38.5t-50.5 18t-63 4.5h-26v109h1058v-117h-26q-33 0 -63.5 -6t-53.5 -20t-37 -36.5t-14 -56.5v-237h156q94 0 179.5 -11.5t150 -44t103 -92 t38.5 -155.5q0 -69 -28.5 -128t-85.5 -102t-143.5 -67.5t-203.5 -24.5h-647v109h22q142 0 148 118v754h-232q-20 -190 -51 -358t-70 -306q-27 -94 -57.5 -157.5t-68 -102t-83.5 -55t-104 -16.5q-82 0 -127 37.5t-45 105.5q0 34 10.5 59t27 41.5t36.5 24.5t39 8 q0 -37 22.5 -63.5t63.5 -26.5q24 0 47.5 6.5t48 33.5t49.5 82t51 152q12 42 25 98t24.5 114t19 112t7.5 92z"/>
<glyph glyph-name="afii10107" horiz-adv-x="1888" unicode="њ" d="M1323 119q51 0 86.5 11.5t58 36t33 64.5t10.5 97q0 97 -51 137.5t-145 40.5h-105v-387h113zM1405 1098v-117h-27q-34 0 -64.5 -6t-53.5 -20.5t-36.5 -38.5t-13.5 -60v-231h156q95 0 180 -11.5t150 -44t103 -92t38 -155.5q0 -69 -28 -128t-85.5 -102t-144 -67.5 t-203.5 -24.5h-616v109h4q145 0 145 124v273h-403v-264q0 -44 13.5 -70t33.5 -40t43.5 -18.5t44.5 -4.5h4v-109h-610v109h24q23 0 48.5 4.5t47 18.5t36 40t14.5 70v614q0 44 -14.5 70t-36 40t-47 18.5t-48.5 4.5h-24v109h610v-109h-4q-21 0 -44.5 -4.5t-43.5 -18.5 t-33.5 -40t-13.5 -70v-233h403v241q0 66 -39 95.5t-108 29.5h-2v109h645z"/>
<glyph glyph-name="afii10108" horiz-adv-x="1366" unicode="ћ" d="M205 1292v31q0 41 -14.5 65.5t-36.5 38t-47.5 17.5t-47.5 4h-24v108h481v-264h318v-108h-318v-27q0 -40 -2.5 -85.5t-5.5 -84.5q-4 -46 -8 -90h18q31 58 65.5 91t73.5 49.5t82.5 21t91.5 4.5q79 0 142 -23t106.5 -71t66.5 -122.5t23 -178.5v-414q0 -48 8.5 -76.5 t25.5 -43.5t43 -20t61 -5h6v-109h-455v612q0 66 -8.5 117.5t-28 87t-51 54t-76.5 18.5q-51 0 -85 -26t-54.5 -70t-29.5 -101.5t-9 -120.5v-329q0 -43 10.5 -69t29.5 -40.5t46.5 -19t61.5 -4.5h6v-109h-629v109h4q35 0 64 4.5t50.5 19.5t33.5 43t12 74v934h-178v108h178z"/>
<glyph glyph-name="afii10109" horiz-adv-x="1315" unicode="ќ" d="M35 109h24q23 0 48.5 4.5t47 18.5t36 40t14.5 70v614q0 44 -14.5 70t-36 40t-47 18.5t-48.5 4.5h-24v109h620v-109h-4q-21 0 -44.5 -4.5t-43.5 -18.5t-33.5 -40t-13.5 -70v-225q50 0 81 11t54 34q25 25 57 73.5t83 127.5q34 54 65 97t66.5 73t80 46.5t105.5 16.5 q51 0 84.5 -10.5t54 -28t29 -40t8.5 -46.5q0 -28 -9.5 -51t-26 -39.5t-38.5 -26.5t-47 -12q-8 47 -32.5 76t-69.5 29q-18 0 -36 -9t-37.5 -28t-42 -48.5t-50.5 -70.5q-26 -39 -47 -68.5t-39 -51.5t-34.5 -38.5t-33.5 -30.5q33 -4 66.5 -15t66 -32t62.5 -53t57 -78l113 -192 q24 -42 46 -69t45.5 -42t50.5 -20.5t61 -5.5h6v-109h-86q-84 0 -151.5 6.5t-121.5 27t-96.5 59t-77.5 102.5l-104 194q-22 42 -40 67t-36 39t-38 18.5t-48 4.5v-276q0 -44 13.5 -70t33.5 -40t43.5 -18.5t44.5 -4.5h4v-109h-620v109zM500 1268q22 29 49.5 67t55.5 78.5 t52.5 81t40.5 74.5h322v-21q-19 -27 -63 -67.5t-98.5 -84.5t-113 -85.5t-106.5 -69.5h-139v27z"/>
<glyph glyph-name="uni045D" horiz-adv-x="1415" unicode="ѝ" d="M1210 242q0 -44 14.5 -70t36 -40t47.5 -18.5t48 -4.5h24v-109h-620v109h4q21 0 44.5 4.5t43.5 18.5t33.5 40t13.5 70v440l-383 -420v-20q0 -44 13.5 -70t33.5 -40t43.5 -18.5t44.5 -4.5h4v-109h-620v109h24q23 0 48.5 4.5t47 18.5t36 40t14.5 70v614q0 44 -14.5 70 t-36 40t-47 18.5t-48.5 4.5h-24v109h620v-109h-4q-21 0 -44.5 -4.5t-43.5 -18.5t-33.5 -40t-13.5 -70v-436l383 420v16q0 44 -13.5 70t-33.5 40t-43.5 18.5t-44.5 4.5h-4v109h620v-109h-24q-22 0 -48 -4.5t-47.5 -18.5t-36 -40t-14.5 -70v-614zM736 1241q-48 28 -106.5 69.5 t-113 85.5t-98.5 84.5t-63 67.5v21h321q16 -34 41 -74.5t52.5 -81t55.5 -78.5t50 -67v-27h-139z"/>
<glyph glyph-name="afii10110" horiz-adv-x="1186" unicode="ў" d="M1186 1098v-109q-31 0 -54.5 -7t-42.5 -24.5t-35 -46t-32 -71.5q-36 -102 -75 -208t-78.5 -212.5t-79 -212t-76.5 -207.5q-36 -99 -68 -174t-67.5 -130t-78.5 -91t-100 -57.5t-132.5 -30.5t-176.5 -9h-35v119q107 0 182 26t127 74t85.5 115t58.5 148l-369 901 q-12 29 -27 46t-32 26t-37 11.5t-43 2.5v121h584v-109q-60 0 -94.5 -15.5t-34.5 -60.5q0 -17 7 -40.5t13 -38.5q18 -43 37.5 -93.5t38 -101t35.5 -97.5t30 -83q15 -39 25 -70.5t16.5 -57t10.5 -47t6 -42.5q2 21 8 46.5t13 49t14 42t10 26.5l135 401q4 10 7.5 23.5t6.5 27.5 t4.5 27t1.5 22q0 47 -39 64.5t-110 17.5v109h461zM602 1354q88 0 135.5 50t58.5 157h256q-6 -62 -25.5 -120t-67.5 -102.5t-133.5 -71t-223.5 -26.5t-223.5 26.5t-134 71t-68 102.5t-25.5 120h256q11 -107 59 -157t136 -50z"/>
<glyph glyph-name="afii10193" horiz-adv-x="1374" unicode="џ" d="M1315 989q-22 0 -48 -4.5t-47.5 -18.5t-36 -40t-14.5 -70v-623q0 -40 14.5 -64.5t36.5 -38t47.5 -17.5t47.5 -4h24v-109h-366q-103 0 -160 -103.5t-57 -326.5h-135q0 114 -18.5 195t-51.5 133.5t-79 77t-101 24.5h-336v109h24q22 0 47.5 4t47.5 17.5t36.5 38t14.5 64.5 v623q0 44 -14.5 70t-36 40t-47 18.5t-48.5 4.5h-24v109h620v-109h-4q-21 0 -44.5 -4.5t-43.5 -18.5t-33.5 -40t-13.5 -70v-739h342v739q0 44 -13.5 70t-33.5 40t-43.5 18.5t-44.5 4.5h-4v109h620v-109h-24z"/>
<glyph glyph-name="uni0460" horiz-adv-x="2343" unicode="Ѡ" d="M856 1069q0 283 -158 283q-241 0 -241 -619q0 -594 338 -594q122 0 227 66v457h299v-457q105 -66 227 -66q338 0 338 594q0 619 -241 619q-158 0 -158 -283q-106 0 -169 50t-63 122q0 107 94.5 174.5t235.5 67.5q267 0 456 -205.5t189 -546.5q0 -346 -177.5 -548.5 t-459.5 -202.5q-224 0 -422 126q-197 -126 -421 -126q-282 0 -459.5 202.5t-177.5 548.5q0 340 189 546t456 206q139 0 234 -67t95 -175q0 -74 -63.5 -123t-167.5 -49z"/>
<glyph glyph-name="uni0461" horiz-adv-x="1769" unicode="ѡ" d="M961 1098q66 -129 301 -901q103 124 169 304.5t66 315.5q0 130 -108 158q0 143 133 143q155 0 155 -198q0 -208 -120.5 -464.5t-317.5 -455.5h-205q-32 137 -108 406l-281 -406h-205q-139 548 -223.5 753t-157.5 205q-37 0 -82 -26l-40 84q150 102 284 102 q133 0 219 -165.5t219 -725.5l224 324q-136 447 -203 547h281z"/>
<glyph glyph-name="uni0462" horiz-adv-x="1458" unicode="Ѣ" d="M723 121h100q228 0 228 282q0 162 -57 232t-193 70h-78v-584zM723 1065v-242h129q545 0 545 -409q0 -196 -143 -305t-412 -109h-633v109h86q56 0 80 26.5t24 108.5v821h-67q-147 0 -156 -84l-8 -66h-137l10 275h358v31q0 133 -104 133h-86v108h704v-108h-86 q-104 0 -104 -133v-31h358l11 -275h-138l-8 66q-10 84 -155 84h-68z"/>
<glyph glyph-name="uni0463" horiz-adv-x="1235" unicode="ѣ" d="M670 119q101 0 144.5 47.5t43.5 161.5q0 178 -196 178h-146v-387h154zM516 944v-319h197q253 0 362 -74t109 -229q0 -147 -120.5 -234.5t-340.5 -87.5h-688v109h22q148 0 148 131v704h-178v109h178v262q0 133 -148 133h-22v108h481v-503h318v-109h-318z"/>
<glyph glyph-name="uni0464" horiz-adv-x="2114" unicode="Ѥ" d="M1995 338q35 -30 35 -88q0 -112 -120 -191t-343 -79q-328 0 -513.5 185.5t-195.5 534.5h-307v-458q0 -133 104 -133h88v-109h-686v109h86q105 0 105 133v987q0 125 -105 125h-86v108h686v-108h-88q-104 0 -104 -133v-396h311q27 313 212 485.5t491 172.5q221 0 344 -65.5 t123 -172.5q0 -80 -68.5 -129t-187.5 -49q0 126 -58.5 205.5t-167.5 79.5q-327 0 -346 -527h479v-125h-481q6 -289 101 -423t313 -134q232 0 379 195z"/>
<glyph glyph-name="uni0465" horiz-adv-x="1755" unicode="ѥ" d="M772 506h-268v-264q0 -133 135 -133h14v-109h-618v109h24q146 0 146 133v614q0 133 -146 133h-24v109h618v-109h-14q-135 0 -135 -133v-233h270q32 501 500 501q189 0 297 -59.5t108 -155.5q0 -174 -264 -174q0 264 -133 264q-181 0 -195 -376h357v-117h-357 q13 -373 244 -373q207 0 297 166q49 -30 49 -94q0 -92 -106.5 -158.5t-290.5 -66.5q-492 0 -508 526z"/>
<glyph glyph-name="uni0466" horiz-adv-x="1624" unicode="Ѧ" d="M588 825h301l-53 144q-53 145 -88 301q-46 -154 -101 -291zM678 1462h289l458 -1206q56 -147 162 -147h37v-109h-618v109q106 0 106 79q0 37 -18 88l-158 424h-86v-700h-250v700h-61l-152 -395q-25 -65 -25 -117q0 -79 95 -79v-109h-449v109h25q68 0 102 34t66 115z"/>
<glyph glyph-name="uni0467" horiz-adv-x="1366" unicode="ѧ" d="M467 623h244l-41 90q-59 130 -80 221q-11 -59 -68 -186zM467 506h-49l-99 -225q-24 -55 -24 -113q0 -59 76 -59v-109h-371v109h23q45 0 71 26t68 123l364 840h283l405 -891q45 -98 152 -98v-109h-561v109q88 0 88 65q0 43 -21 90l-110 242h-53v-506h-242v506z"/>
<glyph glyph-name="uni0468" horiz-adv-x="2394" unicode="Ѩ" d="M1358 825h301l-53 144q-53 145 -88 301q-46 -154 -101 -291zM57 0v109h86q105 0 105 133v987q0 125 -105 125h-86v108h686v-108h-88q-104 0 -104 -133v-396h643l254 637h289l458 -1206q56 -147 162 -147h37v-109h-618v109q106 0 106 79q0 37 -18 88l-158 424h-86v-700 h-250v700h-61l-152 -395q-24 -62 -24 -117q0 -79 94 -79v-109h-432v109h8q68 0 102 34t66 115l174 442h-594v-458q0 -133 104 -133h66v-109h-664z"/>
<glyph glyph-name="uni0469" horiz-adv-x="1987" unicode="ѩ" d="M1087 623h244l-41 90q-60 131 -80 221q-14 -66 -67 -186zM1087 506h-49l-98 -225q-25 -57 -25 -113q0 -59 76 -59v-109h-370v109h22q44 0 69.5 24.5t69.5 124.5l107 248h-385v-506h-469v109h24q146 0 146 133v614q0 133 -146 133h-24v109h618v-109h-14q-135 0 -135 -133 v-233h436l207 475h283l405 -891q45 -98 152 -98v-109h-562v109q88 0 88 65q0 45 -20 90l-111 242h-53v-506h-242v506z"/>
<glyph glyph-name="uni046A" horiz-adv-x="1884" unicode="Ѫ" d="M1016 848l362 477h-714zM643 0v109h72q86 0 86 122v469q-128 0 -195 -151l-147 -354q-46 -111 -112.5 -153t-186.5 -42h-160v109h10q64 0 101 43.5t79 140.5l134 305q91 208 397 223l-395 533v108h1249v-108l-416 -533q309 -15 402 -223l133 -305q46 -105 82.5 -144.5 t97.5 -39.5h10v-109h-160q-117 0 -184 40.5t-115 154.5l-147 354q-63 151 -195 151v-485q0 -106 86 -106h72v-109h-598z"/>
<glyph glyph-name="uni046B" horiz-adv-x="1630" unicode="ѫ" d="M885 653h10l268 305h-528zM549 109h2q119 0 119 133v276q-100 0 -150 -129l-74 -194q-40 -105 -109.5 -150t-246.5 -45h-90v109h4q62 0 94 30t66 107l80 192q72 174 288 183l78 2l-323 374v101h1087v-101l-340 -374l64 -2q217 -7 288 -183l80 -192q57 -137 160 -137h4 v-109h-90q-181 0 -249.5 46.5t-106.5 148.5l-74 194q-49 129 -149 129v-276q0 -133 118 -133h2v-109h-532v109z"/>
<glyph glyph-name="uni046C" horiz-adv-x="2662" unicode="Ѭ" d="M1796 848l363 477h-715zM551 242q0 -133 104 -133h66v-109h-664v109h86q105 0 105 133v987q0 125 -105 125h-86v108h686v-108h-88q-104 0 -104 -133v-396h944l-391 529v108h1249v-108l-416 -533q309 -15 402 -223l133 -305q46 -105 82.5 -144.5t97.5 -39.5h10v-109h-159 q-114 0 -181.5 38t-117.5 157l-148 354q-63 151 -194 151v-469q0 -122 86 -122h71v-109h-598v109h72q83 0 86 106v485q-128 0 -195 -151l-147 -354q-48 -116 -115 -155.5t-184 -39.5h-160v109h10q62 0 98.5 40.5t82.5 143.5l133 305q27 62 67 102h-618v-458z"/>
<glyph glyph-name="uni046D" horiz-adv-x="2243" unicode="ѭ" d="M1497 653h10l269 305h-529zM1161 109h2q119 0 119 133v276q-103 0 -149 -129l-74 -194q-39 -103 -109 -149t-248 -46h-90v109h4q62 0 94 30t66 107l80 192q15 36 37 68h-389v-506h-469v109h24q146 0 146 133v614q0 133 -146 133h-24v109h618v-109h-14q-135 0 -135 -133 v-233h721l-326 374v101h1088v-101l-340 -374l63 -2q217 -7 289 -183l80 -192q57 -137 159 -137h5v-109h-91q-182 0 -250 47.5t-106 147.5l-74 194q-49 129 -149 129v-276q0 -133 119 -133h2v-109h-533v109z"/>
<glyph glyph-name="uni046E" horiz-adv-x="1264" unicode="Ѯ" d="M1008 -453q-17 109 -113 109q-51 0 -193 -26.5t-221 -26.5q-346 0 -346 247q0 115 90.5 180t333.5 83q315 23 315 293q0 286 -356 286h-188v127h184q311 0 311 299q0 240 -219 240q-223 0 -223 -318q-268 0 -268 170q0 94 95 166.5t255 96.5q-85 124 -203 239v27h141 q111 -79 222 -195q125 197 264 197q127 0 127 -105q0 -34 -27 -67q-28 18 -74 18q-112 0 -178 -112q402 -47 402 -334q0 -292 -332 -375q383 -49 383 -348q0 -191 -146.5 -295.5t-482.5 -126.5q-211 -14 -211 -143q0 -125 152 -125q88 0 241.5 66.5t241.5 66.5 q184 0 184 -166q0 -53 -48 -96t-113 -52z"/>
<glyph glyph-name="uni046F" horiz-adv-x="1083" unicode="ѯ" d="M834 -442q-15 100 -113 100q-50 0 -162.5 -30.5t-189.5 -30.5q-326 0 -326 247q0 115 91 178t321.5 78t230.5 205q0 201 -237 201h-138v131h140q200 0 200 194q0 175 -141 175q-166 0 -166 -242q-217 0 -217 147q0 157 244 199q-97 130 -185 215v27h142q107 -76 221 -195 q125 197 264 197q127 0 127 -105q0 -34 -27 -67q-28 18 -73 18q-101 0 -164 -90q289 -49 289 -258q0 -206 -236 -272v-11q272 -50 272 -256q0 -296 -532 -329q-221 -14 -221 -138q0 -125 141 -125q79 0 211 63.5t211 63.5q176 0 176 -151q0 -114 -153 -139z"/>
<glyph glyph-name="uni0470" horiz-adv-x="1999" unicode="Ѱ" d="M770 487q-115 0 -201 17.5t-148 49t-102.5 75t-64 95t-32.5 109.5t-9 119v254q0 48 -13.5 77.5t-36 45t-53 20.5t-65.5 5v108h467v-483q0 -97 12.5 -167.5t44.5 -116.5t89 -67.5t145 -21.5h45v621q0 41 -13.5 65.5t-36 38.5t-53 18.5t-65.5 4.5h-27v108h688v-108h-26 q-34 0 -65 -4.5t-53.5 -18.5t-36 -38.5t-13.5 -65.5v-621h45q88 0 144.5 21.5t89 67.5t45 116.5t12.5 167.5v483h467v-108q-34 0 -65 -5t-53.5 -20.5t-36 -45t-13.5 -77.5v-254q0 -61 -9 -119t-32.5 -109.5t-64 -95t-102.5 -75t-148 -49t-201 -17.5h-78v-254 q0 -40 13.5 -64.5t36 -38t53.5 -17.5t65 -4h26v-109h-688v109h27q35 0 65.5 4t53 17.5t36 38t13.5 64.5v254h-78z"/>
<glyph glyph-name="uni0471" horiz-adv-x="1470" unicode="ѱ" d="M1376 641q0 -116 -24.5 -225.5t-81 -198t-148.5 -149.5t-227 -80v-480h-123v472q-137 1 -244 34.5t-180.5 98.5t-112 161t-38.5 220v370q0 41 -9 65.5t-26.5 38t-44 17.5t-62.5 4v109h451v-621q0 -152 62 -236.5t204 -103.5v1419h123v-1421q79 7 141 42.5t104.5 94 t64.5 138t22 174.5t-17.5 161.5t-43.5 110.5t-56 68t-55 34q0 32 7.5 60.5t22 49.5t37 33.5t52.5 12.5q44 0 81 -38t64 -102.5t42 -150.5t15 -182z"/>
<glyph glyph-name="uni0472" horiz-adv-x="1612" unicode="Ѳ" d="M457 684q12 -571 350 -571q325 0 346 536q-101 -53 -199 -53q-58 0 -181 65.5t-183 65.5q-68 0 -133 -43zM1153 791q-11 561 -344 561q-329 0 -350 -527q116 66 221 66q59 0 179 -65.5t181 -65.5q60 0 113 31zM807 -20q-335 0 -514.5 199t-179.5 556t180.5 553.5 t515.5 196.5q323 0 506.5 -201t183.5 -551q0 -348 -184.5 -550.5t-507.5 -202.5z"/>
<glyph glyph-name="uni0473" horiz-adv-x="1255" unicode="ѳ" d="M414 492q12 -383 215 -383q206 0 213 403q-69 -61 -140 -61q-43 0 -103.5 37.5t-96.5 37.5q-40 0 -88 -34zM840 635q-16 358 -213 358q-201 0 -213 -375q71 60 139 60q43 0 105 -38t96 -38q44 0 86 33zM625 -20q-254 0 -391.5 146.5t-137.5 426.5q0 571 535 571 q256 0 392 -147t136 -424q0 -573 -534 -573z"/>
<glyph glyph-name="uni0474" horiz-adv-x="1522" unicode="Ѵ" d="M610 0l-436 1255q-34 99 -127 99h-47v108h676v-108h-94q-80 0 -80 -68q0 -37 18 -88l209 -631q43 -129 57 -248q56 272 152.5 596t188 442t241.5 118q164 0 164 -136q0 -116 -102 -145q-21 88 -82 88q-133 0 -224 -285l-309 -997h-205z"/>
<glyph glyph-name="uni0475" horiz-adv-x="1311" unicode="ѵ" d="M500 0l-336 891q-37 98 -164 98v109h635v-109h-86q-68 0 -68 -65q0 -36 19 -90l137 -388q38 -106 63 -229h7q140 550 220 721.5t255 171.5q139 0 139 -106q0 -89 -66 -119q-31 51 -86 51q-64 0 -105.5 -67t-82.5 -199l-211 -670h-270z"/>
<glyph glyph-name="uni0476" horiz-adv-x="1522" unicode="Ѷ" d="M610 0l-436 1255q-34 99 -127 99h-47v108h676v-108h-94q-80 0 -80 -68q0 -37 18 -88l209 -631q43 -129 57 -248q56 272 152.5 596t188 442t241.5 118q164 0 164 -136q0 -116 -102 -145q-21 88 -82 88q-133 0 -224 -285l-309 -997h-205zM582 1579q-203 171 -293 307v21 h260q53 -113 174 -301v-27h-141zM971 1579q-203 171 -293 307v21h260q53 -113 174 -301v-27h-141z"/>
<glyph glyph-name="uni0477" horiz-adv-x="1311" unicode="ѷ" d="M500 0l-336 891q-37 98 -164 98v109h635v-109h-86q-68 0 -68 -65q0 -36 19 -90l137 -388q38 -106 63 -229h7q140 550 220 721.5t255 171.5q139 0 139 -106q0 -89 -66 -119q-31 51 -86 51q-64 0 -105.5 -67t-82.5 -199l-211 -670h-270zM459 1241q-203 171 -293 307v21h260 q53 -113 174 -301v-27h-141zM848 1241q-203 171 -293 307v21h260q53 -113 174 -301v-27h-141z"/>
<glyph glyph-name="uni0478" horiz-adv-x="2675" unicode="Ѹ" d="M2675 1098v-109q-98 0 -134 -77.5t-339 -911.5q-112 -308 -220.5 -400t-402.5 -92h-35v119q179 0 285 79.5t168 283.5l-369 901q-35 86 -139 86v121h584v-109q-129 0 -129 -76q0 -29 20 -79q185 -441 199 -592q6 59 45 164l135 401q20 59 20 100q0 82 -149 82v109h461z M766 113q307 0 307 620q0 619 -305 619q-311 0 -311 -619q0 -620 309 -620zM766 -20q-313 0 -483 197.5t-170 557.5q0 359 170 554.5t485 195.5q304 0 476.5 -201.5t172.5 -550.5q0 -347 -173 -550t-478 -203z"/>
<glyph glyph-name="uni0479" horiz-adv-x="2300" unicode="ѹ" d="M2300 1098v-109q-98 0 -134 -77.5t-339 -911.5q-113 -311 -221.5 -401.5t-401.5 -90.5h-35v119q179 0 285 79.5t168 283.5l-369 901q-35 86 -139 86v121h584v-109q-129 0 -129 -76q0 -29 20 -79q185 -441 199 -592q6 59 45 164l135 401q21 62 21 100q0 82 -150 82v109 h461zM608 109q193 0 193 444q0 220 -43.5 330t-151.5 110q-103 0 -147.5 -104t-44.5 -336q0 -444 194 -444zM604 -20q-243 0 -375.5 146.5t-132.5 426.5q0 571 514 571q247 0 377.5 -147t130.5 -424q0 -573 -514 -573z"/>
<glyph glyph-name="uni047A" horiz-adv-x="1694" unicode="Ѻ" d="M987 133q250 83 250 600q0 518 -250 598q-43 -90 -141 -90t-139 88q-250 -84 -250 -596q0 -513 248 -598q42 88 141 88q103 0 141 -90zM997 1475q282 -42 433 -236t151 -506t-151.5 -506.5t-434.5 -236.5q-36 -117 -149 -117q-111 0 -152 117q-581 84 -581 745 q0 655 581 740q35 116 152 116t151 -116z"/>
<glyph glyph-name="uni047B" horiz-adv-x="1317" unicode="ѻ" d="M760 125q143 52 143 428q0 375 -145 424q-35 -49 -103 -49q-65 0 -102 47q-139 -50 -139 -422q0 -370 139 -426q33 49 102 49q73 0 105 -51zM780 1116q441 -66 441 -563q0 -505 -443 -565q-23 -99 -123 -99q-98 0 -125 101q-434 67 -434 563q0 499 434 563q22 98 125 98 q102 0 125 -98z"/>
<glyph glyph-name="uni047C" horiz-adv-x="2343" unicode="Ѽ" d="M856 1069q0 283 -158 283q-241 0 -241 -619q0 -594 338 -594q254 0 350 277h53q96 -277 350 -277q338 0 338 594q0 619 -241 619q-158 0 -158 -283q-106 0 -169 50t-63 122q0 107 94.5 174.5t235.5 67.5q267 0 456 -205.5t189 -546.5q0 -346 -177.5 -548.5t-459.5 -202.5 q-263 0 -422 194q-158 -194 -421 -194q-282 0 -459.5 202.5t-177.5 548.5q0 340 189 546t456 206q139 0 234 -67t95 -175q0 -74 -63.5 -123t-167.5 -49zM1024 1546v64q119 36 119 86q0 16 -49.5 41.5t-49.5 79.5q0 79 97 79q125 0 125 -124q0 -170 -242 -226zM1546 2054 v-190h-41q-124 0 -285.5 56t-218.5 56q-88 0 -106 -92l-4 -20h-133q11 139 85.5 221t188.5 82q73 0 229.5 -56.5t270.5 -56.5h14z"/>
<glyph glyph-name="uni047D" horiz-adv-x="1974" unicode="ѽ" d="M1014 344q80 -211 293 -211q142 0 202 91t60 329q0 233 -39.5 339.5t-134.5 106.5q-123 0 -123 -233q-207 0 -207 162q0 91 89.5 142.5t225.5 51.5q227 0 362.5 -151t135.5 -420q0 -277 -137.5 -424t-394.5 -147q-227 0 -359 147q-132 -147 -358 -147q-259 0 -396 148.5 t-137 422.5q0 269 135.5 420t362.5 151q138 0 226.5 -52t88.5 -142q0 -162 -207 -162q0 233 -122 233q-95 0 -134.5 -106.5t-39.5 -339.5q0 -238 60 -329t202 -91q212 0 293 211h53zM854 1241v64q119 36 119 86q0 16 -49.5 41.5t-49.5 78.5q0 80 97 80q125 0 125 -125 q0 -168 -242 -225zM1376 1749v-190h-41q-124 0 -285.5 56t-218.5 56q-88 0 -106 -92l-4 -20h-133q11 139 85.5 221t188.5 82q73 0 229.5 -56.5t270.5 -56.5h14z"/>
<glyph glyph-name="uni047E" horiz-adv-x="2343" unicode="Ѿ" d="M856 1069q0 283 -158 283q-241 0 -241 -619q0 -594 338 -594q122 0 227 66v457h299v-457q105 -66 227 -66q338 0 338 594q0 619 -241 619q-158 0 -158 -283q-106 0 -169 50t-63 122q0 107 94.5 174.5t235.5 67.5q267 0 456 -205.5t189 -546.5q0 -346 -177.5 -548.5 t-459.5 -202.5q-224 0 -422 126q-197 -126 -421 -126q-282 0 -459.5 202.5t-177.5 548.5q0 340 189 546t456 206q139 0 234 -67t95 -175q0 -74 -63.5 -123t-167.5 -49zM1587 1796v-27l-82 -172h-35l-49 103h-184l-49 -103h-35l-49 103h-184l-50 -103h-34l-80 172v27h831z "/>
<glyph glyph-name="uni047F" horiz-adv-x="1769" unicode="ѿ" d="M961 1098q66 -129 301 -901q103 124 169 304.5t66 315.5q0 130 -108 158q0 143 133 143q155 0 155 -198q0 -208 -120.5 -464.5t-317.5 -455.5h-205q-32 137 -108 406l-281 -406h-205q-139 548 -223.5 753t-157.5 205q-37 0 -82 -26l-40 84q150 102 284 102 q133 0 219 -165.5t219 -725.5l224 324q-136 447 -203 547h281zM1288 1444v-27l-82 -172h-35l-49 103h-184l-49 -103h-35l-49 103h-184l-50 -103h-34l-80 172v27h831z"/>
<glyph glyph-name="uni0480" horiz-adv-x="1368" unicode="Ҁ" d="M551 -489v108h86q104 0 104 133v232q-304 22 -466 219.5t-162 529.5q0 348 186.5 549t519.5 201q221 0 344 -65.5t123 -172.5q0 -80 -68.5 -129t-187.5 -49q0 129 -58.5 207t-166.5 78q-181 0 -264.5 -148t-83.5 -471q0 -312 97.5 -451t315.5 -139q101 0 187 41h10v-432 q0 -133 104 -133h86v-108h-706z"/>
<glyph glyph-name="uni0481" horiz-adv-x="1079" unicode="ҁ" d="M868 -489h-311v471q-461 22 -461 563q0 579 502 579q192 0 299 -60.5t107 -154.5q0 -174 -265 -174q0 264 -133 264q-194 0 -194 -452q0 -414 243 -414q114 0 203 47h10v-669z"/>
<glyph glyph-name="uni0482" horiz-adv-x="1247" unicode="҂" d="M588 432l284 -166l-71 -123l-285 164l-180 -313l-129 74l180 315l-283 164l70 123l287 -164l198 346l-284 164l71 125l285 -164l182 313l127 -73l-182 -316l287 -164l-74 -123l-283 164z"/>
<glyph glyph-name="uni0483" horiz-adv-x="1141" unicode="҃" d="M399 1262q-15 -99 -102 -99q-104 0 -104 111q0 117 106 117h444q12 98 103 98q106 0 106 -109q0 -118 -108 -118h-445z"/>
<glyph glyph-name="uni0484" horiz-adv-x="1182" unicode="҄" d="M238 1444q110 0 270 56t229 56q114 0 189 -82t86 -221h-133l-5 21q-22 92 -106 92q-60 0 -218 -56.5t-286 -56.5h-41v191h15z"/>
<glyph glyph-name="uni0485" horiz-adv-x="1182" unicode="҅" d="M723 1315v-76q-242 61 -242 223q0 127 127 127q97 0 97 -76q0 -40 -49.5 -61t-49.5 -45q0 -51 117 -92z"/>
<glyph glyph-name="uni0486" horiz-adv-x="1182" unicode="҆" d="M481 1239v76q117 41 117 92q0 23 -49 45t-49 61q0 76 96 76q127 0 127 -127q0 -162 -242 -223z"/>
<glyph glyph-name="uni0488" horiz-adv-x="2025" unicode="҈" d="M1135 -319q-8 88 -134 88q-130 0 -133 -88h-75q14 194 208 194q196 0 213 -194h-79zM561 -41q-7 88 -133 88q-131 0 -133 -88h-76q14 195 209 195q196 0 213 -195h-80zM1714 -41q-7 88 -133 88q-131 0 -133 -88h-76q14 195 209 195q196 0 213 -195h-80zM383 459 q-6 88 -133 88q-131 0 -133 -88h-76q13 194 209 194t213 -194h-80zM1905 459q-7 88 -133 88q-131 0 -134 -88h-75q13 194 209 194q195 0 213 -194h-80zM561 946q-6 88 -133 88q-131 0 -133 -88h-76q14 195 209 195q196 0 213 -195h-80zM1714 946q-6 88 -133 88 q-131 0 -133 -88h-76q14 195 209 195q196 0 213 -195h-80zM1135 1231q-7 88 -134 88q-130 0 -133 -88h-75q13 194 208 194q196 0 213 -194h-79z"/>
<glyph glyph-name="uni0489" horiz-adv-x="1958" unicode="҉" d="M1079 -35l11 -14q-41 -156 -123 -336h-97q50 210 70 350h139zM633 45l-2 -16q-140 -81 -324 -152l-69 68q175 109 297 198zM1464 184l17 -2q81 -140 151 -323l-67 -70q-110 175 -199 297zM391 453l-14 -11q-156 41 -336 123v97q210 -50 350 -70v-139zM1567 651l14 11 q160 -43 336 -123v-97q-210 50 -350 70v139zM1325 1018l2 16q150 85 324 152l69 -68q-175 -109 -297 -198zM492 877l-17 2q-84 149 -151 323l67 70q107 -171 199 -297zM881 1141l-11 14q43 160 123 336h97q-50 -210 -70 -350h-139z"/>
<glyph glyph-name="uni048A" horiz-adv-x="1712" unicode="Ҋ" d="M1106 1010l-535 -686v-82q0 -133 105 -133h88v-109h-707v109h86q105 0 105 133v987q0 125 -105 125h-86v108h707v-108h-88q-105 0 -105 -133v-721l535 686v35q0 133 -105 133h-88v108h707v-108h-86q-104 0 -104 -133v-990q0 -122 104 -122h147v-35l-127 -504h-219 l181 430h-603v109h88q105 0 105 133v768zM1028 1898h256q-20 -319 -450 -319q-432 0 -451 319h256q20 -206 195 -206q174 0 194 206z"/>
<glyph glyph-name="uni048B" horiz-adv-x="1452" unicode="ҋ" d="M760 0v109h4q135 0 135 133v440l-383 -420v-20q0 -133 135 -133h4v-109h-620v109h24q146 0 146 133v614q0 133 -146 133h-24v109h620v-109h-4q-135 0 -135 -133v-436l383 420v16q0 133 -135 133h-4v109h620v-109h-24q-146 0 -146 -133v-614q0 -133 146 -133h65v-35 l-127 -504h-219l180 430h-495zM901 1561h256q-20 -320 -450 -320q-432 0 -451 320h256q20 -207 195 -207q174 0 194 207z"/>
<glyph glyph-name="uni048C" horiz-adv-x="1307" unicode="Ҍ" d="M571 121h101q227 0 227 282q0 162 -57 232t-193 70h-78v-584zM571 1556v-264h306v-108h-306v-361h129q545 0 545 -409q0 -196 -143 -305t-412 -109h-633v109h86q105 0 105 135v940h-178v108h178v264h323z"/>
<glyph glyph-name="uni048D" horiz-adv-x="1235" unicode="ҍ" d="M670 119q101 0 144.5 47.5t43.5 161.5q0 178 -196 178h-146v-387h154zM516 944v-319h197q253 0 362 -74t109 -229q0 -147 -120.5 -234.5t-340.5 -87.5h-688v109h22q148 0 148 131v704h-178v109h178v266h311v-266h318v-109h-318z"/>
<glyph glyph-name="uni048E" horiz-adv-x="1307" unicode="Ҏ" d="M571 678h50q62 0 108 12l-100 146l90 61l106 -154q76 75 76 277q0 170 -58.5 245.5t-191.5 75.5h-80v-663zM926 600l112 -160l-90 -61l-135 192q-80 -12 -172 -12h-70v-328q0 -122 109 -122h125v-109h-748v109h86q105 0 105 133v987q0 125 -105 125h-86v108h629 q559 0 559 -434q0 -322 -319 -428z"/>
<glyph glyph-name="uni048F" horiz-adv-x="1321" unicode="ҏ" d="M717 127h16q9 0 17 2l-95 135l90 62l95 -138q69 97 69 355q0 422 -190 422q-112 0 -161.5 -96.5t-49.5 -323.5q0 -228 47.5 -323t161.5 -95zM51 -383q146 0 146 133v1096q0 143 -138 143h-14v109h401l37 -160h9q99 180 313 180q420 0 420 -573q0 -452 -254 -545l94 -131 l-90 -62l-119 170l-22 -2q-21 -2 -42 -2q-188 0 -286 166h-14q16 -178 16 -248v-141q0 -133 145 -133h45v-109h-671v109h24z"/>
<glyph glyph-name="afii10050" horiz-adv-x="1122" unicode="Ґ" d="M1069 1337h-496v-1104q0 -40 8.5 -64.5t22.5 -38t33.5 -17.5t40.5 -4h127v-109h-748v109h86q23 0 42 4.5t33 18.5t22 40t8 70v979q0 44 -8 70t-22 40t-33 18.5t-42 4.5h-86v108h686q56 0 92 13t58 37t31.5 58.5t13.5 76.5l8 92h135z"/>
<glyph glyph-name="afii10098" horiz-adv-x="938" unicode="ґ" d="M516 961v-719q0 -44 13.5 -70t33.5 -40t43.5 -18.5t44.5 -4.5h45v-109h-661v109h24q23 0 48.5 4.5t47 18.5t36 40t14.5 70v614q0 44 -14.5 70t-36 40t-47 18.5t-48.5 4.5h-24v109h577q36 0 60.5 8t41.5 27t26.5 51t15.5 80l10 108h131v-411h-381z"/>
<glyph glyph-name="uni0492" horiz-adv-x="1210" unicode="Ғ" d="M1176 1462l14 -401h-115l-24 98q-44 178 -197 178h-281v-524h291v-108h-291v-472q0 -124 105 -124h127v-109h-748v109h86q105 0 105 133v463h-191v108h191v408q0 133 -105 133h-86v108h1119z"/>
<glyph glyph-name="uni0493" horiz-adv-x="1040" unicode="ғ" d="M516 602h244v-108h-244v-252q0 -133 135 -133h45v-109h-661v109h24q146 0 146 133v252h-170v108h170v254q0 133 -146 133h-24v109h964v-348h-141l-10 88q-10 90 -38 116.5t-105 26.5h-189v-379z"/>
<glyph glyph-name="uni0494" horiz-adv-x="1473" unicode="Ҕ" d="M1176 1462l14 -401h-115l-24 98q-44 178 -197 178h-281v-542q62 6 117 6q335 0 526 -171.5t191 -461.5q0 -306 -177.5 -493t-463.5 -187q-469 0 -469 248q0 71 56.5 114.5t146.5 43.5q44 -275 268 -275q297 0 297 551q0 237 -104 369.5t-281 132.5q-49 0 -107 -4v-435 q0 -124 105 -124h127v-109h-748v109h86q105 0 105 133v979q0 133 -105 133h-86v108h1119z"/>
<glyph glyph-name="uni0495" horiz-adv-x="1260" unicode="ҕ" d="M485 -125q0 -100 51 -171t128 -71q118 0 168.5 110.5t50.5 342.5q0 408 -244 408q-61 0 -123 -11v-241q0 -133 135 -133h45v-109h-661v109h24q146 0 146 133v614q0 133 -146 133h-24v109h964v-307h-141l-10 61q-16 97 -45 113t-98 16h-189v-375q79 17 174 17 q508 0 508 -535q0 -580 -541 -580q-171 0 -272.5 60t-101.5 151q0 156 202 156z"/>
</font>
</defs>
</svg>
